<svg width="112" height="23" viewBox="0 0 112 23" fill="none" xmlns="http://www.w3.org/2000/svg">
<path fill-rule="evenodd" clip-rule="evenodd" d="M66.7175 8.88462L63.7597 15.3106L59.7456 8.88462H52.7736L48.8299 17.2247L46.858 8.81626H40.5903C40.5903 8.81626 39.6748 8.81626 38.9001 9.15807C38.2663 9.43151 37.7734 9.84168 37.7734 9.84168L31.9282 14.8321C28.3366 17.5666 21.9984 19.2072 20.2378 19.2756C11.787 19.6174 10.0264 14.0801 10.6602 11.414C12.1391 4.57783 23.0548 3.00551 28.7591 3.00551C31.4352 3.00551 33.6888 3.55241 35.4494 3.96258L37.1395 1.09139L35.8015 0.81794C34.3226 0.612855 31.9282 0.134323 27.914 0.134323C11.6461 0.0659615 3.33614 4.50947 0.800882 10.1835C-2.08649 16.6095 2.77275 22.3519 16.3645 22.3519C18.8294 22.3519 23.6886 22.1468 28.2661 20.5061H32.7733L35.0268 18.5236H41.8579L42.1396 20.6428H49.675V20.5745H53.6891L56.8582 13.8067L61.0132 20.5745H67.4922L73.0557 8.81626H66.7175V8.88462ZM37.6325 16.2677L41.2945 12.918L41.6467 16.1993L37.6325 16.2677Z" fill="#ACACAC"/>
<path fill-rule="evenodd" clip-rule="evenodd" d="M84.9571 8.88464H74.7457L69.1118 20.6428H79.3233C87.4924 20.7112 90.8023 17.6349 91.9291 15.3106C93.1967 12.7129 92.1404 8.88464 84.9571 8.88464ZM85.9431 14.5586C85.1684 17.4982 80.6613 17.7033 79.112 17.7033H77.281L79.9571 11.8242H81.7881C83.5487 11.8242 86.6473 12.0976 85.9431 14.5586Z" fill="#ACACAC"/>
<path fill-rule="evenodd" clip-rule="evenodd" d="M104.958 8.81616L99.8871 13.7382L98.1969 8.88452H91.9292L96.0138 17.8399L91.9292 21.7364H97.2814C97.2814 21.7364 98.3378 21.5997 98.7603 21.463C99.1829 21.3263 99.8167 20.711 99.8167 20.711L112 8.81616H104.958Z" fill="#ACACAC"/>
</svg>
