<svg width="75" height="46" viewBox="0 0 75 46" fill="none" xmlns="http://www.w3.org/2000/svg">
<path d="M46.2188 30.0458L67.2972 18.2858V14.819L46.2188 26.647V30.0458Z" fill="#C8C8C8"/>
<path d="M46.2188 15.2269L67.2972 3.39887V0L46.2188 11.7601V15.2269Z" fill="#C8C8C8"/>
<path fill-rule="evenodd" clip-rule="evenodd" d="M10.2241 45.0009V37.3875H4.06162V45.0009H0.420167H0V26.4431H4.06162V34.1925H10.2241V26.4431H14.2857V45.0009H10.2241ZM67.2969 38.4071C67.2969 37.3195 67.577 36.2319 68.0672 35.2802C68.2773 34.8723 68.5574 34.4644 68.9776 34.1925C69.1877 33.9886 69.4678 33.8526 69.7479 33.7847C70.1681 33.7167 70.6583 33.7167 70.7983 34.1246C70.8683 34.2605 70.8683 34.3965 70.9384 34.4644C71.0784 35.0762 71.0784 36.2998 71.0784 36.7077V45.0009H75V35.2122C75 33.9206 74.7199 32.4931 73.8095 31.5414C73.0392 30.7257 72.1289 30.3858 71.1485 30.3858C69.5378 30.3858 67.8571 31.3375 67.3669 32.833V24.2678L63.4454 26.4431V45.0009H67.3669V38.4071H67.2969ZM16.2465 42.3498C15.8263 41.6701 15.4762 40.8543 15.2661 40.0386C15.056 39.1549 14.916 38.2032 14.916 37.1156C14.916 36.4358 14.986 35.756 15.056 35.1442C15.1961 34.6004 15.3361 33.9886 15.5462 33.4448C15.8263 32.833 16.2465 32.2212 16.7367 31.7453C17.3669 31.2015 18.0672 30.7937 18.9776 30.5217C19.6078 30.3858 20.2381 30.2498 20.9384 30.3178C21.4986 30.3178 21.9888 30.3858 22.479 30.5217C23.1092 30.6577 23.6695 30.9296 24.1597 31.2695C24.7199 31.6774 25.2101 32.2212 25.5602 32.833C25.9804 33.5807 26.1905 34.4644 26.3305 35.4161C26.4006 35.892 26.4006 36.2998 26.4006 36.7757V37.4555H22.479H18.5574C18.6274 38.0672 18.7675 38.679 18.9776 39.2229C19.1877 39.7667 19.4678 40.2425 19.7479 40.6504C20.098 41.1262 20.5182 41.4661 21.0084 41.806C21.6387 42.2139 22.409 42.3498 23.1793 42.3498C24.0196 42.3498 24.8599 42.1459 25.5602 41.874L26.1204 41.6701V44.6611L25.8403 44.729C25.1401 45.0009 24.3697 45.1369 23.5294 45.2049C23.1793 45.3408 22.6891 45.3408 22.1288 45.3408C21.6387 45.3408 21.0784 45.2729 20.5882 45.2049C20.028 45.1369 19.5378 44.933 19.0476 44.729C18.5574 44.5251 18.1373 44.2532 17.7171 43.9813C17.1569 43.5734 16.6667 43.0296 16.2465 42.3498ZM22.8291 34.6684C22.8291 34.5324 22.7591 34.3965 22.7591 34.2605C22.619 33.9206 22.479 33.6487 22.1288 33.4448C21.9888 33.3768 21.8487 33.2408 21.6387 33.2408C21.0784 33.1049 20.4482 33.1049 19.958 33.3768C19.6078 33.5807 19.2577 33.9206 19.1176 34.2605C19.0476 34.3965 18.9776 34.5324 18.9076 34.7364H22.8291V34.6684ZM32.7731 33.5807V39.6307C32.7731 39.9026 32.7731 40.1745 32.7731 40.4465C32.7731 40.8543 32.8431 41.3302 33.1232 41.6701C33.3333 41.942 33.6134 42.1459 33.8936 42.2139C34.3137 42.2819 34.7339 42.2819 35.084 42.2139C35.5042 42.1459 35.8543 42.0099 36.2745 41.942V45.0009L35.9244 45.0689C35.5042 45.1369 35.014 45.2049 34.5938 45.2729C34.1737 45.3408 33.7535 45.3408 33.3333 45.3408C32.9132 45.3408 32.423 45.2729 32.0028 45.2049C31.3725 45.0689 30.7423 44.933 30.2521 44.5251C29.8319 44.2532 29.4818 43.8453 29.2717 43.3695C29.1317 43.0976 29.0616 42.8257 28.9916 42.4858C28.8515 41.874 28.8515 41.2622 28.8515 40.6504V33.5807H26.2605V30.5897H28.8515V26.4431L32.7731 24.2678V30.6577H37.6751V26.5111L41.5966 24.3358V30.7257H45.5182V33.7167H41.5966V39.7667C41.5966 40.0386 41.5966 40.3105 41.5966 40.5824C41.5966 40.9903 41.6667 41.4661 41.9468 41.806C42.1569 42.0779 42.437 42.2818 42.7171 42.3498C43.1373 42.4178 43.5574 42.4178 43.9076 42.3498C44.3277 42.2818 44.6779 42.1459 45.098 42.0779V45.1369L44.7479 45.2049C44.3277 45.2729 43.8375 45.3408 43.4174 45.4088C43.0672 45.3408 42.577 45.3408 42.1569 45.3408C41.7367 45.3408 41.2465 45.2729 40.8263 45.2049C40.1961 45.0689 39.5658 44.933 39.0756 44.5251C38.6555 44.2532 38.3753 43.8453 38.0952 43.3695C37.9552 43.0976 37.8852 42.8257 37.8151 42.4858C37.6751 41.874 37.6751 41.2622 37.6751 40.6504V33.5807H32.7731ZM46.6387 45.0009H46.2185V30.6577H50.1401V45.0689H46.6387V45.0009ZM52.0308 42.2139C51.6106 41.5341 51.3305 40.7863 51.1204 39.9026C50.9804 39.2229 50.8403 38.4751 50.8403 37.7274C50.8403 36.9796 50.8403 36.2319 50.9804 35.5521C51.1204 34.8723 51.2605 34.2605 51.5406 33.7167C51.8908 32.901 52.451 32.2212 53.0812 31.6774C53.7815 31.1335 54.6919 30.6577 55.7423 30.4538C56.7227 30.2498 57.9132 30.2498 58.8936 30.4538C59.6639 30.5897 60.3641 30.8616 60.8543 31.2695C61.5546 31.7453 61.9748 32.3571 62.3249 33.1049C62.605 33.7847 62.7451 34.6004 62.7451 35.3481C62.7451 35.5521 62.7451 35.824 62.7451 36.0279H58.6134V35.6201C58.6134 35.4161 58.6134 35.2122 58.6134 35.0083C58.5434 34.6004 58.4734 34.1925 58.2633 33.8526C58.0532 33.5807 57.7731 33.3768 57.423 33.3088C57.1429 33.2408 56.7927 33.2408 56.5126 33.3088C56.2325 33.3768 55.9524 33.5807 55.7423 33.7847C55.4622 34.0566 55.3221 34.3965 55.1821 34.7364C55.112 35.0083 55.042 35.2802 54.972 35.6201C54.8319 36.3678 54.902 37.1156 54.972 37.8633C55.042 38.2712 55.112 38.679 55.2521 39.0869C55.6022 40.0386 56.1625 40.9223 57.0728 41.5341C57.563 41.874 58.1232 42.0779 58.7535 42.2139C59.3838 42.3498 60.084 42.3498 60.7143 42.2819C61.2045 42.2139 61.6246 42.1459 61.9748 42.0099L62.535 41.806V44.5931L62.2549 44.6611C61.4146 44.933 60.5742 45.1369 59.5938 45.2049C59.1036 45.2729 58.6835 45.2729 58.1933 45.2729C57.7031 45.2729 57.2829 45.2729 56.7927 45.2049C56.0224 45.0689 55.3221 44.865 54.6218 44.5931C53.5714 44.1172 52.6611 43.3015 52.0308 42.2139Z" fill="#C8C8C8"/>
<path fill-rule="evenodd" clip-rule="evenodd" d="M46.2188 25.1516L67.2972 13.3235V9.85669L46.2188 21.6847V25.1516Z" fill="#C8C8C8"/>
<path fill-rule="evenodd" clip-rule="evenodd" d="M46.2188 20.1892L67.2972 8.36124V4.9624L46.2188 16.7224V20.1892Z" fill="#C8C8C8"/>
</svg>
