<svg width="99" height="57" viewBox="0 0 99 57" fill="none" xmlns="http://www.w3.org/2000/svg">
<path d="M30.1683 32.5834H26.0091C26.0091 32.5834 25.0719 34.4599 22.8458 34.4599C21.4399 34.5167 19.9168 33.7775 19.2139 32.5834H15.0547C15.0547 32.5834 16.8707 37.8717 22.8458 37.8717C28.0594 37.8717 30.1683 32.5834 30.1683 32.5834Z" fill="#C8C8C8"/>
<path d="M50.086 31.6166C50.1446 31.6166 51.5505 27.7499 51.5505 27.7499L53.015 31.6166H56.9984L53.5422 22.9733H49.5588L46.1025 31.6166H50.086Z" fill="#C8C8C8"/>
<path d="M29.2313 41.8522H27.4153L26.3608 46.6858H27.0052L27.4153 44.6955H28.9969C30.1685 44.6955 30.7543 43.9562 30.7543 43.1032C30.8129 42.3071 30.2857 41.8522 29.2313 41.8522ZM28.8798 44.1837H27.5324L27.9425 42.4208H28.8798C29.4656 42.4208 30.11 42.4208 30.11 43.1601C30.1685 43.8425 29.6413 44.1837 28.8798 44.1837Z" fill="#C8C8C8"/>
<path d="M40.1855 31.6166L46.1021 22.9733H41.1814L38.1938 28.2616H37.7252L34.269 22.9733H29.8169L35.7335 31.6166H40.1855Z" fill="#C8C8C8"/>
<path d="M40.1855 32.5834H35.7334V37.8717H40.1855V32.5834Z" fill="#C8C8C8"/>
<path d="M9.02143 32.5833C9.31432 32.8108 9.49006 33.152 9.49006 33.4932C9.49006 33.9481 9.02143 34.9148 7.02971 34.9148H4.56936V31.5598H12.4776C12.0676 30.9911 11.5404 30.5362 11.0131 30.1382C10.3102 29.7401 10.5445 29.6832 10.5445 29.6832C10.5445 29.6832 12.009 28.2616 12.009 26.7832C12.009 25.3047 10.8374 22.9164 7.02971 22.9164H0.585938V37.8717H8.49421C10.4273 37.8148 12.1847 36.6776 12.9463 34.9716C13.1806 34.1755 13.1806 33.3794 12.9463 32.5833H9.02143ZM4.39362 25.589C4.39362 25.589 5.79954 25.6459 7.08829 25.589C8.37705 25.5321 8.43563 28.944 6.97113 28.944C5.50664 28.944 4.39362 28.944 4.39362 28.944V25.589Z" fill="#C8C8C8"/>
<path d="M18.921 31.6166C18.921 31.6166 18.0423 26.3283 22.4944 26.3283C27.3565 26.3283 26.3607 31.6166 26.3607 31.6166H30.3441C30.3441 31.6166 31.5157 22.9733 22.4358 22.9733C13.356 22.9733 14.9376 31.6166 14.9376 31.6166H18.921Z" fill="#C8C8C8"/>
<path d="M89.6858 30.1382C89.6858 26.7263 86.2296 22.9164 83.242 22.9164H76.3296V31.5598H79.7858V25.8165H82.2461C84.0035 25.8165 86.2296 28.3185 86.2296 30.1382C86.2296 31.9578 84.355 34.9716 82.2461 34.9716H79.7858V32.5833H76.3296V37.8717H83.7692C86.6982 37.8717 89.6858 33.6069 89.6858 30.1382Z" fill="#C8C8C8"/>
<path d="M56.5297 18.1398L53.5422 12.8514L50.0859 22.0066H55.0652L56.5297 18.1398Z" fill="#C8C8C8"/>
<path d="M90.3886 24.5085C91.2673 24.5085 92.0874 24.0536 92.4974 23.3144C92.7318 22.9732 92.8489 22.5183 92.7903 22.1203C92.7903 21.7222 92.6732 21.2673 92.4974 20.9262C92.2631 20.585 91.9702 20.3007 91.6187 20.0732C91.2673 19.8458 90.7986 19.732 90.3886 19.7889C89.9785 19.7889 89.5099 19.9026 89.1584 20.1301C88.8069 20.3575 88.4554 20.6418 88.2797 20.983C87.8697 21.7222 87.8697 22.6321 88.2797 23.3713C88.7483 24.1105 89.5099 24.5654 90.3886 24.5085ZM88.6898 21.1536C88.8655 20.8693 89.0998 20.6418 89.3927 20.4713C90.0371 20.1301 90.7986 20.1301 91.443 20.4713C91.7359 20.6418 91.9702 20.8693 92.146 21.1536C92.4974 21.7791 92.4974 22.5183 92.146 23.1438C91.9702 23.4281 91.7359 23.6556 91.443 23.8262C91.1501 23.9968 90.7986 24.1105 90.4472 24.1105C90.0957 24.1105 89.7442 24.0536 89.4513 23.883C89.1584 23.7124 88.9241 23.485 88.7483 23.2007C88.3383 22.5183 88.3383 21.7791 88.6898 21.1536Z" fill="#C8C8C8"/>
<path d="M90.096 22.689H90.5647L91.0919 23.4282H91.7948L91.209 22.5752C91.3848 22.5184 91.5019 22.4046 91.5605 22.2341C91.6777 22.0635 91.6777 21.8929 91.6777 21.7223C91.6777 21.438 91.5605 21.2106 91.3848 21.04C91.1505 20.8694 90.8576 20.7557 90.5061 20.8125H89.3345V23.4282H90.0374V22.689H90.096ZM90.0374 21.3811H90.4475C90.5646 21.3811 90.7404 21.438 90.799 21.4949C90.9161 21.5517 90.9161 21.6654 90.9161 21.7792C90.9161 21.8929 90.8576 22.0066 90.799 22.0635C90.6818 22.1203 90.5646 22.1772 90.4475 22.1772H90.0374V21.3811Z" fill="#C8C8C8"/>
<path d="M65.9023 32.5834L69.4171 37.8717H74.3378L70.3544 32.5834H65.9023Z" fill="#C8C8C8"/>
<path d="M65.4337 32.5834H61.9775V37.8717H65.4337V32.5834Z" fill="#C8C8C8"/>
<path d="M60.4544 22.0066L61.9775 18.1398L58.9899 12.8514L55.5337 22.0066H60.4544Z" fill="#C8C8C8"/>
<path d="M43.6421 37.8717H48.0942L49.09 34.9717H54.0693L55.0652 37.8717H59.5172L57.5255 32.5834H45.6338L43.6421 37.8717Z" fill="#C8C8C8"/>
<path d="M65.9022 22.0066L67.4252 18.1398L64.4377 12.8514L60.9814 22.0066H65.9022Z" fill="#C8C8C8"/>
<path d="M60.6304 43.2169L60.4547 43.9561C60.2789 44.7522 59.986 45.4915 59.5174 46.2307H59.1073L58.7559 47.8229H59.3417L59.576 46.7425H62.2707L62.0363 47.8229H62.6221L62.9736 46.2307H62.505L63.1494 43.2169H60.6304ZM61.8606 46.1738H60.1032C60.5133 45.4915 60.8062 44.7522 60.9819 43.9561L61.0405 43.615H62.3878L61.8606 46.1738Z" fill="#C8C8C8"/>
<path d="M81.3086 43.1033C81.25 43.1033 81.1329 43.1033 81.0743 43.1033C79.9613 43.1033 79.1412 44.0699 79.1412 45.3209C79.0826 46.0602 79.6098 46.7425 80.3713 46.7994C80.4299 46.7994 80.5471 46.7994 80.6057 46.7994C81.3672 46.8563 82.0701 46.3445 82.2459 45.6053H81.6601C81.5429 46.0602 81.1329 46.3445 80.6642 46.3445C80.1956 46.3445 79.727 46.0033 79.727 45.5484C79.727 45.4915 79.727 45.4347 79.727 45.3778C79.727 45.321 79.727 45.2072 79.727 45.1504H82.4216C82.4802 44.9798 82.4802 44.7523 82.4802 44.5817C82.5388 43.8425 82.0116 43.1601 81.3086 43.1033ZM81.8944 44.468C81.8944 44.5249 81.8944 44.5249 81.8944 44.5817H79.8441C79.9027 44.0131 80.4299 43.5582 81.0743 43.5013C81.5429 43.4445 81.953 43.7856 81.953 44.2405C81.8944 44.3543 81.8944 44.4111 81.8944 44.468Z" fill="#C8C8C8"/>
<path d="M64.4963 45.0934C64.262 45.9463 64.0277 46.2306 63.7348 46.2306C63.6176 46.2306 63.559 46.2306 63.4419 46.1738L63.3247 46.6287C63.4419 46.6855 63.6176 46.6855 63.7348 46.6855C64.3206 46.6855 64.7306 46.2875 65.0235 45.2071L65.4336 43.6718H66.6638L66.0194 46.6855H66.6052L67.3667 43.2169H64.9649L64.4963 45.0934Z" fill="#C8C8C8"/>
<path d="M76.0366 46.0032L75.568 43.2169H74.7479L73.9863 46.6855H74.5721L75.1579 43.8993H75.2165L75.6266 46.6855H76.2124L77.8526 43.8993L77.2668 46.6855H77.8526L78.6141 43.2169H77.7354L76.0366 46.0032Z" fill="#C8C8C8"/>
<path d="M68.2459 44.1268C68.2459 44.1836 68.2459 44.2405 68.2459 44.2974C68.2459 44.7523 68.5388 45.0935 69.0074 45.1503L67.4258 46.6288H68.1873L69.5932 45.1503H70.3548L70.0033 46.6288H70.5891L71.3506 43.1601H69.4761C68.8903 43.1032 68.3045 43.5581 68.2459 44.1268ZM70.7062 43.6719L70.4719 44.7523H69.6518C69.3003 44.7523 68.8317 44.7523 68.8317 44.2974C68.8317 43.8993 69.1246 43.6719 69.6518 43.6719H70.7062Z" fill="#C8C8C8"/>
<path d="M85.6436 41.9659C85.0578 41.9659 84.4721 42.2502 84.062 42.7051C83.5348 43.5012 83.3005 44.411 83.2419 45.3208C83.1247 46.0601 83.6519 46.6856 84.4135 46.7424C84.5306 46.7424 84.5892 46.7424 84.7064 46.7424C85.9365 46.7424 86.6981 45.662 86.6981 44.5247C86.7567 43.8424 86.2294 43.2169 85.5265 43.16C85.4093 43.16 85.3507 43.16 85.2336 43.16C84.7064 43.16 84.2377 43.4443 83.9448 43.8992C84.2377 43.0463 84.7064 42.5914 85.4679 42.5345C86.1123 42.4777 86.8738 42.5345 87.0496 41.7953H86.4638C86.3466 41.909 86.1123 41.909 85.6436 41.9659ZM85.175 43.6149C85.6436 43.5581 86.0537 43.8992 86.0537 44.3542C86.0537 44.411 86.0537 44.4679 86.0537 44.5247C86.0537 45.4914 85.4679 46.2307 84.7649 46.2307C84.2963 46.2307 83.8277 45.8895 83.8277 45.3777C83.8277 45.3208 83.8277 45.264 83.8277 45.2071C83.8277 44.5247 84.2963 43.6149 85.175 43.6149Z" fill="#C8C8C8"/>
<path d="M91.9704 45.0934C91.7361 45.9463 91.5018 46.2306 91.2089 46.2306C91.0917 46.2306 91.0331 46.2306 90.916 46.1738L90.7988 46.6287C90.916 46.6855 91.0917 46.6855 91.2089 46.6855C91.7947 46.6855 92.2047 46.2875 92.4976 45.2071L92.9077 43.6718H94.1379L93.4935 46.6855H94.0793L94.8409 43.2169H92.4391L91.9704 45.0934Z" fill="#C8C8C8"/>
<path d="M89.5684 43.1033C89.5098 43.1033 89.3926 43.1033 89.3341 43.1033C88.221 43.1033 87.4009 44.0699 87.4009 45.3209C87.3423 46.0602 87.8696 46.7425 88.6311 46.7994C88.6897 46.7994 88.8068 46.7994 88.8654 46.7994C89.627 46.8563 90.3299 46.3445 90.5057 45.6053H89.9199C89.8027 46.0602 89.3926 46.3445 88.924 46.3445C88.3382 46.2876 87.9281 45.7759 87.9867 45.2641C87.9867 45.2072 87.9867 45.2072 87.9867 45.1504H90.6814C90.74 44.9798 90.74 44.7523 90.74 44.5817C90.7985 43.8425 90.2713 43.1601 89.5684 43.1033ZM90.1542 44.468C90.1542 44.5249 90.1542 44.5817 90.1542 44.5817H88.1039C88.1625 44.0131 88.6897 43.5582 89.3341 43.5013C89.8027 43.4445 90.2128 43.7856 90.2128 44.2405C90.1542 44.3543 90.1542 44.4111 90.1542 44.468Z" fill="#C8C8C8"/>
<path d="M55.4751 43.1033C55.4165 43.1033 55.2994 43.1033 55.2408 43.1033C54.1278 43.1033 53.3077 44.0699 53.3077 45.3209C53.2491 46.0602 53.7763 46.7425 54.5378 46.7994C54.5964 46.7994 54.7136 46.7994 54.7722 46.7994C55.5337 46.8563 56.2366 46.3445 56.4124 45.6053H55.8266C55.7094 46.0602 55.2994 46.3445 54.8307 46.3445C54.3621 46.3445 53.8935 46.0033 53.8935 45.4915C53.8935 45.4347 53.8935 45.3778 53.8935 45.3209C53.8935 45.2641 53.8935 45.1504 53.8935 45.0935H56.5881C56.6467 44.9229 56.6467 44.6955 56.6467 44.5249C56.7639 43.8425 56.2366 43.1601 55.4751 43.1033ZM56.1195 44.468C56.1195 44.5249 56.1195 44.5249 56.1195 44.5817H54.0692C54.1278 44.0131 54.655 43.5582 55.2994 43.5013C55.768 43.4445 56.1781 43.7856 56.1781 44.2405C56.1195 44.3543 56.1195 44.4111 56.1195 44.468Z" fill="#C8C8C8"/>
<path d="M43.232 43.1033C43.1734 43.1033 43.0562 43.1033 42.9976 43.1033C41.8846 43.1033 41.0645 44.0699 41.0645 45.3209C41.0059 46.0602 41.5331 46.7425 42.2947 46.7994C42.3533 46.7994 42.4704 46.7994 42.529 46.7994C43.2905 46.8563 43.9935 46.3445 44.1693 45.6053H43.5834C43.4663 46.0602 43.0562 46.3445 42.5876 46.3445C42.0018 46.2876 41.5917 45.8327 41.6503 45.2641C41.6503 45.2072 41.6503 45.1504 41.6503 45.1504H44.345C44.4036 44.9798 44.4036 44.7523 44.4036 44.5817C44.4622 43.8425 43.9349 43.1601 43.232 43.1033ZM43.8178 44.468C43.8178 44.5249 43.8178 44.5817 43.8178 44.5817H41.7675C41.826 44.0131 42.3533 43.5582 42.9976 43.5013C43.4663 43.4445 43.8764 43.7856 43.8764 44.2405C43.8764 44.3543 43.8178 44.4111 43.8178 44.468Z" fill="#C8C8C8"/>
<path d="M39.3071 46.1738H37.784L38.487 43.2169H37.9012L37.1982 46.1738H35.7337L36.3781 43.2169H35.7923L35.0308 46.6855H39.7758L40.5373 43.2169H39.9515L39.3071 46.1738Z" fill="#C8C8C8"/>
<path d="M98.18 43.1602L96.0125 46.0034L96.5983 43.1602H96.0125L95.251 46.6858H96.0711L98.2971 43.8425L97.6527 46.6858H98.2385L99.0001 43.1602H98.18Z" fill="#C8C8C8"/>
<path d="M33.3321 43.1033C33.2735 43.1033 33.1563 43.1033 33.0977 43.1033C31.9847 43.1033 31.1646 44.0699 31.1646 45.3209C31.106 46.0602 31.6332 46.7425 32.3948 46.7994C32.4534 46.7994 32.5705 46.7994 32.6291 46.7994C33.3906 46.8563 34.0936 46.3445 34.2693 45.6053H33.6835C33.5664 46.0602 33.1563 46.3445 32.6877 46.3445C32.219 46.3445 31.7504 46.0033 31.7504 45.4915C31.7504 45.4347 31.7504 45.3778 31.7504 45.3209C31.7504 45.2641 31.7504 45.1504 31.7504 45.0935H34.4451C34.5037 44.9229 34.5037 44.6955 34.5037 44.5249C34.6208 43.8425 34.0936 43.1601 33.3321 43.1033ZM33.9764 44.468C33.9764 44.5249 33.9764 44.5249 33.9764 44.5817H31.9261C31.9847 44.0131 32.5119 43.5582 33.1563 43.5013C33.625 43.4445 34.035 43.7856 34.035 44.2405C33.9764 44.3543 33.9764 44.4111 33.9764 44.468Z" fill="#C8C8C8"/>
<path d="M49.7928 46.0032L50.4372 43.2169H49.8514L49.0898 46.6855H49.8514L52.0774 43.8424L51.433 46.6855H52.0188L52.7804 43.2169H52.0188L49.7928 46.0032Z" fill="#C8C8C8"/>
<path d="M47.7425 44.5816H45.9851L46.278 43.2169H45.6922L44.9307 46.6855H45.5165L45.8679 45.0365H47.6253L47.3324 46.6855H47.9182L48.6797 43.2169H48.094L47.7425 44.5816Z" fill="#C8C8C8"/>
<path d="M68.89 22.9733H61.9775V31.6166H69.8858C71.2917 31.6166 72.8734 29.0009 72.8734 27.295C72.8734 25.5322 70.8817 22.9733 68.89 22.9733ZM68.3042 28.944C66.6639 28.944 65.4337 28.944 65.4337 28.944V25.589C65.4337 25.589 66.4296 25.589 68.3042 25.589C70.1787 25.6459 69.9444 28.944 68.3042 28.944Z" fill="#C8C8C8"/>
</svg>
