<svg width="111" height="33" viewBox="0 0 111 33" fill="none" xmlns="http://www.w3.org/2000/svg">
<path d="M15.448 8.89264C17.9138 8.89264 19.9445 6.92139 19.9445 4.52774C19.9445 2.13409 17.9138 0.162842 15.448 0.162842C12.9821 0.162842 10.9514 2.13409 10.9514 4.52774C10.9514 6.92139 12.9821 8.89264 15.448 8.89264Z" fill="#ACACAC"/>
<path d="M26.2541 19.9457C26.8343 19.9457 27.2695 19.5233 27.2695 18.96C27.2695 18.3968 26.8343 17.9744 26.2541 17.9744C25.6739 17.9744 25.2388 18.3968 25.2388 18.96C25.3113 19.4529 25.7464 19.9457 26.2541 19.9457Z" fill="#ACACAC"/>
<path d="M25.5288 23.0432C26.109 23.0432 26.6167 22.5504 26.6167 21.9872C26.6167 21.4241 26.109 20.9313 25.5288 20.9313C24.9486 20.9313 24.4409 21.4241 24.4409 21.9872C24.4409 22.5504 24.8761 23.0432 25.5288 23.0432Z" fill="#ACACAC"/>
<path d="M23.8609 25.7185C24.5136 25.7185 25.0213 25.2257 25.0213 24.592C25.0213 23.9584 24.5136 23.4656 23.8609 23.4656C23.2081 23.4656 22.7004 23.9584 22.7004 24.592C22.7004 25.2257 23.2081 25.7185 23.8609 25.7185Z" fill="#ACACAC"/>
<path d="M20.1619 27.5488C20.8871 27.5488 21.4673 26.9856 21.4673 26.2816C21.4673 25.5776 20.8871 25.0144 20.1619 25.0144C19.4366 25.0144 18.8564 25.5776 18.8564 26.2816C18.8564 26.9856 19.4366 27.5488 20.1619 27.5488Z" fill="#ACACAC"/>
<path d="M15.5206 28.8162C16.3909 28.8162 17.0436 28.1825 17.0436 27.3376C17.0436 26.4928 16.3909 25.8591 15.5206 25.8591C14.6503 25.8591 13.9976 26.4928 13.9976 27.3376C13.9976 28.1121 14.6503 28.8162 15.5206 28.8162Z" fill="#ACACAC"/>
<path d="M9.57336 27.9713C10.5162 27.9713 11.314 27.1969 11.314 26.2817C11.314 25.3665 10.5162 24.592 9.57336 24.592C8.63054 24.592 7.83276 25.3665 7.83276 26.2817C7.83276 27.1969 8.63054 27.9713 9.57336 27.9713Z" fill="#ACACAC"/>
<path d="M4.20648 24.3104C5.29437 24.3104 6.16467 23.4656 6.16467 22.4096C6.16467 21.3536 5.29437 20.5088 4.20648 20.5088C3.1186 20.5088 2.24829 21.3536 2.24829 22.4096C2.24829 23.4656 3.1186 24.3104 4.20648 24.3104Z" fill="#ACACAC"/>
<path d="M2.39333 17.2703C3.69879 17.2703 4.85919 16.2142 4.85919 14.8766C4.85919 13.6094 3.77131 12.5533 2.39333 12.5533C1.08788 12.5533 0 13.6094 0 14.8766C0 16.2142 1.08788 17.2703 2.39333 17.2703Z" fill="#ACACAC"/>
<path d="M6.30978 10.6526C8.12291 10.6526 9.64594 9.17416 9.64594 7.41412C9.64594 5.65409 8.12291 4.17566 6.30978 4.17566C4.49666 4.17566 2.97363 5.65409 2.97363 7.41412C2.97363 9.17416 4.49666 10.6526 6.30978 10.6526Z" fill="#ACACAC"/>
<path d="M39.6714 7.13259C39.6714 6.14697 40.4692 5.37256 41.4845 5.37256C42.4999 5.37256 43.2977 6.14697 43.2977 7.13259V21.7761H58.3104C59.3258 21.7761 60.1235 22.5505 60.1235 23.5361C60.1235 24.5217 59.3258 25.2961 58.3104 25.2961H41.4845C40.4692 25.2961 39.6714 24.5217 39.6714 23.5361V7.13259Z" fill="#ACACAC"/>
<path d="M83.4767 21.7761C84.492 21.7761 85.2898 22.5505 85.2898 23.5361C85.2898 24.5217 84.492 25.2961 83.4767 25.2961H66.5058C65.4904 25.2961 64.6926 24.5217 64.6926 23.5361V7.13259C64.6926 6.14697 65.4904 5.37256 66.5058 5.37256H83.4041C84.4195 5.37256 85.2173 6.14697 85.2173 7.13259C85.2173 8.11821 84.4195 8.89263 83.4041 8.89263H68.3189V21.7761H83.4767Z" fill="#ACACAC"/>
<path d="M90.5843 8.25893C89.859 7.55491 89.859 6.42848 90.5843 5.79486C91.3095 5.09084 92.4699 5.09084 93.1226 5.79486L101.608 13.9615C102.333 14.6655 102.333 15.7919 101.608 16.4256L92.9051 24.8034C92.1798 25.5074 91.0194 25.5074 90.3667 24.8034C89.6414 24.0994 89.6414 22.973 90.3667 22.3393L97.7643 15.2287L90.5843 8.25893Z" fill="#ACACAC"/>
<path d="M105.597 12.9053C104.871 13.6094 103.711 13.6094 102.986 12.9053C102.261 12.2013 102.261 11.0749 102.986 10.4413L107.845 5.72453C108.57 5.02053 109.731 5.02053 110.456 5.72453C111.181 6.42854 111.181 7.55494 110.456 8.25894L105.597 12.9053Z" fill="#ACACAC"/>
<path d="M102.913 19.9456C102.188 19.2415 102.188 18.1151 102.913 17.4815C103.639 16.7775 104.799 16.7775 105.452 17.4815L110.383 22.2688C111.109 22.9728 111.109 24.0992 110.383 24.7329C109.658 25.4369 108.498 25.4369 107.773 24.7329L102.913 19.9456Z" fill="#ACACAC"/>
<path d="M40.0339 31.9843V28.5344H40.5416V31.5618H42.1372V31.9843H40.0339ZM46.8513 31.9843V28.5344H47.359V31.9843H46.8513ZM52.8709 28.9569V29.9425H54.1039V30.365H52.8709V32.0547H52.3632V28.6048H54.539V29.0273H52.8709V28.9569ZM59.7608 28.9569V29.9425H60.9212V30.365H59.7608V31.6323H61.3564V32.0547H59.2531V28.6048H61.3564V29.0273H59.7608V28.9569Z" fill="#ACACAC"/>
<path d="M72.3802 28.9569V29.9425H73.5406V30.365H72.3802V31.6323H73.9758V32.0547H71.8726V28.6048H73.9758V29.0273H72.3802V28.9569ZM80.6481 31.9843L79.7778 30.5762L78.9075 31.9843H78.3998L79.4877 30.2241L78.4724 28.5344H78.98L79.7778 29.8017L80.5756 28.5344H81.0833L79.9954 30.2241L81.0833 31.9843H80.6481ZM86.3051 30.6466V31.9843H85.7974V28.5344C86.16 28.5344 86.3776 28.5344 86.4501 28.5344C87.4655 28.5344 87.9732 28.8864 87.9732 29.5201C87.9732 30.2946 87.538 30.717 86.5952 30.717C86.5952 30.717 86.4501 30.717 86.3051 30.6466ZM86.3051 28.9569V30.2241C86.5227 30.2241 86.5952 30.2241 86.6677 30.2241C87.2479 30.2241 87.6105 30.0129 87.6105 29.5201C87.6105 29.0977 87.2479 28.8865 86.6677 28.8865C86.5227 28.9569 86.3776 28.9569 86.3051 28.9569ZM93.34 28.9569V29.9425H94.5004V30.365H93.34V31.6323H94.9356V32.0547H92.8324V28.6048H94.9356V29.0273H93.34V28.9569ZM101.68 31.9843L100.738 30.5058C100.593 30.5058 100.448 30.5058 100.23 30.5058V31.9843H99.7223V28.5344C99.7223 28.5344 99.8673 28.5344 100.085 28.5344C100.302 28.5344 100.52 28.5344 100.593 28.5344C101.463 28.5344 101.898 28.8864 101.898 29.5201C101.898 29.7313 101.825 29.9425 101.68 30.0833C101.535 30.2946 101.39 30.365 101.173 30.4354L102.188 32.0547H101.68V31.9843ZM100.23 28.9569V30.0833C100.375 30.0833 100.448 30.0833 100.593 30.0833C100.883 30.0833 101.1 30.0129 101.245 29.9425C101.39 29.8721 101.463 29.6609 101.463 29.4497C101.463 29.2385 101.39 29.0977 101.245 29.0273C101.1 28.9569 100.883 28.8865 100.593 28.8865C100.448 28.9569 100.375 28.9569 100.23 28.9569ZM107.918 28.9569V31.9843H107.41V28.9569H106.25V28.5344H109.078V28.9569H107.918Z" fill="#ACACAC"/>
<path d="M71.5098 17.1296C70.6395 17.1296 69.9868 16.3552 69.9868 15.3696C69.9868 14.3839 70.6395 13.6095 71.5098 13.6095H80.8656C81.7359 13.6095 82.3886 14.3839 82.3886 15.3696C82.3886 16.3552 81.7359 17.1296 80.8656 17.1296H71.5098Z" fill="#ACACAC"/>
</svg>
