<svg width="132" height="84" viewBox="0 0 132 84" fill="none" xmlns="http://www.w3.org/2000/svg">
<g clip-path="url(#clip0)">
<path d="M4.60539 70.8419H129.168C130.724 70.8419 131.996 69.516 131.996 67.8946V13.4903C131.996 11.8689 130.724 10.543 129.168 10.543H4.60539C3.04967 10.543 1.77747 11.8689 1.77747 13.4903V67.8946C1.77747 69.516 3.04967 70.8419 4.60539 70.8419Z" fill="#303864"/>
<path d="M0.0612916 21.5364C0.0612916 21.5364 -2.11963 -0.587482 19.257 0.0110755C19.257 0.0110755 21.1108 20.9454 0.0612916 21.5364Z" fill="#0CD725"/>
<path d="M7.22614 80.6348C6.76815 81.0667 6.12114 81.2978 5.28512 81.3281V83.0897H4.86348V81.3281C4.02746 81.2978 3.38046 81.0667 2.92246 80.6348C2.46447 80.2029 2.23547 79.6044 2.23547 78.8391C2.23547 78.089 2.46447 77.4981 2.9261 77.07C3.38772 76.6419 4.03473 76.4108 4.86348 76.3805V74.3689H5.28512V76.3805C6.12114 76.4108 6.76815 76.6419 7.22614 77.07C7.68413 77.4981 7.91313 78.089 7.91313 78.8391C7.91676 79.6044 7.68777 80.2029 7.22614 80.6348ZM3.23143 80.3242C3.60945 80.6841 4.15468 80.8811 4.86348 80.9114V76.801C4.15105 76.8313 3.60945 77.0245 3.23143 77.3806C2.8534 77.7367 2.66439 78.2216 2.66439 78.8429C2.66439 79.468 2.8534 79.9643 3.23143 80.3242ZM6.92081 80.328C7.30247 79.9718 7.49148 79.4756 7.49148 78.8429C7.49148 78.2216 7.30247 77.7329 6.92081 77.3806C6.53915 77.0283 5.99392 76.8351 5.28512 76.801V80.9114C5.99392 80.8811 6.54279 80.6841 6.92081 80.328Z" fill="#C1B8AF"/>
<path d="M12.0568 76.8427C12.3549 77.1495 12.5039 77.6003 12.5039 78.1989V81.2826H12.0895V80.4151C11.9478 80.6992 11.737 80.9227 11.4607 81.0818C11.1845 81.2409 10.8573 81.3205 10.472 81.3205C9.97406 81.3205 9.57786 81.1917 9.2907 80.9379C8.99991 80.6841 8.85815 80.3469 8.85815 79.9302C8.85815 79.5248 8.99264 79.199 9.25799 78.9452C9.52333 78.6952 9.94861 78.5664 10.5338 78.5664H12.0714V78.1762C12.0714 77.7216 11.9587 77.3768 11.7333 77.142C11.508 76.9071 11.1772 76.7896 10.741 76.7896C10.443 76.7896 10.1594 76.8465 9.88682 76.9563C9.61421 77.0662 9.38521 77.2177 9.1962 77.4034L8.98174 77.0662C9.20347 76.8502 9.47608 76.6798 9.78868 76.5585C10.1049 76.4373 10.432 76.3767 10.7774 76.3767C11.3335 76.3805 11.7588 76.5358 12.0568 76.8427ZM11.4862 80.6575C11.7479 80.4719 11.9442 80.1991 12.075 79.8468V78.9338H10.5447C10.1049 78.9338 9.78504 79.021 9.58513 79.1952C9.38884 79.3695 9.28707 79.6082 9.28707 79.9112C9.28707 80.2295 9.39611 80.4795 9.61421 80.6613C9.8323 80.8432 10.1376 80.9379 10.5338 80.9379C10.9082 80.9379 11.2244 80.847 11.4862 80.6575Z" fill="#C1B8AF"/>
<path d="M17.4438 76.7972C17.7673 76.998 18.0217 77.2821 18.2035 77.642C18.3852 78.0019 18.4797 78.4186 18.4797 78.8921C18.4797 79.3657 18.3852 79.7862 18.1998 80.1536C18.0145 80.5249 17.7527 80.8128 17.4183 81.0212C17.0839 81.2295 16.7023 81.3318 16.2697 81.3318C15.7754 81.3318 15.3574 81.203 15.0121 80.9416C14.6668 80.6802 14.4014 80.3128 14.2197 79.8316C14.0379 79.3543 13.9507 78.7936 13.9507 78.1534C13.9507 77.426 14.0306 76.8237 14.1942 76.3464C14.3578 75.869 14.605 75.4902 14.9321 75.2137C15.2629 74.9371 15.6845 74.7325 16.2007 74.5924L18.1853 74.0696L18.2544 74.509L16.3642 74.9939C15.899 75.1114 15.5246 75.2856 15.2338 75.5129C14.943 75.7402 14.7285 76.0509 14.5831 76.4411C14.4378 76.8313 14.3651 77.3313 14.3614 77.9413C14.5105 77.4942 14.7613 77.1419 15.1102 76.8843C15.4592 76.6267 15.8663 76.4979 16.3315 76.4979C16.7495 76.4941 17.1203 76.5926 17.4438 76.7972ZM17.1893 80.6689C17.4583 80.4946 17.6691 80.2559 17.8182 79.9453C17.9672 79.6384 18.0399 79.2899 18.0399 78.8959C18.0399 78.5019 17.9636 78.1572 17.8182 77.8579C17.6691 77.5586 17.462 77.3238 17.1966 77.1609C16.9313 76.998 16.6259 76.9146 16.2806 76.9146C15.9353 76.9146 15.63 76.998 15.361 77.1609C15.092 77.3238 14.8812 77.5586 14.7322 77.8579C14.5831 78.161 14.5105 78.5057 14.5105 78.8959C14.5105 79.2861 14.5831 79.6384 14.7322 79.9453C14.8812 80.2521 15.0884 80.4946 15.361 80.6689C15.6336 80.8431 15.9353 80.9303 16.2806 80.9303C16.6187 80.9303 16.9204 80.8431 17.1893 80.6689Z" fill="#C1B8AF"/>
<path d="M23.2849 76.6987C23.623 76.9109 23.8883 77.2026 24.0809 77.5738C24.2736 77.9451 24.3681 78.3732 24.3681 78.8505C24.3681 79.3278 24.2736 79.7559 24.0809 80.1309C23.8883 80.506 23.623 80.7977 23.2849 81.0061C22.9469 81.2144 22.5688 81.3167 22.1508 81.3167C21.7546 81.3167 21.3984 81.2144 21.0749 81.0136C20.755 80.8129 20.5042 80.5325 20.3261 80.1688V83.0859H19.8972V76.4146H20.3116V77.5625C20.4897 77.1912 20.7405 76.8995 21.064 76.6911C21.3875 76.4828 21.751 76.3805 22.1508 76.3805C22.5688 76.3805 22.9469 76.4866 23.2849 76.6987ZM23.0523 80.6386C23.3285 80.4643 23.543 80.2219 23.7029 79.9112C23.8592 79.6006 23.9392 79.2483 23.9392 78.8505C23.9392 78.4527 23.8592 78.1004 23.7029 77.7898C23.5466 77.4791 23.3285 77.2367 23.0523 77.0624C22.776 76.8881 22.4671 76.801 22.1254 76.801C21.7837 76.801 21.4747 76.8881 21.2021 77.0624C20.9295 77.2367 20.7151 77.4791 20.5588 77.7898C20.4025 78.1004 20.3225 78.4527 20.3225 78.8505C20.3225 79.2483 20.4025 79.6006 20.5588 79.9112C20.7151 80.2219 20.9295 80.4643 21.2021 80.6386C21.4747 80.8128 21.7837 80.9 22.1254 80.9C22.4671 80.9 22.776 80.8128 23.0523 80.6386Z" fill="#C1B8AF"/>
<path d="M25.7676 76.4183H26.1965V80.5666L29.3952 76.4183H29.7732V81.2826H29.3443V77.1343L26.1456 81.2826H25.7676V76.4183Z" fill="#C1B8AF"/>
<path d="M33.1536 79.0285H32.0632V81.2826H31.6343V76.4183H32.0632V78.6269H33.1536L34.8475 76.4183H35.32L33.499 78.7747L35.4582 81.2826H34.942L33.1536 79.0285Z" fill="#C1B8AF"/>
<path d="M39.1948 76.8427C39.4928 77.1495 39.6419 77.6003 39.6419 78.1989V81.2826H39.2275V80.4151C39.0857 80.6992 38.8749 80.9227 38.5987 81.0818C38.3224 81.2409 37.9953 81.3205 37.61 81.3205C37.112 81.3205 36.7158 81.1917 36.4286 80.9379C36.1379 80.6841 35.9961 80.3469 35.9961 79.9302C35.9961 79.5248 36.1306 79.199 36.3959 78.9452C36.6613 78.6952 37.0866 78.5664 37.6718 78.5664H39.2093V78.1762C39.2093 77.7216 39.0966 77.3768 38.8713 77.142C38.6459 76.9071 38.3151 76.7896 37.8789 76.7896C37.5809 76.7896 37.2974 76.8465 37.0248 76.9563C36.7521 77.0662 36.5231 77.2177 36.3341 77.4034L36.1197 77.0662C36.3414 76.8502 36.614 76.6798 36.9266 76.5585C37.2428 76.4373 37.57 76.3767 37.9153 76.3767C38.4714 76.3805 38.8967 76.5358 39.1948 76.8427ZM38.6241 80.6575C38.8858 80.4719 39.0821 80.1991 39.2129 79.8468V78.9338H37.6827C37.2428 78.9338 36.923 79.021 36.7231 79.1952C36.5268 79.3695 36.425 79.6082 36.425 79.9112C36.425 80.2295 36.5341 80.4795 36.7521 80.6613C36.9702 80.8432 37.2756 80.9379 37.6718 80.9379C38.0462 80.9379 38.3624 80.847 38.6241 80.6575Z" fill="#C1B8AF"/>
<path d="M48.4782 76.4183V81.2826H48.082V77.1646L46.1301 80.6575H45.9338L43.9928 77.1722V81.2826H43.5966V76.4183H44.0182L46.0465 80.1006L48.082 76.4183H48.4782Z" fill="#C1B8AF"/>
<path d="M54.1595 78.9641H50.2993C50.3102 79.343 50.4011 79.6801 50.5646 79.9756C50.7318 80.2711 50.9572 80.4984 51.2407 80.6613C51.5242 80.8242 51.8441 80.9038 52.2003 80.9038C52.4911 80.9038 52.7637 80.8469 53.0109 80.7295C53.2617 80.6159 53.4689 80.4454 53.6325 80.2219L53.8833 80.5287C53.687 80.7825 53.4435 80.9795 53.149 81.1159C52.8546 81.2523 52.5347 81.3205 52.1894 81.3205C51.7423 81.3205 51.3425 81.2144 50.9936 81.0023C50.6446 80.7901 50.372 80.4984 50.1721 80.1272C49.9758 79.7559 49.874 79.3278 49.874 78.8505C49.874 78.3769 49.9685 77.9527 50.1539 77.5776C50.3393 77.2026 50.5974 76.9071 50.9245 76.6987C51.2516 76.4866 51.6188 76.3805 52.0259 76.3805C52.433 76.3805 52.7964 76.4866 53.1236 76.6911C53.4471 76.8995 53.7015 77.1912 53.8869 77.5625C54.0723 77.9337 54.1668 78.358 54.1668 78.8278L54.1595 78.9641ZM51.1789 77.0207C50.9281 77.1723 50.7246 77.3882 50.5719 77.6647C50.4193 77.9413 50.332 78.2519 50.3102 78.6005H53.7488C53.7306 78.2519 53.647 77.9413 53.4907 77.6685C53.3344 77.3958 53.1309 77.1798 52.88 77.0245C52.6292 76.8692 52.3457 76.7896 52.0295 76.7896C51.7133 76.7934 51.4297 76.8692 51.1789 77.0207Z" fill="#C1B8AF"/>
<path d="M58.7648 76.7972C59.0883 76.998 59.3428 77.2821 59.5245 77.642C59.7063 78.0019 59.8008 78.4186 59.8008 78.8921C59.8008 79.3657 59.7063 79.7862 59.5209 80.1536C59.3355 80.5249 59.0738 80.8128 58.7394 81.0212C58.405 81.2295 58.0233 81.3318 57.5908 81.3318C57.0964 81.3318 56.6784 81.203 56.3331 80.9416C55.9878 80.6802 55.7225 80.3128 55.5407 79.8316C55.359 79.3543 55.2717 78.7936 55.2717 78.1534C55.2717 77.426 55.3517 76.8237 55.5153 76.3464C55.6788 75.869 55.926 75.4902 56.2531 75.2137C56.5839 74.9371 57.0056 74.7325 57.5217 74.5924L59.5064 74.0696L59.5754 74.509L57.6853 74.9939C57.22 75.1114 56.8456 75.2856 56.5548 75.5129C56.264 75.7402 56.0496 76.0509 55.9042 76.4411C55.7588 76.8313 55.6861 77.3313 55.6825 77.9413C55.8315 77.4942 56.0823 77.1419 56.4313 76.8843C56.7802 76.6267 57.1873 76.4979 57.6526 76.4979C58.0669 76.4941 58.4413 76.5926 58.7648 76.7972ZM58.5104 80.6689C58.7794 80.4946 58.9902 80.2559 59.1392 79.9453C59.2883 79.6384 59.361 79.2899 59.361 78.8959C59.361 78.5019 59.2846 78.1572 59.1392 77.8579C58.9902 77.5586 58.783 77.3238 58.5177 77.1609C58.2523 76.998 57.947 76.9146 57.6017 76.9146C57.2564 76.9146 56.951 76.998 56.6821 77.1609C56.4131 77.3238 56.2023 77.5586 56.0532 77.8579C55.9042 78.161 55.8315 78.5057 55.8315 78.8959C55.8315 79.2861 55.9042 79.6384 56.0532 79.9453C56.2023 80.2521 56.4094 80.4946 56.6821 80.6689C56.9547 80.8431 57.2564 80.9303 57.6017 80.9303C57.9361 80.9303 58.2414 80.8431 58.5104 80.6689Z" fill="#C1B8AF"/>
<path d="M65.035 78.9641H61.1748C61.1857 79.343 61.2766 79.6801 61.4401 79.9756C61.6073 80.2711 61.8327 80.4984 62.1162 80.6613C62.3997 80.8242 62.7196 80.9038 63.0758 80.9038C63.3666 80.9038 63.6392 80.8469 63.8864 80.7295C64.1372 80.6159 64.3444 80.4454 64.5079 80.2219L64.7588 80.5287C64.5625 80.7825 64.3189 80.9795 64.0245 81.1159C63.7301 81.2523 63.4102 81.3205 63.0649 81.3205C62.6178 81.3205 62.218 81.2144 61.869 81.0023C61.5201 80.7901 61.2475 80.4984 61.0476 80.1272C60.8513 79.7559 60.7495 79.3278 60.7495 78.8505C60.7495 78.3769 60.844 77.9527 61.0294 77.5776C61.2148 77.2026 61.4728 76.9071 61.8 76.6987C62.1271 76.4866 62.4942 76.3805 62.9013 76.3805C63.3084 76.3805 63.6719 76.4866 63.9991 76.6911C64.3226 76.8995 64.577 77.1912 64.7624 77.5625C64.9478 77.9337 65.0423 78.358 65.0423 78.8278L65.035 78.9641ZM62.0508 77.0207C61.8 77.1723 61.5964 77.3882 61.4438 77.6647C61.2911 77.9413 61.2039 78.2519 61.1821 78.6005H64.6206C64.6025 78.2519 64.5189 77.9413 64.3626 77.6685C64.2063 77.3958 64.0027 77.1798 63.7519 77.0245C63.5011 76.8692 63.2176 76.7896 62.9013 76.7896C62.5887 76.7934 62.3016 76.8692 62.0508 77.0207Z" fill="#C1B8AF"/>
<path d="M69.8402 76.4183V81.2826H69.4113V76.8388H67.0741L67.0123 78.1345C66.9796 78.805 66.9251 79.3695 66.856 79.8203C66.7869 80.2749 66.6706 80.6423 66.5034 80.9189C66.3362 81.1992 66.1072 81.3394 65.8164 81.3394C65.7292 81.3394 65.6056 81.3167 65.4457 81.275L65.4893 80.8734C65.5802 80.8999 65.6492 80.9113 65.6965 80.9113C65.9364 80.9113 66.1218 80.7825 66.2453 80.5287C66.3726 80.2749 66.4562 79.9567 66.5034 79.5778C66.5507 79.199 66.587 78.7065 66.6161 78.0966L66.6924 76.4183H69.8402Z" fill="#C1B8AF"/>
<path d="M71.6976 76.4183H72.1265V80.5666L75.3252 76.4183H75.7033V81.2826H75.2743V77.1343L72.0757 81.2826H71.6976V76.4183Z" fill="#C1B8AF"/>
<path d="M87.6002 79.9794C87.6002 80.4037 87.4584 80.7257 87.1749 80.9492C86.8914 81.1727 86.4661 81.2864 85.899 81.2864H83.958V76.4221H85.8481C86.3461 76.4221 86.7387 76.5282 87.0222 76.7441C87.3057 76.9601 87.4475 77.2631 87.4475 77.6609C87.4475 77.945 87.3748 78.1837 87.2294 78.3731C87.084 78.5625 86.8768 78.6989 86.6151 78.7785C87.2694 78.8997 87.6002 79.3013 87.6002 79.9794ZM84.376 78.6383H85.8191C86.2044 78.6383 86.4988 78.5587 86.706 78.3996C86.9132 78.2405 87.0149 78.0132 87.0149 77.7139C87.0149 77.4109 86.9132 77.1798 86.7096 77.0283C86.5061 76.8767 86.208 76.801 85.8191 76.801H84.376V78.6383ZM87.1676 79.9604C87.1676 79.6308 87.0695 79.3884 86.8768 79.2331C86.6805 79.0777 86.3752 79.002 85.9572 79.002H84.376V80.9037H85.8881C86.7423 80.8999 87.1676 80.5855 87.1676 79.9604Z" fill="#C1B8AF"/>
<path d="M89.7739 81.0023C89.4286 80.7901 89.1596 80.4984 88.9669 80.1234C88.7743 79.7483 88.6761 79.324 88.6761 78.8505C88.6761 78.3732 88.7743 77.9451 88.9669 77.57C89.1596 77.195 89.4322 76.9033 89.7739 76.6949C90.1192 76.4866 90.5081 76.3843 90.9443 76.3843C91.3041 76.3843 91.6349 76.46 91.9293 76.6116C92.2238 76.7631 92.4637 76.9866 92.6454 77.2783L92.3255 77.5284C92.1656 77.2859 91.9657 77.1041 91.7294 76.9828C91.4932 76.8616 91.2278 76.801 90.9443 76.801C90.5953 76.801 90.2791 76.8881 90.0029 77.0586C89.7266 77.2291 89.5085 77.4715 89.3486 77.7822C89.1887 78.0928 89.1123 78.4489 89.1123 78.8543C89.1123 79.2596 89.1923 79.6157 89.3486 79.9264C89.5049 80.237 89.723 80.4795 90.0029 80.6499C90.2827 80.8204 90.5953 80.9075 90.9443 80.9075C91.2314 80.9075 91.4932 80.8469 91.7294 80.7257C91.9657 80.6045 92.1656 80.4226 92.3255 80.1802L92.6454 80.434C92.4637 80.7257 92.2238 80.9492 91.9293 81.1008C91.6349 81.2523 91.3078 81.328 90.9443 81.328C90.5081 81.3205 90.1192 81.2144 89.7739 81.0023Z" fill="#C1B8AF"/>
<path d="M97.6652 78.9641H93.8049C93.8158 79.343 93.9067 79.6801 94.0703 79.9756C94.2375 80.2711 94.4629 80.4984 94.7464 80.6613C95.0299 80.8242 95.3498 80.9038 95.706 80.9038C95.9968 80.9038 96.2694 80.847 96.5202 80.7295C96.771 80.6159 96.9782 80.4454 97.1417 80.2219L97.3925 80.5287C97.1963 80.7826 96.9527 80.9795 96.6583 81.1159C96.3639 81.2523 96.044 81.3205 95.6987 81.3205C95.2516 81.3205 94.8518 81.2144 94.5028 81.0023C94.1539 80.7901 93.8813 80.4984 93.6814 80.1272C93.4851 79.7559 93.3833 79.3278 93.3833 78.8505C93.3833 78.377 93.4778 77.9527 93.6632 77.5776C93.8486 77.2026 94.1066 76.9071 94.4338 76.6987C94.7609 76.4904 95.128 76.3805 95.5351 76.3805C95.9422 76.3805 96.3057 76.4866 96.6292 76.6911C96.9527 76.8995 97.2072 77.1912 97.3962 77.5625C97.5816 77.9337 97.6761 78.358 97.6761 78.8278L97.6652 78.9641ZM94.6809 77.0207C94.4301 77.1723 94.2266 77.3882 94.0739 77.6647C93.9213 77.9413 93.834 78.2519 93.8122 78.6005H97.2508C97.2326 78.2519 97.149 77.9413 96.9927 77.6685C96.8364 77.3958 96.6329 77.1798 96.3821 77.0245C96.1313 76.8692 95.8477 76.7896 95.5315 76.7896C95.2153 76.7896 94.9354 76.8692 94.6809 77.0207ZM94.5755 75.2781C94.5137 75.2137 94.4847 75.1341 94.4847 75.0394C94.4847 74.9409 94.5137 74.8576 94.5755 74.797C94.6373 74.7364 94.71 74.7023 94.7936 74.7023C94.8772 74.7023 94.9536 74.7364 95.0117 74.8008C95.0735 74.8652 95.1026 74.9447 95.1026 75.0394C95.1026 75.1341 95.0699 75.2137 95.0081 75.2781C94.9463 75.3425 94.8736 75.3766 94.7936 75.3766C94.7064 75.3766 94.6337 75.3425 94.5755 75.2781ZM96.0585 75.2781C95.9968 75.2137 95.9641 75.1341 95.9641 75.0394C95.9641 74.9447 95.9931 74.8652 96.0549 74.8008C96.1167 74.7364 96.1894 74.7023 96.273 74.7023C96.3602 74.7023 96.4329 74.7326 96.4911 74.797C96.5529 74.8576 96.582 74.9409 96.582 75.0394C96.582 75.1341 96.5529 75.2137 96.4911 75.2781C96.4293 75.3425 96.3566 75.3766 96.273 75.3766C96.193 75.3766 96.1203 75.3425 96.0585 75.2781Z" fill="#C1B8AF"/>
<path d="M105.204 76.4183V81.2826H104.775V76.8388H101.714V81.2826H101.285V76.4183H105.204Z" fill="#C1B8AF"/>
<path d="M110.456 76.6987C110.794 76.9109 111.06 77.2026 111.252 77.5738C111.445 77.9451 111.539 78.3732 111.539 78.8505C111.539 79.3278 111.445 79.7559 111.252 80.1309C111.06 80.506 110.794 80.7977 110.456 81.006C110.118 81.2144 109.74 81.3167 109.322 81.3167C108.926 81.3167 108.57 81.2144 108.246 81.0136C107.926 80.8128 107.676 80.5325 107.497 80.1688V83.0858H107.068V76.4146H107.479V77.5625C107.657 77.1912 107.908 76.8995 108.232 76.6911C108.555 76.4828 108.919 76.3805 109.318 76.3805C109.74 76.3805 110.118 76.4866 110.456 76.6987ZM110.224 80.6386C110.5 80.4643 110.714 80.2219 110.874 79.9112C111.03 79.6006 111.11 79.2483 111.11 78.8505C111.11 78.4527 111.03 78.1004 110.874 77.7898C110.718 77.4791 110.5 77.2367 110.224 77.0624C109.947 76.8881 109.638 76.801 109.297 76.801C108.951 76.801 108.646 76.8881 108.373 77.0624C108.101 77.2367 107.886 77.4791 107.73 77.7898C107.574 78.1004 107.494 78.4527 107.494 78.8505C107.494 79.2483 107.574 79.6006 107.73 79.9112C107.886 80.2219 108.101 80.4643 108.373 80.6386C108.646 80.8128 108.955 80.9 109.297 80.9C109.638 80.9 109.947 80.8128 110.224 80.6386Z" fill="#C1B8AF"/>
<path d="M113.578 81.0023C113.237 80.7901 112.971 80.4984 112.775 80.1234C112.579 79.7483 112.484 79.324 112.484 78.8505C112.484 78.3769 112.583 77.9527 112.775 77.5776C112.971 77.2026 113.237 76.9071 113.578 76.6987C113.92 76.4866 114.302 76.3805 114.727 76.3805C115.152 76.3805 115.534 76.4866 115.876 76.6987C116.217 76.9109 116.483 77.2026 116.679 77.5776C116.875 77.9527 116.97 78.3769 116.97 78.8505C116.97 79.324 116.872 79.7483 116.679 80.1234C116.486 80.4984 116.217 80.7939 115.876 81.0023C115.534 81.2144 115.152 81.3205 114.727 81.3205C114.302 81.3205 113.92 81.2144 113.578 81.0023ZM115.65 80.6386C115.923 80.4643 116.137 80.2219 116.294 79.9112C116.45 79.6006 116.53 79.2483 116.53 78.8505C116.53 78.4527 116.45 78.1004 116.294 77.7898C116.137 77.4791 115.919 77.2367 115.65 77.0624C115.378 76.8881 115.069 76.801 114.727 76.801C114.382 76.801 114.076 76.8881 113.804 77.0624C113.531 77.2367 113.317 77.4791 113.16 77.7898C113.004 78.1004 112.924 78.4527 112.924 78.8505C112.924 79.2483 113.004 79.6006 113.16 79.9112C113.317 80.2219 113.531 80.4643 113.804 80.6386C114.076 80.8128 114.385 80.9 114.727 80.9C115.072 80.9 115.378 80.8128 115.65 80.6386Z" fill="#C1B8AF"/>
<path d="M119.016 81.0023C118.671 80.7901 118.402 80.4984 118.209 80.1234C118.017 79.7483 117.919 79.324 117.919 78.8505C117.919 78.3732 118.017 77.9451 118.209 77.57C118.402 77.195 118.675 76.9033 119.016 76.6949C119.362 76.4866 119.751 76.3843 120.187 76.3843C120.547 76.3843 120.877 76.46 121.172 76.6116C121.466 76.7631 121.706 76.9866 121.888 77.2783L121.568 77.5284C121.408 77.2859 121.208 77.1041 120.972 76.9828C120.736 76.8616 120.47 76.801 120.187 76.801C119.838 76.801 119.522 76.8881 119.245 77.0586C118.969 77.2291 118.751 77.4715 118.591 77.7822C118.431 78.0928 118.355 78.4489 118.355 78.8543C118.355 79.2596 118.435 79.6157 118.591 79.9264C118.747 80.237 118.965 80.4795 119.245 80.6499C119.525 80.8204 119.838 80.9075 120.187 80.9075C120.474 80.9075 120.736 80.8469 120.972 80.7257C121.208 80.6045 121.408 80.4226 121.568 80.1802L121.888 80.434C121.706 80.7257 121.466 80.9492 121.172 81.1008C120.877 81.2523 120.55 81.328 120.187 81.328C119.751 81.3205 119.362 81.2144 119.016 81.0023Z" fill="#C1B8AF"/>
<path d="M126.057 76.8388H124.305V81.2826H123.876V76.8388H122.124V76.4183H126.061V76.8388H126.057Z" fill="#C1B8AF"/>
<path d="M127.409 81.0023C127.067 80.7901 126.802 80.4984 126.606 80.1234C126.41 79.7483 126.315 79.324 126.315 78.8505C126.315 78.3769 126.413 77.9527 126.606 77.5776C126.802 77.2026 127.067 76.9071 127.409 76.6987C127.751 76.4866 128.132 76.3805 128.558 76.3805C128.983 76.3805 129.365 76.4866 129.706 76.6987C130.048 76.9109 130.313 77.2026 130.51 77.5776C130.706 77.9527 130.8 78.3769 130.8 78.8505C130.8 79.324 130.702 79.7483 130.51 80.1234C130.317 80.4984 130.048 80.7939 129.706 81.0023C129.365 81.2144 128.983 81.3205 128.558 81.3205C128.132 81.3205 127.751 81.2144 127.409 81.0023ZM129.481 80.6386C129.754 80.4643 129.968 80.2219 130.124 79.9112C130.281 79.6006 130.361 79.2483 130.361 78.8505C130.361 78.4527 130.281 78.1004 130.124 77.7898C129.968 77.4791 129.75 77.2367 129.481 77.0624C129.208 76.8881 128.899 76.801 128.558 76.801C128.212 76.801 127.907 76.8881 127.635 77.0624C127.362 77.2367 127.147 77.4791 126.991 77.7898C126.835 78.1004 126.755 78.4527 126.755 78.8505C126.755 79.2483 126.835 79.6006 126.991 79.9112C127.147 80.2219 127.362 80.4643 127.635 80.6386C127.907 80.8128 128.216 80.9 128.558 80.9C128.903 80.9 129.208 80.8128 129.481 80.6386Z" fill="#C1B8AF"/>
<path d="M80.1051 79.5361C80.4364 79.5361 80.7049 79.2444 80.7049 78.8845C80.7049 78.5246 80.4364 78.2329 80.1051 78.2329C79.7739 78.2329 79.5054 78.5246 79.5054 78.8845C79.5054 79.2444 79.7739 79.5361 80.1051 79.5361Z" fill="#C1B8AF"/>
<path d="M48.1219 61.8522C48.1219 57.5373 65.4421 27.1511 70.8253 21.317C71.7049 20.3661 70.9998 18.8432 70.2401 18.0174C69.0696 16.6839 66.2017 15.8618 64.6824 15.8618C64.2135 15.8618 63.043 17.5741 61.4074 20.3017C56.7838 25.3781 46.8352 37.1144 43.2076 41.4255C44.3199 37.3644 47.5949 29.4354 47.5949 27.026C47.5949 22.2035 43.6147 19.3509 39.1693 19.3509C33.9024 19.3509 21.4966 28.3595 21.4966 34.3868C21.4966 36.2885 22.9578 38.0653 24.7752 38.0653C25.8875 38.0653 24.0155 37.2394 24.0155 35.4627C24.0155 32.4169 36.0687 25.2493 39.1693 25.3781C36.7121 32.6101 18.4033 58.4314 9.86138 58.4314C6.46642 58.4314 4.71078 57.8593 4.00925 57.8593C3.71846 57.8593 3.59851 57.9237 3.59851 58.1775C3.59851 61.159 8.10574 64.9662 14.3068 64.9662C23.2013 64.9662 32.1467 48.2142 38.5841 35.0194C37.4718 40.7929 35.8325 45.551 36.7121 46.5019C37.9407 47.8354 40.2234 48.5324 41.3356 48.5324C42.2116 48.5324 48.7653 39.967 54.5011 32.2918C48.5908 43.5205 42.0953 57.3479 42.0953 62.2993C42.0953 65.1557 44.3199 66.3604 46.0755 66.3604C48.0056 66.3604 49.6449 64.5836 49.6449 63.8866C49.6413 63.1213 48.1219 63.879 48.1219 61.8522Z" fill="white"/>
<path d="M76.9718 29.9431C77.7897 29.8143 77.9096 29.246 77.7897 28.2308C77.7897 26.454 81.5336 21.3777 82.1188 20.5556C83.8163 18.7789 78.4331 16.6233 76.9682 16.6233C75.2707 16.6233 72.988 21.317 72.988 24.3629C72.9917 27.3405 74.9218 29.9431 76.9718 29.9431Z" fill="white"/>
<path d="M105.793 29.5415C106.607 29.371 106.698 28.7952 106.534 27.7875C106.454 26.0145 109.962 20.7449 110.511 19.8888C112.125 18.0249 106.65 16.1573 105.189 16.2368C103.495 16.3277 101.427 21.1389 101.565 24.181C101.7 27.1548 103.746 29.6513 105.793 29.5415Z" fill="white"/>
<path d="M104.03 33.254C102.925 32.1706 99.3444 30.7083 97.7087 30.7992C97.2507 30.8219 96.4584 31.8485 95.4987 33.4851C94.9826 34.0458 94.5101 34.6216 94.4119 34.7012C92.8889 36.7961 80.0179 55.7605 76.2703 59.189C76.2703 59.189 76.2703 59.189 76.2122 59.189C79.9561 50.6235 92.4782 26.901 99.6752 17.4491C100.435 16.4338 100.26 15.7368 99.3226 14.9753C98.3848 14.1494 95.3424 12.5659 93.5868 12.7553C91.6967 12.9713 84.6341 26.2342 78.8729 38.3418C74.5329 44.5736 66.1727 56.4917 63.2757 59.1928C63.6864 56.0825 73.1662 38.641 75.0381 36.6711C75.9759 35.5914 76.0922 34.705 75.0381 33.5609C73.984 32.4206 70.4727 30.7689 68.837 30.7689C66.6707 30.7689 56.0205 52.6541 56.0205 56.8402C56.0205 60.1398 58.7103 63.5001 62.6323 63.5001C65.6747 63.5001 66.1436 63.0569 67.5467 61.534C68.1137 60.9392 69.5567 58.6548 71.3669 55.6166C71.0179 56.6356 70.8253 57.3668 70.8253 57.7267C70.8253 60.2005 72.4065 63.5001 75.3325 63.5001C78.5494 63.5001 79.5453 62.6742 80.5994 61.534C81.5627 60.4884 85.2448 54.2793 88.876 47.8732C87.2185 52.1881 86.0227 56.0257 86.0917 57.5259C86.2408 60.8217 91.0206 64.5305 91.9257 63.216C93.5505 60.8521 99.7261 41.0163 104.172 36.3605C105.055 35.2315 105.131 34.3413 104.03 33.254Z" fill="white"/>
<path d="M129.412 33.1403C128.765 32.0341 127.958 30.8635 127.409 30.1438C126.428 28.8671 123.927 26.435 121.986 25.9046C119.358 25.2682 115.647 25.6849 112.419 27.0828C111.343 27.5488 110.303 28.2079 109.395 28.886C108.581 29.6551 107.934 30.3938 107.388 31.2651C106.847 32.1364 106.472 32.7956 106.109 34.0154C105.978 34.7163 105.818 35.2807 105.76 36.0763C105.615 38.0387 106.403 40.4632 107.123 42.0202C109.769 47.733 110.849 47.9565 112.564 51.0516C115.225 55.8552 112.655 62.6894 106.047 60.1739C104.466 59.5716 101.213 56.9955 101.558 53.2526C101.903 49.5211 103.441 48.1535 103.441 48.1535C102.703 47.9565 101.045 47.5436 100.268 47.8391C98.8828 48.3657 98.5702 49.0438 98.0758 49.8658C97.5887 50.6728 95.8804 54.5217 96.9926 58.829C97.6905 61.5377 100.704 66.5724 105.818 68.1938C111.169 69.891 117.337 66.6633 120.049 60.8407C123.131 54.2111 117.82 49.2256 115.251 43.5848C114.564 42.077 114.167 40.27 114.644 38.6865C115.072 37.2545 115.85 36.743 116.886 35.902C117.486 35.5005 118.148 35.1936 118.845 35.0004C120.245 34.6102 121.801 34.6632 123.356 35.2845C122.502 36.171 121.906 37.406 121.608 38.5463C121.241 39.9518 121.179 40.9519 121.931 42.2248C122.422 41.433 122.866 41.0239 123.487 40.5768C124.16 40.0957 124.756 39.6601 125.574 39.1714C126.359 38.6713 127.162 38.1447 127.973 37.5803C128.783 37.0158 129.608 36.4135 130.448 35.7581C130.542 35.2921 130.059 34.2503 129.412 33.1403Z" fill="white"/>
</g>
<defs>
<clipPath id="clip0">
<rect width="132" height="83.0896" fill="white"/>
</clipPath>
</defs>
</svg>
