<svg width="419" height="187" viewBox="0 0 419 187" fill="none" xmlns="http://www.w3.org/2000/svg">
<path d="M126.346 168.186C126.346 156.397 175.496 73.375 190.772 57.4351C193.269 54.8371 191.268 50.6761 189.112 48.4197C185.79 44.7763 177.652 42.5302 173.34 42.5302C172.01 42.5302 168.688 47.2087 164.047 54.6611C150.926 68.5309 122.695 100.597 112.4 112.376C115.557 101.28 124.85 79.6164 124.85 73.0334C124.85 59.8571 113.556 52.0631 100.941 52.0631C85.9946 52.0631 50.7901 76.6768 50.7901 93.1446C50.7901 98.3406 54.9367 103.195 60.0941 103.195C63.2504 103.195 57.9383 100.939 57.9383 96.0842C57.9383 87.7623 92.1422 68.179 100.941 68.5309C93.9679 88.2902 42.0122 158.84 17.7724 158.84C8.13838 158.84 3.15633 157.277 1.16557 157.277C0.340389 157.277 0 157.453 0 158.146C0 166.292 12.7904 176.695 30.3874 176.695C55.6278 176.695 81.0125 130.924 99.28 94.8732C96.1237 110.647 91.4717 123.648 93.9679 126.246C97.4543 129.889 103.932 131.794 107.088 131.794C109.574 131.794 128.172 108.391 144.449 87.4207C127.677 118.1 109.244 155.88 109.244 169.408C109.244 177.212 115.557 180.504 120.539 180.504C126.016 180.504 130.668 175.649 130.668 173.745C130.658 171.654 126.346 173.724 126.346 168.186Z" fill="#F2F2F2"/>
<path d="M208.215 81.003C210.536 80.6511 210.876 79.0985 210.536 76.3246C210.536 71.4701 221.16 57.6003 222.821 55.3543C227.638 50.4998 212.362 44.6104 208.205 44.6104C203.388 44.6104 196.91 57.4347 196.91 65.7566C196.92 73.8922 202.398 81.003 208.215 81.003Z" fill="#F2F2F2"/>
<path d="M290.001 79.9063C292.312 79.4405 292.57 77.8672 292.106 75.1139C291.879 70.2699 301.832 55.8722 303.39 53.533C307.97 48.4405 292.436 43.3376 288.289 43.555C283.482 43.8034 277.613 56.9486 278.005 65.2602C278.387 73.3854 284.194 80.2064 290.001 79.9063Z" fill="#F2F2F2"/>
<path d="M284.998 90.0496C281.862 87.0894 271.702 83.094 267.06 83.3425C265.761 83.4046 263.512 86.2096 260.789 90.681C259.324 92.2129 257.983 93.7862 257.705 94.0036C253.383 99.7274 216.858 151.542 206.224 160.91C206.224 160.91 206.224 160.91 206.059 160.91C216.683 137.507 252.217 72.6917 272.641 46.867C274.797 44.093 274.301 42.1885 271.64 40.108C268.979 37.8516 260.345 33.5251 255.363 34.0426C250 34.6326 229.958 70.87 213.609 103.95C201.293 120.977 177.569 153.54 169.348 160.92C170.514 152.422 197.415 104.768 202.727 99.3859C205.388 96.4359 205.718 94.0139 202.727 90.888C199.736 87.7725 189.772 83.2596 185.13 83.2596C178.982 83.2596 148.76 143.055 148.76 154.492C148.76 163.508 156.393 172.689 167.523 172.689C176.156 172.689 177.487 171.478 181.468 167.317C183.077 165.692 187.172 159.45 192.309 151.149C191.319 153.933 190.772 155.931 190.772 156.914C190.772 163.673 195.259 172.689 203.562 172.689C212.691 172.689 215.517 170.432 218.509 167.317C221.242 164.46 231.691 147.495 241.995 129.993C237.292 141.782 233.898 152.267 234.094 156.366C234.517 165.371 248.081 175.504 250.65 171.912C255.26 165.454 272.785 111.258 285.4 98.5371C287.907 95.4526 288.123 93.0202 284.998 90.0496Z" fill="#F2F2F2"/>
<path d="M357.027 89.7393C355.191 86.7169 352.901 83.5185 351.343 81.5519C348.558 78.0638 341.462 71.4187 335.954 69.9696C328.496 68.2307 317.965 69.3693 308.805 73.1886C305.752 74.4618 302.802 76.2628 300.223 78.1155C297.913 80.2167 296.077 82.2351 294.529 84.6157C292.992 86.9963 291.93 88.7973 290.898 92.1302C290.527 94.0451 290.073 95.5873 289.908 97.761C289.496 103.123 291.734 109.747 293.776 114.001C301.285 129.61 304.349 130.22 309.218 138.677C316.768 151.801 309.475 170.474 290.723 163.601C286.236 161.955 277.004 154.917 277.984 144.691C278.964 134.495 283.327 130.759 283.327 130.759C281.233 130.22 276.53 129.092 274.323 129.9C270.393 131.338 269.506 133.191 268.103 135.437C266.721 137.642 261.873 148.158 265.029 159.927C267.009 167.327 275.56 181.083 290.073 185.513C305.257 190.15 322.761 181.332 330.456 165.423C339.203 147.309 324.133 133.688 316.84 118.276C314.891 114.156 313.766 109.219 315.118 104.893C316.335 100.98 318.542 99.5827 321.482 97.2848C323.184 96.1877 325.061 95.3493 327.042 94.8214C331.013 93.7553 335.427 93.9002 339.842 95.5977C337.418 98.0197 335.727 101.394 334.881 104.51C333.839 108.35 333.664 111.082 335.799 114.56C337.191 112.397 338.45 111.279 340.214 110.057C342.122 108.743 343.813 107.553 346.134 106.217C348.362 104.851 350.642 103.412 352.942 101.87C355.242 100.328 357.584 98.6822 359.966 96.8915C360.235 95.6184 358.863 92.772 357.027 89.7393Z" fill="#F2F2F2"/>
<path d="M336.269 87C336.269 87 326.89 -2.36969 418.821 0.0481912C418.821 0.0481912 426.793 84.6127 336.269 87Z" fill="#F2F2F2"/>
</svg>
