<svg width="375" height="388" viewBox="0 0 375 388" fill="none" xmlns="http://www.w3.org/2000/svg">
<path d="M234.894 92.3192C234.276 92.3535 233.71 92.74 233.462 93.3498L230.357 101.011C230.16 101.492 230.203 102.041 230.468 102.488C230.734 102.935 231.197 103.235 231.712 103.287C233.067 103.441 234.345 104.197 235.228 105.382C236.035 106.473 236.378 107.77 236.163 108.947C235.949 110.123 235.168 111.223 234.028 111.979C232.801 112.786 231.309 113.086 230.022 112.786C227.398 112.176 225.365 109.273 225.58 106.439C225.648 105.528 224.971 104.73 224.053 104.652C223.127 104.584 222.346 105.262 222.269 106.181C221.926 110.63 225.065 115.045 229.268 116.015C231.446 116.522 233.848 116.058 235.846 114.744C237.741 113.499 239.045 111.601 239.422 109.539C239.8 107.461 239.242 105.219 237.887 103.398C236.909 102.076 235.597 101.08 234.148 100.504L236.541 94.5952C236.884 93.7449 236.472 92.7744 235.623 92.4308C235.383 92.3449 235.134 92.302 234.894 92.3192Z" fill="#E0E0E0"/>
<path d="M238.316 89.9573C238.616 89.2702 238.299 88.4714 237.613 88.1708C236.926 87.8702 236.129 88.188 235.829 88.8751C235.528 89.5622 235.846 90.3609 236.532 90.6615C237.218 90.9621 238.016 90.6444 238.316 89.9573Z" fill="#E0E0E0"/>
<path d="M186.891 32.0871C187.14 31.5289 187.063 30.8504 186.634 30.3522L181.299 24.1083C180.965 23.7132 180.467 23.4985 179.953 23.5329C179.438 23.5672 178.966 23.8335 178.683 24.2629C177.929 25.388 176.676 26.1696 175.236 26.41C173.906 26.6248 172.611 26.3327 171.668 25.6113C170.733 24.8899 170.115 23.696 169.978 22.339C169.824 20.8876 170.244 19.4275 171.093 18.4312C172.826 16.3957 176.316 15.9233 178.709 17.4092C179.481 17.8901 180.493 17.6496 180.973 16.8767C181.462 16.0865 181.213 15.0816 180.442 14.6093C176.685 12.2732 171.359 13.029 168.58 16.3012C167.139 17.9932 166.453 20.3293 166.702 22.6912C166.933 24.9414 168.014 26.9597 169.652 28.2308C171.308 29.5191 173.537 30.043 175.767 29.6823C177.38 29.4161 178.855 28.7204 180.03 27.6983L184.138 32.508C184.73 33.2037 185.768 33.281 186.462 32.6883C186.651 32.508 186.797 32.3018 186.891 32.0871Z" fill="#E0E0E0"/>
<path d="M187.406 36.184C187.877 36.7594 188.726 36.8539 189.301 36.3815C189.876 35.9091 189.97 35.0589 189.498 34.4834C189.027 33.908 188.178 33.8135 187.603 34.2859C187.028 34.7583 186.943 35.6085 187.406 36.184Z" fill="#E0E0E0"/>
<path d="M373.131 36.6221H296.945V147.209H373.131V36.6221Z" fill="#868686"/>
<path d="M369.315 36.6221H293.129V147.209H369.315V36.6221Z" fill="#B1B1B1"/>
<path d="M359.845 48.603H302.588V135.237H359.845V48.603Z" fill="white"/>
<path d="M359.846 135.237C359.846 135.237 359.837 135.091 359.837 134.816C359.837 134.532 359.828 134.12 359.828 133.588C359.82 132.497 359.811 130.908 359.803 128.838C359.794 124.69 359.777 118.635 359.751 110.991C359.725 95.7117 359.7 74.0856 359.657 48.6117L359.846 48.8006C342.349 48.8092 322.966 48.8092 302.597 48.8178H302.589L302.794 48.6117C302.777 81.2914 302.76 111.429 302.752 135.245L302.589 135.082C320.025 135.116 334.322 135.151 344.262 135.168C349.236 135.185 353.122 135.202 355.78 135.211C357.101 135.219 358.113 135.228 358.799 135.228C359.485 135.228 359.846 135.237 359.846 135.237C359.846 135.237 359.511 135.245 358.833 135.254C358.147 135.254 357.144 135.262 355.84 135.271C353.199 135.28 349.322 135.297 344.365 135.314C334.39 135.331 320.068 135.365 302.589 135.4H302.426V135.237C302.417 111.42 302.4 81.2828 302.383 48.6031V48.397H302.589H302.597C322.966 48.4056 342.358 48.4056 359.846 48.4142H360.034V48.6031C360 74.1285 359.966 95.8062 359.94 111.111C359.914 118.738 359.897 124.776 359.888 128.915C359.88 130.968 359.871 132.548 359.863 133.631C359.854 134.154 359.854 134.558 359.854 134.842C359.854 135.108 359.846 135.237 359.846 135.237Z" fill="#E0E0E0"/>
<path d="M369.528 36.6218C369.571 36.6562 369.056 37.412 368.173 38.5972C367.29 39.7824 366.029 41.3971 364.597 43.1406C363.164 44.8841 361.826 46.43 360.831 47.5208C359.837 48.6201 359.202 49.2729 359.159 49.2299C359.116 49.1956 359.682 48.4741 360.617 47.3233C361.638 46.0865 362.898 44.5577 364.288 42.8658C365.677 41.1738 366.929 39.645 367.95 38.4083C368.885 37.2831 369.485 36.5875 369.528 36.6218Z" fill="#E0E0E0"/>
<path d="M360.137 134.954C362.984 139.48 366.338 143.688 370.12 147.459L360.137 134.954Z" fill="white"/>
<path d="M370.129 147.467C370.095 147.501 369.409 146.917 368.388 145.878C367.368 144.847 366.004 143.362 364.623 141.627C363.234 139.892 362.085 138.234 361.304 137.006C360.524 135.778 360.095 134.988 360.146 134.953C360.198 134.919 360.712 135.658 361.553 136.834C362.393 138.011 363.577 139.626 364.949 141.36C366.33 143.087 367.642 144.59 368.603 145.672C369.563 146.754 370.172 147.424 370.129 147.467Z" fill="#E0E0E0"/>
<path d="M293.112 147.123C296.44 143.009 299.767 138.904 303.095 134.79L293.112 147.123Z" fill="white"/>
<path d="M303.094 134.799C303.18 134.867 301.019 137.693 298.266 141.094C295.513 144.504 293.206 147.201 293.111 147.132C293.026 147.063 295.187 144.238 297.94 140.837C300.702 137.427 303.009 134.721 303.094 134.799Z" fill="#E0E0E0"/>
<path d="M293.129 36.6219C293.215 36.5532 295.385 39.147 297.975 42.4193C300.565 45.6915 302.581 48.4055 302.495 48.4742C302.409 48.543 300.239 45.9492 297.649 42.6769C295.059 39.4047 293.035 36.6992 293.129 36.6219Z" fill="#E0E0E0"/>
<path d="M342.006 66.1926H322.837V120.705H342.006V66.1926Z" fill="#E0E0E0"/>
<path d="M79.4412 41.4934L73.3433 41.5261L73.5061 71.8955L79.604 71.8628L79.4412 41.4934Z" fill="#D2D2D2"/>
<path d="M36.3296 41.571L20.5488 41.6555L20.6385 58.4205L36.4193 58.336L36.3296 41.571Z" fill="#C7C7C7"/>
<path d="M52.0328 41.4846L36.252 41.5691L36.3416 58.3341L52.1224 58.2496L52.0328 41.4846Z" fill="#CFCFCF"/>
<path d="M20.5667 46.2839C31.0558 46.3698 41.5706 46.3097 52.0597 46.1379C52.2741 46.1379 52.2741 45.8029 52.0597 45.8029C41.5706 45.7428 31.0558 45.7944 20.5667 45.9919C20.3866 46.0005 20.3866 46.2839 20.5667 46.2839Z" fill="#E0E0E0"/>
<path d="M39.3816 58.0517L10.7017 58.2056L10.7748 71.8701L39.4547 71.7162L39.3816 58.0517Z" fill="#C7C7C7"/>
<path d="M67.9245 57.9065L39.2446 58.0603L39.3177 71.7248L67.9976 71.571L67.9245 57.9065Z" fill="#CFCFCF"/>
<path d="M10.7205 62.0097C29.769 62.2245 48.8861 62.0355 67.9345 61.7263C68.1489 61.7263 68.1489 61.3914 67.9345 61.3914C48.8861 61.2883 29.769 61.3055 10.7205 61.7263C10.5404 61.7263 10.5404 62.0097 10.7205 62.0097Z" fill="#E0E0E0"/>
<path d="M111.1 71.8694H0V76.7649H111.1V71.8694Z" fill="#B1B1B1"/>
<path d="M22.7022 74.2227H18.1909V90.9276H22.7022V74.2227Z" fill="#B1B1B1"/>
<path d="M90.0279 74.2227H85.5166V90.9276H90.0279V74.2227Z" fill="#B1B1B1"/>
<path d="M85.3972 30.1648L79.2993 30.1975L79.5233 71.9726L85.6212 71.9399L85.3972 30.1648Z" fill="white"/>
<path d="M94.9128 37.9369L85.4443 37.9878L85.626 71.8356L95.0945 71.7847L94.9128 37.9369Z" fill="#F5F5F5"/>
<path d="M94.8479 44.463C94.8479 44.5575 92.7295 44.6262 90.1136 44.6262C87.4978 44.6262 85.3794 44.5489 85.3794 44.463C85.3794 44.3685 87.4978 44.2998 90.1136 44.2998C92.7295 44.2998 94.8479 44.3685 94.8479 44.463Z" fill="#E0E0E0"/>
<path d="M94.8479 43.0372C94.8479 43.1317 92.7295 43.2004 90.1136 43.2004C87.4978 43.2004 85.3794 43.1231 85.3794 43.0372C85.3794 42.9427 87.4978 42.874 90.1136 42.874C92.7295 42.874 94.8479 42.9513 94.8479 43.0372Z" fill="#E0E0E0"/>
<path d="M94.8479 66.6991C94.8479 66.7935 92.7295 66.8623 90.1136 66.8623C87.4978 66.8623 85.3794 66.785 85.3794 66.6991C85.3794 66.6046 87.4978 66.5359 90.1136 66.5359C92.7295 66.5359 94.8479 66.6046 94.8479 66.6991Z" fill="#E0E0E0"/>
<path d="M94.8479 65.2733C94.8479 65.3678 92.7295 65.4365 90.1136 65.4365C87.4978 65.4365 85.3794 65.3592 85.3794 65.2733C85.3794 65.1788 87.4978 65.1101 90.1136 65.1101C92.7295 65.1101 94.8479 65.1874 94.8479 65.2733Z" fill="#E0E0E0"/>
<path d="M90.2679 62.1728C90.1736 62.1728 90.105 58.7546 90.105 54.5461C90.105 50.3291 90.1822 46.9194 90.2679 46.9194C90.3623 46.9194 90.4309 50.3377 90.4309 54.5461C90.4309 58.7546 90.3537 62.1728 90.2679 62.1728Z" fill="#E0E0E0"/>
<path d="M105.26 46.2495H94.9507V71.8007H105.26V46.2495Z" fill="#D0D0D0"/>
<path d="M84.007 37.2916C84.007 38.2621 83.2266 39.0437 82.2574 39.0437C81.2883 39.0437 80.5078 38.2621 80.5078 37.2916C80.5078 36.3211 81.2883 35.5396 82.2574 35.5396C83.218 35.5396 84.007 36.3297 84.007 37.2916Z" fill="#E0E0E0"/>
<path d="M82.7891 42.1184H81.7085V66.9653H82.7891V42.1184Z" fill="#E0E0E0"/>
<path d="M375 387.433C375 387.553 292.82 387.656 191.471 387.656C90.0879 387.656 7.9248 387.553 7.9248 387.433C7.9248 387.313 90.0879 387.21 191.471 387.21C292.82 387.21 375 387.313 375 387.433Z" fill="#263238"/>
<path d="M298.214 181.727H49.3149V189.706H298.214V181.727Z" fill="#B1B1B1"/>
<path d="M71.9057 387.837L63.8267 387.811V188.649H71.9057V387.837Z" fill="#B1B1B1"/>
<path d="M286.388 387.82H278.223L278.308 188.649H286.388V387.82Z" fill="#B1B1B1"/>
<path d="M145.767 108.345C145.767 108.345 190.193 154.956 189.413 165.297C188.632 175.637 178.683 177.888 175.441 177.484C172.191 177.08 147.774 149.837 147.774 149.837L145.767 108.345Z" fill="#E8505B"/>
<g opacity="0.4">
<g opacity="0.4">
<path opacity="0.4" d="M145.767 108.345C145.767 108.345 190.193 154.956 189.413 165.297C188.632 175.637 178.683 177.888 175.441 177.484C172.191 177.08 147.774 149.837 147.774 149.837L145.767 108.345Z" fill="black"/>
</g>
</g>
<path d="M169.446 338.615L181.488 378.982L195.03 371.621L187.337 334.665L169.446 338.615Z" fill="#FFBE9D"/>
<path d="M193.366 353.86L197.517 372.961C197.517 372.961 218.298 375.151 219.413 378.613L182.714 388L175.03 358.498L193.366 353.86Z" fill="#E8505B"/>
<path d="M185.759 374.275C185.099 374.653 184.816 375.581 185.159 376.251C185.51 376.929 186.445 377.23 187.114 376.861C187.783 376.5 188.161 375.392 187.74 374.765C187.32 374.129 186.197 373.837 185.639 374.353" fill="#E0E0E0"/>
<g opacity="0.4">
<g opacity="0.4">
<path opacity="0.4" d="M182.706 388L182.045 384.994L217.484 377.118C217.484 377.118 219.302 377.41 219.405 378.613L182.706 388Z" fill="black"/>
</g>
</g>
<path d="M198.067 372.626C198.109 372.807 197.235 373.116 196.497 373.923C195.742 374.705 195.485 375.598 195.305 375.572C195.133 375.581 195.125 374.438 196.034 373.485C196.926 372.514 198.058 372.446 198.067 372.626Z" fill="#263238"/>
<path d="M202.32 373.236C202.406 373.399 201.712 373.906 201.291 374.816C200.845 375.718 200.905 376.577 200.725 376.62C200.562 376.689 200.168 375.675 200.708 374.542C201.24 373.408 202.269 373.064 202.32 373.236Z" fill="#263238"/>
<path d="M205.682 377.29C205.528 377.367 205.048 376.534 205.262 375.435C205.468 374.335 206.214 373.725 206.326 373.863C206.463 373.983 206.051 374.653 205.897 375.555C205.717 376.457 205.854 377.221 205.682 377.29Z" fill="#263238"/>
<path d="M196.634 368.375C196.6 368.555 195.716 368.521 194.721 368.847C193.718 369.156 193.015 369.697 192.886 369.569C192.749 369.466 193.349 368.607 194.524 368.237C195.699 367.851 196.685 368.212 196.634 368.375Z" fill="#263238"/>
<path d="M195.725 364.536C195.742 364.613 195.065 364.905 193.881 364.999C193.289 365.042 192.586 365.034 191.805 364.896C191.419 364.828 191.016 364.733 190.605 364.604C190.407 364.536 190.176 364.484 189.936 364.312C189.687 364.175 189.455 363.728 189.61 363.376C189.73 363.05 190.03 362.835 190.287 362.766C190.553 362.689 190.785 362.689 190.999 362.689C191.437 362.68 191.848 362.723 192.243 362.792C193.023 362.93 193.701 363.187 194.224 363.471C195.279 364.046 195.742 364.639 195.682 364.69C195.613 364.768 195.056 364.312 194.027 363.883C193.512 363.668 192.877 363.471 192.148 363.376C191.788 363.333 191.402 363.307 191.008 363.316C190.596 363.316 190.262 363.393 190.21 363.591C190.193 363.668 190.193 363.694 190.305 363.788C190.416 363.874 190.596 363.934 190.793 364.003C191.171 364.132 191.548 364.235 191.908 364.312C192.629 364.467 193.298 364.527 193.855 364.544C195.004 364.561 195.708 364.441 195.725 364.536Z" fill="#263238"/>
<path d="M195.562 364.854C195.502 364.897 194.987 364.347 194.627 363.196C194.447 362.629 194.327 361.916 194.361 361.118C194.378 360.722 194.439 360.302 194.541 359.881C194.662 359.46 194.799 358.91 195.476 358.653C195.836 358.55 196.214 358.756 196.377 358.97C196.566 359.185 196.643 359.391 196.737 359.597C196.917 360.01 197.011 360.43 197.054 360.834C197.14 361.65 196.986 362.38 196.754 362.938C196.282 364.072 195.588 364.476 195.553 364.424C195.468 364.347 196.008 363.84 196.325 362.784C196.48 362.26 196.566 361.607 196.463 360.903C196.411 360.551 196.317 360.19 196.154 359.846C195.999 359.469 195.768 359.194 195.631 359.271C195.451 359.314 195.21 359.692 195.142 360.035C195.039 360.413 194.97 360.791 194.945 361.152C194.885 361.873 194.945 362.535 195.056 363.076C195.288 364.175 195.648 364.802 195.562 364.854Z" fill="#263238"/>
<path d="M136.735 223.528C137.181 225.314 168.649 353.86 168.649 353.86L197.217 345.22L170.244 215.016L136.735 223.528Z" fill="#263238"/>
<path d="M132.533 59.2959L127.542 97.7042C126.692 104.232 131.478 110.149 138.031 110.673C144.146 111.163 149.575 106.757 150.364 100.659C150.732 97.7644 151.05 95.3595 151.11 95.0589C151.11 95.0589 160.99 95.4111 162.954 85.8262C163.906 81.1969 165.081 71.4917 166.042 62.7056C167.079 53.2667 160.69 44.6179 151.376 42.8229L150.449 42.6425C140.363 41.3113 133.588 49.1527 132.533 59.2959Z" fill="#FFBE9D"/>
<path d="M151.153 94.9215C151.153 94.9215 144.995 94.2516 139.326 88.9524C139.326 88.9524 140.955 96.4331 150.698 97.4122L151.153 94.9215Z" fill="#EB996E"/>
<path d="M163.306 68.1335C163.194 68.8636 162.483 69.3703 161.719 69.2672C160.956 69.1642 160.433 68.4857 160.544 67.7556C160.656 67.0256 161.368 66.5189 162.131 66.622C162.886 66.7336 163.417 67.4035 163.306 68.1335Z" fill="#263238"/>
<path d="M163.383 66.4846C163.177 66.6306 162.285 65.6601 160.81 65.3852C159.343 65.0846 158.117 65.6343 157.988 65.4282C157.928 65.3337 158.16 65.0417 158.7 64.7926C159.232 64.5435 160.081 64.3632 160.999 64.5435C161.916 64.7239 162.62 65.2134 162.997 65.6429C163.391 66.0637 163.486 66.4159 163.383 66.4846Z" fill="#263238"/>
<path d="M148.468 66.0293C148.357 66.7593 147.645 67.2661 146.881 67.163C146.118 67.0599 145.595 66.3814 145.706 65.6514C145.818 64.9214 146.53 64.4146 147.293 64.5177C148.056 64.6208 148.58 65.2993 148.468 66.0293Z" fill="#263238"/>
<path d="M148.64 64.1655C148.434 64.3115 147.542 63.341 146.067 63.0662C144.6 62.7656 143.365 63.3152 143.245 63.1005C143.185 63.0061 143.417 62.714 143.957 62.465C144.489 62.2159 145.338 62.0355 146.255 62.2159C147.173 62.3963 147.876 62.8858 148.262 63.3152C148.648 63.7447 148.734 64.0968 148.64 64.1655Z" fill="#263238"/>
<path d="M151.779 76.4901C151.787 76.4043 152.731 76.4214 154.257 76.5159C154.643 76.5503 155.012 76.5417 155.124 76.3012C155.261 76.0435 155.184 75.6055 155.089 75.1331C154.909 74.154 154.721 73.1234 154.523 72.0498C153.76 67.661 153.288 64.0882 153.468 64.0624C153.649 64.0366 154.403 67.5666 155.167 71.9468C155.347 73.0289 155.518 74.0596 155.681 75.0387C155.741 75.4939 155.896 76.0264 155.595 76.5589C155.441 76.8251 155.124 76.9711 154.866 76.9883C154.609 77.0141 154.395 76.9797 154.206 76.9539C152.697 76.7478 151.77 76.576 151.779 76.4901Z" fill="#263238"/>
<path d="M149.652 61.1596C149.429 61.5289 147.997 61.0565 146.221 60.9362C144.455 60.7731 142.962 61.0135 142.799 60.6099C142.731 60.4209 143.048 60.086 143.683 59.8026C144.317 59.5191 145.278 59.3216 146.341 59.4075C147.405 59.4934 148.323 59.8455 148.906 60.2234C149.489 60.6013 149.746 60.9792 149.652 61.1596Z" fill="#263238"/>
<path d="M164.061 61.108C163.735 61.3914 162.791 60.8503 161.573 60.6013C160.364 60.3093 159.275 60.3951 159.103 59.9915C159.035 59.8025 159.258 59.4933 159.772 59.27C160.278 59.0381 161.076 58.9265 161.908 59.1154C162.74 59.3044 163.409 59.751 163.769 60.1718C164.129 60.5927 164.206 60.9706 164.061 61.108Z" fill="#263238"/>
<path d="M131.95 66.5532C131.804 66.4501 125.732 63.3325 124.677 69.9371C123.622 76.5418 130.466 76.2412 130.509 76.0522C130.56 75.8719 131.95 66.5532 131.95 66.5532Z" fill="#FFBE9D"/>
<path d="M128.896 73.2352C128.871 73.2094 128.768 73.2953 128.562 73.3555C128.356 73.4156 128.022 73.4156 127.696 73.2352C127.035 72.8659 126.632 71.6635 126.787 70.4697C126.864 69.8685 127.087 69.3102 127.37 68.8722C127.644 68.417 128.013 68.1336 128.373 68.125C128.733 68.0992 128.948 68.3483 128.999 68.5458C129.059 68.7434 128.999 68.8722 129.025 68.8894C129.042 68.9065 129.188 68.8035 129.171 68.5201C129.162 68.3826 129.111 68.2195 128.974 68.0649C128.836 67.9103 128.613 67.8072 128.365 67.7986C127.85 67.7557 127.318 68.1507 127.001 68.6317C126.658 69.1127 126.401 69.7311 126.306 70.4096C126.135 71.7494 126.615 73.1064 127.533 73.5272C127.979 73.7248 128.39 73.6475 128.613 73.5186C128.862 73.3898 128.922 73.2524 128.896 73.2352Z" fill="#EB996E"/>
<path d="M128.348 65.6342C129.394 65.5827 130.946 66.8452 131.195 67.8587C131.444 68.8807 131.332 69.9629 131.572 70.9763C131.821 71.9984 132.619 73.029 133.665 72.9861C134.386 72.9517 135.003 72.4021 135.32 71.7493C135.638 71.0966 135.698 70.358 135.749 69.6365C135.955 66.4931 135.895 63.3325 136.358 60.2148C136.83 57.1057 137.885 53.9794 140.012 51.6519C142.139 49.333 145.484 47.9674 148.511 48.8091C150.518 49.3674 152.182 50.7931 154.154 51.463C156.487 52.2617 159.189 51.901 161.239 50.5182C161.307 50.4753 161.436 50.4066 161.599 50.3293C162.328 49.9857 162.774 49.1956 162.628 48.4054C162.577 48.1392 162.491 47.8815 162.362 47.7012C159.06 43.2093 152.019 40.7701 146.453 41.0879C140.887 41.4057 135.192 44.197 131.95 48.7404C128.708 53.2924 128.056 60.3522 128.348 65.6342Z" fill="#263238"/>
<path d="M154.755 80.965C154.712 81.0852 153.777 80.8447 152.662 80.4325C151.547 80.0202 150.681 79.5908 150.724 79.4791C150.767 79.3675 151.701 79.5994 152.816 80.0116C153.923 80.4239 154.798 80.8533 154.755 80.965Z" fill="#263238"/>
<path d="M161.916 88.3769C161.959 88.3855 161.788 89.1413 161.102 90.1633C160.424 91.1854 159.172 92.3878 157.517 93.2553C155.861 94.1227 154.223 94.5435 153.048 94.784C151.865 95.0245 151.127 95.0932 151.11 95.0331C151.101 94.9644 151.822 94.784 152.971 94.4748C154.12 94.1571 155.707 93.6933 157.311 92.8602C158.906 92.0271 160.132 90.9106 160.844 89.9744C161.573 89.0468 161.848 88.3511 161.916 88.3769Z" fill="#EB996E"/>
<path d="M157.276 93.281C154.952 94.4491 153.245 97.6097 151.77 99.6624C151.316 100.289 150.852 100.951 150.724 101.706C150.587 102.514 150.852 103.33 151.135 104.103C151.556 105.245 152.036 106.37 152.516 107.495C152.653 107.813 152.834 108.174 153.168 108.251C153.597 108.345 153.966 107.925 154.137 107.521C154.575 106.516 154.532 105.374 154.678 104.292C154.823 103.209 155.278 102.033 156.273 101.578" fill="#EB996E"/>
<path d="M160.947 101.861L158.683 100.169C158.4 99.9372 157.98 99.9716 157.739 100.255L156.539 101.646V101.655L157.173 105.168C157.911 109.677 154.575 108.972 154.575 108.972L154.309 108.114L152.842 102.617C152.551 99.9973 152.756 99.6796 154.026 97.7815L156.822 93.7792C157.405 92.9117 158.494 92.5596 159.472 92.9203C163.486 94.4061 172.139 97.0944 173.117 100.495C174.892 106.705 176.325 122.525 176.35 122.809C176.35 122.817 176.35 122.809 176.35 122.817L164.138 123.917C164.138 123.917 164.138 123.925 164.138 123.917L164.198 113.353C164.198 113.353 162.422 112.322 161.899 110.458C161.376 108.586 160.947 101.861 160.947 101.861Z" fill="#FFBE9D"/>
<path d="M169.412 103.931C169.429 103.948 169.283 104.146 168.949 104.429C168.614 104.704 168.083 105.09 167.285 105.271C166.891 105.357 166.436 105.374 165.964 105.262C165.493 105.151 164.995 104.884 164.652 104.446C163.932 103.579 163.837 102.359 163.194 101.475C162.868 101.071 162.379 100.736 161.933 100.444C161.479 100.152 161.016 99.8943 160.561 99.6796C160.124 99.4907 159.635 99.2502 159.309 99.3275C158.932 99.422 158.597 99.6796 158.314 99.9201C157.208 100.951 156.599 101.715 156.539 101.655C156.513 101.638 156.65 101.432 156.907 101.088C157.173 100.745 157.542 100.238 158.108 99.6882C158.4 99.422 158.726 99.1128 159.232 98.9668C159.36 98.941 159.498 98.9238 159.643 98.941C159.772 98.9668 159.901 98.9925 160.021 99.0269C160.261 99.1042 160.501 99.1987 160.741 99.3017C161.213 99.5164 161.693 99.7741 162.173 100.075C162.645 100.384 163.134 100.693 163.554 101.208C164.283 102.256 164.361 103.45 164.969 104.189C165.544 104.944 166.522 105.082 167.225 104.962C167.954 104.841 168.486 104.515 168.846 104.283C169.198 104.051 169.386 103.905 169.412 103.931Z" fill="#EB996E"/>
<path d="M168.057 107.65C168.04 107.77 166.47 107.598 164.609 107.057C162.748 106.525 161.333 105.829 161.376 105.717C161.427 105.597 162.894 106.095 164.729 106.628C166.565 107.16 168.074 107.53 168.057 107.65Z" fill="#EB996E"/>
<path d="M163.7 101.913C160.501 101.921 160.123 101.767 156.496 101.964C155.955 101.99 155.406 102.024 154.9 102.222C154.394 102.419 153.94 102.814 153.803 103.338C153.545 104.335 154.549 105.236 155.552 105.468C156.556 105.692 157.611 105.52 158.605 105.752C160.132 106.104 161.727 106.834 162.628 108.114C164.72 111.085 166.907 109.651 168.34 110.716L172.079 108.345L170.758 102.814L163.7 101.913Z" fill="#FFBE9D"/>
<path d="M168.666 110.707C168.64 110.75 168.332 110.475 167.645 110.39C166.976 110.261 165.896 110.424 164.687 109.866C164.095 109.591 163.529 109.11 163.048 108.517C162.602 107.899 162.105 107.358 161.402 106.937C160.716 106.516 159.909 106.198 159.052 105.992C158.211 105.76 157.285 105.872 156.29 105.752C155.295 105.649 154.266 105.065 153.949 104.043C153.794 103.527 153.966 102.96 154.309 102.6C154.635 102.23 155.081 102.016 155.51 101.913C156.384 101.715 157.165 101.767 157.902 101.715C158.649 101.689 159.335 101.681 159.969 101.689C161.239 101.715 162.251 101.775 162.954 101.809C163.657 101.844 164.052 101.87 164.052 101.904C164.052 101.93 163.666 101.964 162.954 101.99C162.251 102.016 161.222 101.998 159.969 102.016C159.343 102.024 158.657 102.05 157.92 102.093C157.191 102.153 156.367 102.136 155.613 102.316C154.875 102.479 154.137 103.158 154.378 103.931C154.609 104.687 155.467 105.228 156.359 105.305C157.268 105.417 158.246 105.305 159.172 105.563C160.072 105.786 160.913 106.121 161.642 106.585C162.371 107.023 162.954 107.693 163.366 108.285C163.803 108.861 164.309 109.307 164.849 109.582C165.939 110.132 167.011 110.029 167.705 110.218C168.057 110.295 168.314 110.415 168.477 110.518C168.597 110.63 168.675 110.699 168.666 110.707Z" fill="#EB996E"/>
<path d="M163.348 99.4048C163.357 99.3533 163.58 99.3017 163.914 99.4563C164.232 99.6023 164.643 99.9888 164.729 100.573C164.806 101.157 164.523 101.646 164.257 101.87C163.983 102.11 163.751 102.127 163.726 102.076C163.7 102.016 163.854 101.896 164.017 101.655C164.18 101.423 164.343 101.037 164.283 100.633C164.223 100.229 163.966 99.9029 163.743 99.7226C163.52 99.5422 163.331 99.4735 163.348 99.4048Z" fill="#EB996E"/>
<path d="M170.527 243.367L154.883 282.48L170.055 285.151L186.985 251.423L170.527 243.367Z" fill="#FFBE9D"/>
<path d="M179.79 270.207L171.17 287.745C171.17 287.745 186.085 302.405 184.807 305.807L150.244 290.295L162.551 262.408L179.79 270.207Z" fill="#E8505B"/>
<path d="M161.153 281.449C160.398 281.329 159.601 281.879 159.455 282.626C159.309 283.373 159.858 284.189 160.604 284.318C161.35 284.447 162.336 283.82 162.396 283.064C162.456 282.308 161.762 281.38 161.007 281.432" fill="#E0E0E0"/>
<g opacity="0.4">
<g opacity="0.4">
<path opacity="0.4" d="M150.244 290.296L151.487 287.479L184.232 303.436C184.232 303.436 185.467 304.793 184.816 305.807L150.244 290.296Z" fill="black"/>
</g>
</g>
<path d="M171.814 287.822C171.736 287.985 170.853 287.685 169.781 287.856C168.7 288.002 167.946 288.535 167.826 288.406C167.688 288.303 168.392 287.41 169.695 287.221C170.99 287.023 171.917 287.685 171.814 287.822Z" fill="#263238"/>
<path d="M174.764 290.948C174.729 291.129 173.872 291.086 172.98 291.549C172.071 291.979 171.582 292.692 171.419 292.606C171.247 292.563 171.573 291.515 172.697 290.974C173.812 290.416 174.832 290.785 174.764 290.948Z" fill="#263238"/>
<path d="M174.875 296.222C174.704 296.187 174.85 295.242 175.699 294.504C176.539 293.765 177.5 293.757 177.508 293.928C177.543 294.109 176.805 294.375 176.119 294.985C175.424 295.586 175.055 296.282 174.875 296.222Z" fill="#263238"/>
<path d="M173.332 283.605C173.194 283.725 172.525 283.15 171.539 282.78C170.561 282.394 169.678 282.385 169.652 282.196C169.609 282.033 170.613 281.733 171.762 282.171C172.92 282.617 173.477 283.51 173.332 283.605Z" fill="#263238"/>
<path d="M175.004 280.032C174.978 280.101 174.258 279.912 173.28 279.25C172.791 278.924 172.243 278.469 171.719 277.876C171.454 277.584 171.205 277.258 170.965 276.906C170.853 276.734 170.707 276.545 170.622 276.262C170.51 276.004 170.604 275.506 170.948 275.325C171.248 275.137 171.608 275.162 171.857 275.274C172.114 275.377 172.303 275.523 172.466 275.652C172.809 275.918 173.109 276.21 173.375 276.502C173.898 277.103 174.267 277.722 174.498 278.271C174.97 279.371 174.961 280.127 174.884 280.135C174.781 280.152 174.627 279.448 174.087 278.469C173.812 277.979 173.435 277.43 172.929 276.906C172.671 276.648 172.388 276.39 172.071 276.15C171.745 275.892 171.436 275.746 171.273 275.867C171.213 275.91 171.196 275.935 171.222 276.081C171.256 276.219 171.359 276.382 171.471 276.554C171.685 276.889 171.917 277.206 172.148 277.49C172.62 278.057 173.1 278.52 173.538 278.881C174.421 279.603 175.047 279.946 175.004 280.032Z" fill="#263238"/>
<path d="M174.678 280.178C174.609 280.178 174.541 279.422 174.97 278.297C175.184 277.739 175.536 277.112 176.059 276.502C176.325 276.202 176.625 275.91 176.968 275.643C177.319 275.394 177.774 275.042 178.46 275.265C178.812 275.403 178.975 275.798 178.966 276.073C178.975 276.356 178.906 276.571 178.863 276.786C178.743 277.215 178.563 277.61 178.34 277.954C177.903 278.641 177.328 279.122 176.796 279.414C175.716 280.006 174.927 279.895 174.935 279.826C174.918 279.714 175.647 279.654 176.556 279.027C177.002 278.718 177.482 278.254 177.834 277.644C178.014 277.335 178.16 277 178.254 276.631C178.366 276.236 178.357 275.884 178.203 275.858C178.031 275.781 177.62 275.927 177.345 276.15C177.028 276.382 176.745 276.631 176.496 276.897C175.999 277.43 175.638 277.979 175.39 278.478C174.884 279.482 174.781 280.195 174.678 280.178Z" fill="#263238"/>
<path d="M140.578 196.473L188.744 172.855C197.217 168.698 207.415 170.613 213.822 177.553C219.782 184.02 221.18 193.484 217.329 201.403L185.373 267.209L158.64 258.767L182.148 208.609L155.707 228.792C148.563 234.246 139.849 237.235 130.869 237.304L123.948 237.364C112.344 236.883 101.838 230.373 96.2202 220.195L140.578 196.473Z" fill="#263238"/>
<path d="M185.373 267.209C185.373 267.209 185.202 267.175 184.884 267.08C184.541 266.977 184.07 266.84 183.469 266.66C182.208 266.273 180.39 265.715 178.075 265.011C173.392 263.55 166.711 261.472 158.589 258.938L158.391 258.878L158.477 258.689C163.194 248.589 169.078 236.007 175.442 222.394C177.689 217.601 179.876 212.938 181.951 208.515L182.277 208.781C170.15 217.833 159.292 225.348 151.282 230.295C147.276 232.76 143.966 234.572 141.59 235.603C140.398 236.11 139.446 236.428 138.777 236.556C138.451 236.651 138.185 236.634 138.014 236.659C137.842 236.668 137.756 236.677 137.756 236.668C137.756 236.642 138.108 236.642 138.76 236.488C139.412 236.333 140.346 235.998 141.521 235.466C143.871 234.401 147.148 232.554 151.127 230.063C159.086 225.056 169.901 217.498 182.011 208.437L182.706 207.913L182.337 208.703C180.262 213.135 178.083 217.799 175.836 222.591C169.447 236.187 163.537 248.761 158.795 258.853L158.683 258.603C166.788 261.197 173.452 263.327 178.117 264.822C180.416 265.569 182.226 266.161 183.486 266.565C184.087 266.763 184.55 266.926 184.884 267.037C185.219 267.141 185.373 267.209 185.373 267.209Z" fill="#455A64"/>
<path d="M191.205 197.719C191.291 197.848 188.255 199.359 185.656 202.503C183.014 205.62 182.062 208.875 181.925 208.807C181.874 208.79 182.045 207.974 182.56 206.72C183.074 205.466 183.984 203.808 185.313 202.211C186.642 200.622 188.117 199.436 189.258 198.706C190.407 197.985 191.188 197.676 191.205 197.719Z" fill="#455A64"/>
<path d="M89.1016 290.828H158.383C159.343 290.828 160.132 291.593 160.158 292.563C160.184 293.568 159.386 294.392 158.383 294.392H89.1016C88.1153 294.392 87.3262 293.594 87.3262 292.615C87.3177 291.627 88.1153 290.828 89.1016 290.828Z" fill="#D0D0D0"/>
<path d="M149.266 246.665H95.0708C95.0708 240.859 99.7707 236.153 105.568 236.153H138.76C144.566 236.144 149.266 240.859 149.266 246.665Z" fill="#455A64"/>
<path d="M150.973 246.665H93.8018V249.852H150.973V246.665Z" fill="#D0D0D0"/>
<path d="M98.8875 249.852L84.9077 387.837H88.1925L105.26 249.852H98.8875Z" fill="#D0D0D0"/>
<path d="M145.458 249.852L159.429 387.777L156.144 387.794L139.094 249.903L145.458 249.852Z" fill="#D0D0D0"/>
<path d="M125.981 248.641L123.631 387.837H120.26L118.785 248.254L125.981 248.641Z" fill="#D0D0D0"/>
<path d="M124.892 97.3521L128.279 87.0286L150.698 97.4208L149.669 108.346L138.503 111.523L127.533 104.79L124.892 97.3521Z" fill="#E8505B"/>
<path d="M96.2201 220.195C96.2201 220.195 93.0896 218.289 93.0811 213.934C93.0725 209.795 96.769 209.46 96.889 207.166C98.1241 183.505 100.8 134.489 102.558 119.021C104.779 99.5251 127.593 95.4026 127.593 95.4026L146.427 100.032V101.458C152.945 109.849 155.767 122.5 155.767 133.124L154.892 189.457L96.2201 220.195Z" fill="#E8505B"/>
<path d="M117.378 188.649C117.404 188.666 117.155 189.01 116.684 189.611C116.212 190.212 115.509 191.063 114.617 192.102C112.833 194.172 110.269 196.946 107.25 199.832C104.231 202.717 101.349 205.156 99.1962 206.84C98.1242 207.682 97.2408 208.351 96.6147 208.789C95.9972 209.236 95.6455 209.468 95.6198 209.442C95.6026 209.416 95.92 209.133 96.5032 208.652C97.155 208.111 97.9869 207.415 98.9904 206.591C101.083 204.847 103.922 202.374 106.932 199.505C109.934 196.628 112.533 193.905 114.368 191.887C115.243 190.925 115.972 190.126 116.538 189.499C117.061 188.933 117.361 188.632 117.378 188.649Z" fill="#263238"/>
<g opacity="0.2">
<g opacity="0.2">
<g opacity="0.2">
<path opacity="0.2" d="M98.8271 207.089C98.8958 203.525 101.554 200.587 104.196 198.191C107.284 195.391 110.577 192.806 114.033 190.47C114.205 192.213 113.021 193.768 111.872 195.082C108.013 199.497 103.733 203.55 99.1102 207.149" fill="black"/>
</g>
</g>
</g>
<path d="M131.787 95.6515C131.667 95.6171 131.976 94.2773 132.482 92.654C132.979 91.0394 133.485 89.7511 133.605 89.794C133.725 89.8284 133.417 91.1682 132.911 92.7914C132.413 94.4061 131.907 95.6858 131.787 95.6515Z" fill="#263238"/>
<path d="M140.535 92.7228C140.655 92.7486 140.449 94.0884 140.081 95.7031C139.712 97.3178 139.309 98.606 139.189 98.5803C139.068 98.5545 139.274 97.2233 139.643 95.6C140.021 93.9854 140.415 92.6885 140.535 92.7228Z" fill="#263238"/>
<path d="M147.045 95.978C147.165 96.0038 146.985 97.2062 146.813 98.692C146.642 100.169 146.547 101.38 146.419 101.38C146.299 101.38 146.196 100.152 146.367 98.6405C146.539 97.1203 146.925 95.9437 147.045 95.978Z" fill="#263238"/>
<path d="M124.42 151.1C124.42 151.134 124.085 151.151 123.468 151.168C122.859 151.186 121.967 151.194 120.878 151.194C118.691 151.194 115.663 151.16 112.327 151.1C108.991 151.04 105.963 150.954 103.776 150.876C102.678 150.833 101.795 150.799 101.186 150.756C100.577 150.713 100.234 150.679 100.234 150.653C100.234 150.619 100.577 150.602 101.186 150.584C101.795 150.567 102.687 150.559 103.776 150.559C105.963 150.559 108.982 150.593 112.327 150.653C115.663 150.713 118.682 150.799 120.869 150.876C121.89 150.919 122.747 150.962 123.459 150.997C124.085 151.031 124.42 151.065 124.42 151.1Z" fill="#FAFAFA"/>
<path d="M119.634 143.894C119.634 144.014 115.337 144.023 110.037 143.911C104.737 143.799 100.44 143.602 100.448 143.482C100.448 143.361 104.745 143.353 110.045 143.464C115.346 143.576 119.643 143.765 119.634 143.894Z" fill="#FAFAFA"/>
<g opacity="0.2">
<g opacity="0.2">
<g opacity="0.2">
<path opacity="0.2" d="M111.486 132.789C118.339 147.75 126.727 161.183 136.487 174.427C139 177.836 141.693 181.263 145.321 183.436C148.957 185.609 151.359 185.008 154.978 182.818C150.93 181.521 149.858 181.117 146.419 178.618C143.022 176.153 140.226 172.76 137.765 169.368C129.18 157.55 120.818 145.38 112.224 133.57" fill="black"/>
</g>
</g>
</g>
<path d="M182.817 154.063C182.971 153.075 183.126 152.07 183.606 151.203C184.095 150.335 184.978 149.614 185.973 149.631C186.968 149.64 187.928 150.602 187.706 151.572C187.577 152.148 187.105 152.568 186.754 153.041C185.656 154.535 185.759 156.554 185.776 158.4C185.793 160.255 185.544 162.351 184.069 163.459" fill="#FFBE9D"/>
<path d="M114.771 110.948C107.524 116.024 105.937 126.115 111.289 133.167L142.627 174.495C149.437 183.367 161.539 186.202 171.573 181.28C180.038 177.132 185.201 168.32 184.695 158.898L177.791 115.44L160.93 116.488L162.525 151.881L136.435 114.753C131.495 107.727 121.804 106.018 114.771 110.948Z" fill="#E8505B"/>
<path d="M182.32 171.214C178.168 170.244 177.465 169.531 173.323 168.561C172.088 168.269 170.501 167.47 171.059 166.164C171.35 165.477 172.079 165.074 172.817 165.134C174.438 165.263 177.036 166.233 178.589 166.379C178.975 166.413 178.966 166.027 178.795 165.761C176.264 164.996 173.666 164.447 171.041 164.094C169.403 163.88 168.769 161.724 170.089 160.736C170.252 160.607 170.999 160.393 171.196 160.419C172.86 160.659 172.86 160.659 174.626 160.968C179.601 161.827 178.94 160.848 178.94 160.848C178.975 160.479 173.28 159.92 170.372 159.577C169.755 159.5 169.077 159.396 168.683 158.916C168.203 158.331 168.374 157.404 168.88 156.846C169.386 156.287 170.124 155.858 170.878 155.849C174.112 155.789 184.73 156.974 184.73 156.974C184.73 156.974 186.119 158.864 185.699 162.737C185.227 166.963 182.32 171.214 182.32 171.214Z" fill="#FFBE9D"/>
<path d="M167.293 182.818C167.293 182.818 167.139 182.843 166.847 182.878C166.53 182.912 166.093 182.955 165.527 183.015C164.369 183.118 162.653 183.29 160.432 183.307C158.219 183.307 155.458 183.195 152.439 182.199C149.42 181.203 146.367 179.081 143.614 176.221C140.843 173.361 138.176 169.917 135.337 166.224C132.516 162.514 129.565 158.495 126.495 154.243C123.424 149.992 120.243 145.5 116.983 140.819C115.363 138.474 113.707 136.087 112.035 133.665C111.615 133.055 111.203 132.445 110.783 131.835L110.191 130.874C109.985 130.556 109.805 130.221 109.651 129.877C108.947 128.529 108.501 127.052 108.244 125.54C107.97 124.028 107.961 122.482 108.15 120.979C108.218 120.224 108.416 119.494 108.578 118.755C108.819 118.042 109.016 117.312 109.342 116.642C109.616 115.946 110.011 115.311 110.362 114.658C110.791 114.057 111.177 113.413 111.675 112.872C112.601 111.729 113.724 110.768 114.917 109.952C116.109 109.127 117.421 108.534 118.759 108.054C120.114 107.658 121.495 107.323 122.893 107.298C125.671 107.135 128.407 107.813 130.775 108.99C133.124 110.218 135.106 112.004 136.529 114.074C137.945 116.118 139.317 118.102 140.638 120.017C143.288 123.848 145.758 127.421 148.013 130.685C152.499 137.203 156.135 142.485 158.665 146.153C159.909 147.973 160.878 149.391 161.547 150.37C161.864 150.842 162.113 151.211 162.285 151.469C162.448 151.718 162.525 151.856 162.525 151.856C162.525 151.856 162.422 151.735 162.25 151.495C162.062 151.237 161.804 150.876 161.478 150.413C160.792 149.442 159.806 148.042 158.528 146.239C155.972 142.588 152.302 137.341 147.756 130.848C145.483 127.593 143.005 124.028 140.337 120.206C139.008 118.291 137.627 116.316 136.203 114.28C134.805 112.262 132.876 110.536 130.586 109.342C128.279 108.2 125.62 107.547 122.91 107.71C121.555 107.736 120.208 108.062 118.896 108.449C117.601 108.912 116.323 109.496 115.165 110.304C114.007 111.102 112.918 112.03 112.018 113.138C111.529 113.662 111.16 114.28 110.74 114.873C110.397 115.508 110.011 116.118 109.745 116.797C109.428 117.449 109.23 118.154 108.999 118.849C108.836 119.562 108.647 120.275 108.587 121.014C108.398 122.474 108.407 123.977 108.673 125.446C108.93 126.914 109.359 128.348 110.036 129.654C110.68 130.977 111.563 132.17 112.386 133.39C114.059 135.812 115.706 138.2 117.327 140.544C120.586 145.225 123.759 149.717 126.821 153.977C129.883 158.237 132.816 162.256 135.62 165.975C138.442 169.677 141.092 173.13 143.828 175.981C146.547 178.841 149.54 180.937 152.507 181.942C155.475 182.946 158.219 183.084 160.424 183.11C162.636 183.11 164.352 182.972 165.518 182.895C166.084 182.852 166.521 182.826 166.839 182.8C167.148 182.818 167.293 182.818 167.293 182.818Z" fill="#263238"/>
<path d="M164.318 164.85C164.163 164.833 165.21 161.715 164.566 157.842C163.975 153.96 162.019 151.323 162.156 151.254C162.191 151.229 162.731 151.83 163.366 152.964C164 154.097 164.686 155.789 165.004 157.765C165.312 159.74 165.192 161.561 164.935 162.832C164.686 164.12 164.36 164.867 164.318 164.85Z" fill="#263238"/>
<path d="M164.738 121.1C164.626 121.134 164.24 120.112 164.129 118.781C164.017 117.449 164.223 116.376 164.343 116.393C164.472 116.402 164.463 117.458 164.575 118.746C164.678 120.026 164.858 121.065 164.738 121.1Z" fill="#263238"/>
<path d="M169.378 120.67C169.266 120.705 168.854 119.717 168.683 118.42C168.511 117.123 168.657 116.058 168.777 116.067C168.906 116.075 168.957 117.106 169.129 118.368C169.292 119.614 169.506 120.627 169.378 120.67Z" fill="#263238"/>
<path d="M173.983 119.665C173.863 119.674 173.717 118.824 173.657 117.776C173.606 116.728 173.657 115.869 173.777 115.861C173.897 115.852 174.043 116.702 174.103 117.75C174.163 118.798 174.112 119.657 173.983 119.665Z" fill="#263238"/>
<path d="M145.586 129.233C145.655 129.336 140.337 133.149 133.708 137.753C127.078 142.357 121.649 146.007 121.572 145.904C121.503 145.801 126.821 141.987 133.45 137.384C140.089 132.78 145.518 129.13 145.586 129.233Z" fill="#FAFAFA"/>
<path d="M141.435 122.998C141.452 123.024 141.118 123.281 140.5 123.719C139.814 124.2 138.931 124.819 137.884 125.557C135.672 127.103 132.627 129.267 129.316 131.724C126.006 134.18 123.056 136.473 120.929 138.14C119.917 138.93 119.067 139.591 118.407 140.115C117.807 140.579 117.472 140.819 117.446 140.802C117.429 140.776 117.73 140.484 118.296 139.986C118.862 139.479 119.694 138.766 120.731 137.899C122.807 136.164 125.731 133.828 129.051 131.372C132.37 128.915 135.449 126.794 137.713 125.308C138.845 124.569 139.771 123.977 140.414 123.582C141.058 123.178 141.418 122.972 141.435 122.998Z" fill="#FAFAFA"/>
<path d="M347.384 338.333H289.029V346.363H347.384V338.333Z" fill="#263238"/>
<path d="M347.486 346.465H288.935V338.238H347.486V346.465ZM289.132 346.268H347.289V338.435H289.132V346.268Z" fill="#263238"/>
<path d="M294.44 343.691L302.837 385.191H333.918L342.04 346.362L294.44 343.691Z" fill="#263238"/>
<path d="M294.44 381.266L298.917 387.433H336.697L342.04 381.266H294.44Z" fill="#455A64"/>
<path d="M316.019 344.902C315.908 344.902 315.753 325.681 315.693 301.968C315.625 278.246 315.667 259.024 315.779 259.024C315.89 259.024 316.045 278.246 316.105 301.968C316.174 325.681 316.131 344.902 316.019 344.902Z" fill="#263238"/>
<path d="M329.013 296.789C329.03 296.797 328.97 296.952 328.858 297.235C328.721 297.562 328.55 297.974 328.335 298.481C328.215 298.756 328.095 299.056 327.958 299.374C327.838 299.709 327.709 300.078 327.572 300.465C327.435 300.86 327.28 301.272 327.126 301.719C326.972 302.165 326.851 302.646 326.697 303.144C326.062 305.137 325.556 307.576 325.068 310.299C324.639 313.03 324.321 316.053 324.167 319.248C323.884 325.629 324.244 331.427 324.63 335.592C324.819 337.679 325.008 339.363 325.145 340.531C325.205 341.08 325.256 341.518 325.291 341.871C325.316 342.18 325.325 342.343 325.316 342.343C325.299 342.343 325.265 342.188 325.213 341.879C325.153 341.527 325.076 341.089 324.99 340.548C324.802 339.388 324.57 337.705 324.347 335.618C323.884 331.444 323.481 325.638 323.764 319.222C323.927 316.019 324.253 312.978 324.707 310.23C325.222 307.499 325.762 305.043 326.44 303.05C326.603 302.552 326.731 302.071 326.903 301.624C327.074 301.186 327.237 300.765 327.383 300.379C327.538 299.992 327.675 299.632 327.803 299.297C327.949 298.97 328.095 298.678 328.215 298.412C328.455 297.914 328.653 297.519 328.807 297.192C328.927 296.926 329.004 296.789 329.013 296.789Z" fill="#263238"/>
<path d="M327.52 281.243C327.538 281.252 327.469 281.467 327.332 281.879C327.177 282.326 326.98 282.918 326.723 283.665C326.586 284.06 326.44 284.49 326.277 284.954C326.131 285.435 325.977 285.95 325.805 286.508C325.462 287.625 325.067 288.887 324.716 290.304C324.527 291.017 324.33 291.756 324.133 292.529C323.961 293.31 323.772 294.118 323.584 294.959C323.172 296.634 322.88 298.455 322.503 300.353C321.86 304.175 321.294 308.392 320.899 312.841C320.53 317.299 320.368 321.558 320.316 325.432C320.307 329.305 320.35 332.792 320.513 335.721C320.565 337.19 320.659 338.512 320.736 339.672C320.805 340.831 320.874 341.836 320.951 342.652C321.011 343.442 321.062 344.069 321.097 344.533C321.122 344.962 321.131 345.194 321.122 345.194C321.105 345.194 321.071 344.971 321.019 344.542C320.968 344.078 320.891 343.451 320.796 342.661C320.693 341.845 320.599 340.849 320.513 339.68C320.419 338.521 320.299 337.198 320.23 335.73C320.033 332.801 319.956 329.305 319.947 325.423C319.982 321.541 320.136 317.273 320.505 312.807C320.899 308.341 321.474 304.106 322.143 300.284C322.529 298.378 322.838 296.557 323.258 294.882C323.455 294.04 323.644 293.233 323.832 292.452C324.047 291.679 324.253 290.94 324.45 290.227C324.819 288.81 325.239 287.547 325.599 286.431C325.779 285.881 325.951 285.366 326.105 284.885C326.277 284.421 326.44 283.992 326.586 283.605C326.869 282.867 327.1 282.283 327.263 281.845C327.417 281.45 327.512 281.235 327.52 281.243Z" fill="#263238"/>
<path d="M312.323 348.303C312.314 348.303 312.305 348.226 312.288 348.08C312.271 347.908 312.254 347.694 312.237 347.419C312.194 346.809 312.134 345.959 312.065 344.876C311.928 342.635 311.722 339.44 311.482 335.515C310.976 327.613 310.247 316.689 308.918 304.673C308.24 298.67 307.451 292.967 306.636 287.796C306.199 285.211 305.804 282.755 305.358 280.479C304.947 278.186 304.509 276.064 304.098 274.123C303.712 272.182 303.283 270.439 302.94 268.91C302.605 267.373 302.271 266.059 302.005 264.985C301.748 263.929 301.542 263.104 301.396 262.511C301.336 262.245 301.285 262.031 301.25 261.867C301.216 261.721 301.207 261.644 301.216 261.644C301.225 261.644 301.25 261.713 301.293 261.859C301.345 262.022 301.405 262.237 301.482 262.494C301.645 263.087 301.876 263.911 302.168 264.951C302.468 266.016 302.82 267.33 303.18 268.858C303.549 270.387 303.995 272.122 304.398 274.063C304.827 275.996 305.281 278.117 305.71 280.41C306.173 282.695 306.585 285.151 307.031 287.736C307.871 292.907 308.669 298.618 309.347 304.63C310.676 316.654 311.362 327.588 311.791 335.498C312.005 339.457 312.151 342.661 312.245 344.868C312.288 345.95 312.314 346.8 312.34 347.419C312.348 347.694 312.348 347.908 312.357 348.08C312.34 348.226 312.331 348.303 312.323 348.303Z" fill="#263238"/>
<path d="M315.539 268.266C315.281 265.543 312.537 263.491 309.801 263.456C307.074 263.431 304.526 265.071 302.854 267.235C301.182 269.4 300.264 272.045 299.509 274.673C297.674 281.089 296.662 287.831 297.451 294.461C298.24 301.092 300.924 307.619 305.676 312.3C306.448 313.064 307.451 313.82 308.506 313.597C309.089 313.477 309.561 313.073 309.998 312.669C319.329 304.227 324.715 291.584 324.347 278.993C324.269 276.477 323.944 273.849 322.546 271.744C321.165 269.657 317.914 267.424 315.539 268.266Z" fill="#E8505B"/>
<path d="M295.144 246.451C293.858 248.778 292.58 251.106 291.293 253.425C291.207 253.588 291.087 253.768 290.899 253.785C290.693 253.803 290.547 253.614 290.435 253.442C287.048 248.228 283.651 243.024 280.264 237.811L282.605 236.479L295.144 246.451Z" fill="#E8505B"/>
<g opacity="0.2">
<g opacity="0.2">
<g opacity="0.2">
<g opacity="0.2">
<g opacity="0.2">
<path opacity="0.2" d="M295.144 246.451C293.858 248.778 292.58 251.106 291.293 253.425C291.207 253.588 291.087 253.768 290.899 253.785C290.693 253.803 290.547 253.614 290.435 253.442C287.048 248.228 283.651 243.024 280.264 237.811L282.605 236.479L295.144 246.451Z" fill="black"/>
</g>
</g>
</g>
</g>
</g>
<path d="M315.779 259.024C304.218 252.188 292.648 245.36 281.087 238.523C280.735 238.317 280.35 238.068 280.247 237.673C280.109 237.158 280.495 236.66 280.864 236.282C285.633 231.352 292.571 228.492 299.407 228.99C306.242 229.48 312.82 233.439 316.165 239.434C319.501 245.42 319.613 253.339 315.779 259.024Z" fill="#E8505B"/>
<path d="M286.079 231.979C286.079 231.962 286.233 231.945 286.533 231.919C286.833 231.902 287.271 231.85 287.845 231.859C288.986 231.833 290.641 231.902 292.657 232.245C294.672 232.58 297.039 233.224 299.509 234.332C301.979 235.432 304.535 237.02 306.868 239.116C309.175 241.229 311.019 243.616 312.357 245.97C313.704 248.323 314.578 250.616 315.11 252.592C315.642 254.567 315.882 256.207 315.968 257.35C316.028 257.917 316.002 258.063 316.019 258.363C316.028 258.664 315.762 259.119 315.753 259.119C315.719 259.119 315.942 258.492 315.805 257.367C315.668 256.242 315.385 254.618 314.827 252.669C313.729 248.795 311.182 243.582 306.585 239.417C301.988 235.26 296.551 233.241 292.597 232.529C290.607 232.159 288.969 232.039 287.837 232.022C286.713 231.996 286.087 232.022 286.079 231.979Z" fill="#263238"/>
<path d="M311.079 244.879C311.096 244.93 310.427 245.24 309.321 245.678C308.215 246.116 306.671 246.674 304.947 247.224C303.215 247.773 301.637 248.211 300.479 248.495C299.321 248.778 298.6 248.907 298.583 248.855C298.566 248.795 299.269 248.563 300.393 248.211C301.671 247.808 303.163 247.344 304.81 246.829C306.457 246.296 307.94 245.815 309.218 245.403C310.359 245.034 311.062 244.819 311.079 244.879Z" fill="#263238"/>
<path d="M305.616 230.184C305.727 230.175 305.976 231.91 306.028 234.057C306.088 236.213 305.925 237.957 305.813 237.948C305.693 237.948 305.667 236.204 305.607 234.066C305.556 231.927 305.496 230.192 305.616 230.184Z" fill="#263238"/>
<path d="M280.779 238.137C280.761 238.085 281.722 237.733 283.3 237.252C284.878 236.763 287.074 236.153 289.518 235.56C291.962 234.968 294.201 234.521 295.822 234.229C297.443 233.946 298.463 233.817 298.472 233.868C298.481 233.928 297.486 234.16 295.882 234.512C294.278 234.873 292.057 235.371 289.612 235.955C287.168 236.548 284.972 237.115 283.377 237.527C281.782 237.948 280.796 238.197 280.779 238.137Z" fill="#263238"/>
<path d="M301.139 262.357C298.154 260.09 294.998 259.643 291.259 259.789C287.519 259.935 283.874 261.077 280.444 262.58C274.595 265.148 269.097 268.927 265.598 274.278C262.099 279.629 260.889 286.714 263.505 292.555C263.762 293.139 264.105 293.74 264.689 293.997C265.306 294.264 266.009 294.058 266.644 293.851C273.299 291.679 279.998 289.48 286.121 286.079C292.236 282.678 297.811 277.945 301.087 271.753C301.876 270.267 302.537 268.678 302.666 266.995C302.794 265.329 302.331 263.542 301.139 262.357Z" fill="#E8505B"/>
<path d="M301.199 261.661C301.199 261.679 301.036 261.739 300.719 261.859C300.359 261.979 299.895 262.142 299.321 262.34C299.012 262.443 298.678 262.555 298.309 262.675C297.94 262.804 297.554 262.967 297.125 263.139C296.285 263.482 295.307 263.817 294.278 264.324C293.755 264.564 293.214 264.813 292.648 265.071C292.082 265.329 291.516 265.655 290.916 265.956C289.707 266.548 288.489 267.304 287.194 268.077C284.646 269.692 281.945 271.633 279.312 273.926C276.705 276.245 274.44 278.675 272.511 281.012C271.584 282.205 270.675 283.322 269.938 284.438C269.56 284.997 269.166 285.512 268.84 286.044C268.514 286.577 268.197 287.084 267.896 287.573C267.27 288.535 266.807 289.463 266.361 290.253C266.147 290.657 265.932 291.017 265.752 291.369C265.589 291.713 265.435 292.039 265.289 292.331C265.023 292.872 264.809 293.31 264.637 293.654C264.483 293.955 264.397 294.109 264.38 294.101C264.363 294.092 264.431 293.929 264.56 293.62C264.715 293.267 264.903 292.821 265.143 292.263C265.272 291.962 265.418 291.636 265.572 291.284C265.735 290.931 265.941 290.553 266.147 290.15C266.576 289.342 267.022 288.398 267.631 287.427C267.931 286.929 268.239 286.414 268.557 285.881C268.883 285.349 269.269 284.816 269.646 284.258C270.384 283.124 271.284 281.991 272.202 280.78C274.123 278.426 276.404 275.961 279.029 273.625C281.679 271.315 284.398 269.365 286.979 267.759C288.291 266.995 289.526 266.239 290.744 265.664C291.353 265.363 291.919 265.045 292.494 264.788C293.069 264.539 293.617 264.298 294.149 264.066C295.187 263.577 296.182 263.259 297.031 262.932C297.46 262.778 297.854 262.623 298.223 262.503C298.592 262.391 298.935 262.288 299.244 262.202C299.827 262.039 300.299 261.902 300.667 261.799C301.028 261.687 301.199 261.644 301.199 261.661Z" fill="#263238"/>
<path d="M277.888 274.295C277.922 274.407 274.672 275.455 270.632 276.64C266.593 277.825 263.291 278.693 263.257 278.581C263.222 278.469 266.473 277.421 270.512 276.236C274.552 275.06 277.854 274.184 277.888 274.295Z" fill="#263238"/>
<path d="M277.588 290.339C277.528 290.339 277.468 289.471 277.425 288.071C277.391 286.671 277.382 284.739 277.442 282.6C277.502 280.462 277.614 278.529 277.734 277.138C277.854 275.738 277.965 274.879 278.017 274.888C278.077 274.888 278.068 275.755 278.025 277.155C277.974 278.693 277.922 280.556 277.854 282.618C277.802 284.679 277.759 286.543 277.716 288.08C277.691 289.471 277.648 290.339 277.588 290.339Z" fill="#263238"/>
<path d="M291.31 283.339C291.198 283.347 290.83 279.414 290.495 274.553C290.161 269.692 289.981 265.749 290.092 265.741C290.204 265.732 290.572 269.666 290.907 274.527C291.241 279.388 291.421 283.33 291.31 283.339Z" fill="#263238"/>
<path d="M274.234 265.363C274.234 265.303 275.126 265.286 276.559 265.294C277.991 265.303 279.972 265.346 282.159 265.415C284.346 265.483 286.327 265.578 287.76 265.664C289.192 265.75 290.075 265.827 290.075 265.887C290.075 265.947 289.183 265.964 287.751 265.956C286.319 265.947 284.338 265.904 282.142 265.827C279.955 265.758 277.974 265.664 276.542 265.578C275.109 265.5 274.226 265.415 274.234 265.363Z" fill="#263238"/>
<path d="M307.168 313.219C307.151 313.219 307.134 313.056 307.117 312.755C307.1 312.403 307.083 311.965 307.057 311.415C307.005 310.256 306.997 308.572 307.04 306.494C307.074 304.415 307.22 301.942 307.468 299.202C307.743 296.471 308.129 293.465 308.686 290.339C309.261 287.212 309.947 284.267 310.659 281.604C311.388 278.95 312.126 276.58 312.82 274.622C313.506 272.655 314.115 271.083 314.57 270.009C314.784 269.511 314.956 269.099 315.102 268.773C315.23 268.489 315.299 268.352 315.316 268.352C315.333 268.36 315.282 268.515 315.187 268.798C315.067 269.125 314.921 269.546 314.733 270.061C314.321 271.152 313.764 272.732 313.112 274.707C312.451 276.674 311.748 279.045 311.036 281.699C310.35 284.352 309.673 287.29 309.098 290.407C308.541 293.525 308.137 296.505 307.846 299.237C307.58 301.959 307.408 304.424 307.331 306.494C307.246 308.564 307.22 310.247 307.22 311.407C307.211 311.948 307.211 312.394 307.203 312.746C307.194 313.056 307.177 313.219 307.168 313.219Z" fill="#263238"/>
<path d="M308.995 290.467C309.038 290.51 308.506 291.094 307.614 291.988C306.713 292.881 305.444 294.083 303.986 295.363C302.528 296.643 301.173 297.751 300.17 298.523C299.166 299.296 298.514 299.743 298.48 299.7C298.446 299.657 299.029 299.125 299.981 298.3C301.044 297.373 302.314 296.273 303.712 295.054C305.101 293.826 306.353 292.709 307.408 291.773C308.36 290.931 308.952 290.424 308.995 290.467Z" fill="#263238"/>
<path d="M319.982 299.331C319.93 299.365 319.381 298.575 318.506 297.287C317.554 295.904 316.379 294.178 315.076 292.28C313.746 290.399 312.546 288.69 311.577 287.316C310.676 286.044 310.127 285.254 310.179 285.22C310.222 285.186 310.856 285.916 311.817 287.135C312.777 288.363 314.064 290.081 315.419 292.039C316.774 293.989 317.94 295.801 318.755 297.124C319.561 298.455 320.024 299.297 319.982 299.331Z" fill="#263238"/>
<path d="M314.227 271.469C314.287 271.564 310.642 274.029 306.079 276.966C301.516 279.903 297.768 282.205 297.708 282.111C297.648 282.016 301.293 279.551 305.856 276.614C310.419 273.677 314.167 271.366 314.227 271.469Z" fill="#263238"/>
<path d="M324.51 282.583C324.433 282.669 321.963 280.376 318.995 277.481C316.028 274.579 313.686 272.157 313.764 272.079C313.841 271.993 316.311 274.286 319.278 277.189C322.254 280.084 324.596 282.506 324.51 282.583Z" fill="#263238"/>
<path d="M327.1 282.36L330.231 282.102C332.452 281.922 334.613 281.26 336.551 280.161C337.512 279.62 338.481 279.088 339.502 278.675C343.37 277.121 347.692 277.396 351.861 277.189C358.662 276.846 365.394 275.128 371.518 272.157C371.87 271.985 372.187 271.727 372.376 271.375C373.019 270.198 371.827 269.159 370.797 268.524C365.523 265.268 360.154 261.97 354.168 260.356C348.181 258.741 341.389 259.016 336.286 262.529C330.291 266.668 328.112 275.145 327.1 282.36Z" fill="#E8505B"/>
<path d="M372.444 270.997C372.436 271.006 372.256 270.92 371.913 270.748C371.535 270.55 371.046 270.293 370.429 269.966C369.142 269.288 367.29 268.292 364.948 267.166C362.607 266.05 359.768 264.796 356.466 263.894C353.173 262.975 349.382 262.503 345.471 263.001C341.577 263.516 337.984 265.036 335.445 267.312C332.889 269.58 331.328 272.328 330.222 274.656C329.124 277.009 328.447 279.002 327.949 280.376C327.718 281.029 327.529 281.561 327.392 281.956C327.263 282.317 327.186 282.506 327.169 282.497C327.152 282.489 327.203 282.3 327.306 281.93C327.426 281.527 327.589 280.986 327.786 280.324C328.232 278.942 328.867 276.923 329.948 274.536C331.028 272.174 332.581 269.374 335.179 267.029C337.769 264.676 341.44 263.113 345.402 262.589C349.382 262.073 353.241 262.58 356.561 263.525C359.897 264.461 362.736 265.758 365.077 266.909C367.41 268.068 369.245 269.116 370.506 269.838C371.106 270.19 371.587 270.473 371.955 270.688C372.281 270.877 372.453 270.98 372.444 270.997Z" fill="#263238"/>
<path d="M364.922 275.042C364.862 275.137 360.763 272.483 355.771 269.116C350.78 265.749 346.792 262.941 346.852 262.846C346.912 262.752 351.011 265.406 356.003 268.773C361.003 272.139 364.991 274.948 364.922 275.042Z" fill="#263238"/>
<path d="M360.557 262.632C360.574 262.726 359.254 263.035 357.573 263.173C355.892 263.31 354.528 263.224 354.528 263.13C354.528 263.027 355.874 262.958 357.53 262.821C359.193 262.683 360.54 262.529 360.557 262.632Z" fill="#263238"/>
<path d="M342.632 260.287C342.735 260.33 342.126 261.275 341.286 262.391C340.445 263.508 339.682 264.375 339.588 264.332C339.485 264.289 340.094 263.345 340.934 262.228C341.766 261.111 342.529 260.244 342.632 260.287Z" fill="#263238"/>
<path d="M346.295 277.456C346.269 277.499 345.505 277.103 344.322 276.382C343.138 275.661 341.543 274.613 339.828 273.367C338.121 272.122 336.612 270.954 335.531 270.087C334.45 269.228 333.799 268.669 333.833 268.627C333.867 268.584 334.588 269.047 335.711 269.855C336.938 270.748 338.43 271.83 340.077 273.032C341.783 274.269 343.344 275.36 344.485 276.133C345.626 276.923 346.329 277.404 346.295 277.456Z" fill="#263238"/>
<path d="M331.706 295.689C328.721 294.899 325.162 297.811 324.544 300.843C323.927 303.874 325.068 306.975 326.397 309.766C329.339 315.95 333.404 321.679 338.747 325.947C344.099 330.216 350.797 332.947 357.633 332.913C356.372 327.038 357.967 320.906 357.264 314.937C356.646 309.732 354.228 304.75 350.506 301.066C346.783 297.373 341.792 294.994 336.586 294.435C334.673 294.221 332.469 293.92 331.706 295.689Z" fill="#E8505B"/>
<path d="M357.633 332.913C357.624 332.921 357.478 332.861 357.204 332.715C356.938 332.569 356.544 332.329 356.089 331.968C355.154 331.255 354.074 329.881 353.139 328.017C352.658 327.09 352.127 326.085 351.612 324.977C351.106 323.86 350.566 322.666 350.008 321.421C349.442 320.176 348.816 318.879 348.036 317.616C347.264 316.354 346.338 315.117 345.317 313.915C343.276 311.51 341.08 309.431 339.176 307.439C337.264 305.455 335.66 303.548 334.493 301.813C333.318 300.078 332.607 298.532 332.203 297.433C332.015 296.883 331.869 296.454 331.8 296.153C331.723 295.853 331.689 295.698 331.706 295.698C331.749 295.689 331.912 296.308 332.349 297.381C332.795 298.446 333.533 299.958 334.725 301.65C335.908 303.351 337.521 305.214 339.442 307.172C341.355 309.139 343.559 311.218 345.626 313.648C346.655 314.859 347.59 316.113 348.37 317.41C349.159 318.698 349.785 320.012 350.343 321.266C350.892 322.52 351.423 323.714 351.912 324.839C352.41 325.947 352.933 326.961 353.387 327.897C354.288 329.761 355.291 331.118 356.183 331.856C357.067 332.586 357.659 332.87 357.633 332.913Z" fill="#263238"/>
<path d="M342.187 328.026C342.135 328.017 342.229 327.244 342.461 326.016C342.693 324.788 343.078 323.096 343.593 321.249C344.116 319.403 344.665 317.762 345.111 316.594C345.557 315.417 345.874 314.713 345.926 314.73C345.986 314.747 345.754 315.495 345.386 316.688C345.017 317.882 344.511 319.531 343.996 321.361C343.482 323.19 343.053 324.865 342.744 326.076C342.444 327.287 342.247 328.043 342.187 328.026Z" fill="#263238"/>
<path d="M357.067 313.614C357.049 313.674 356.252 313.468 354.965 313.133C353.679 312.798 351.904 312.334 349.922 311.888C347.941 311.441 346.14 311.097 344.836 310.848C343.533 310.599 342.718 310.445 342.727 310.385C342.735 310.333 343.559 310.385 344.879 310.556C346.2 310.728 348.027 311.037 350.008 311.484C351.998 311.93 353.773 312.437 355.043 312.849C356.32 313.253 357.084 313.554 357.067 313.614Z" fill="#263238"/>
<path d="M331.105 317.796C331.054 317.788 331.166 316.895 331.431 315.469C331.697 314.043 332.109 312.076 332.666 309.929C333.224 307.782 333.816 305.867 334.287 304.493C334.759 303.118 335.094 302.285 335.145 302.303C335.205 302.32 334.965 303.187 334.57 304.578C334.176 305.97 333.627 307.894 333.07 310.032C332.512 312.171 332.049 314.112 331.714 315.52C331.38 316.938 331.166 317.814 331.105 317.796Z" fill="#263238"/>
<path d="M350.214 301.049C350.205 301.16 346.474 300.86 341.886 300.37C337.298 299.881 333.593 299.4 333.601 299.279C333.61 299.168 337.34 299.468 341.929 299.958C346.517 300.447 350.231 300.928 350.214 301.049Z" fill="#263238"/>
<path d="M347.486 346.328C347.486 346.44 334.382 346.534 318.215 346.534C302.039 346.534 288.935 346.44 288.935 346.328C288.935 346.216 302.039 346.122 318.215 346.122C334.373 346.122 347.486 346.216 347.486 346.328Z" fill="#455A64"/>
<path d="M338.361 363.222C338.361 363.333 329.527 363.428 318.635 363.428C307.743 363.428 298.909 363.333 298.909 363.222C298.909 363.11 307.743 363.016 318.635 363.016C329.536 363.016 338.361 363.11 338.361 363.222Z" fill="#455A64"/>
<path d="M338.018 365.635C338.018 365.747 329.338 365.841 318.635 365.841C307.931 365.841 299.252 365.747 299.252 365.635C299.252 365.523 307.931 365.429 318.635 365.429C329.347 365.429 338.018 365.523 338.018 365.635Z" fill="#455A64"/>
<path d="M338.713 361.229C338.713 361.341 329.579 361.435 318.309 361.435C307.04 361.435 297.906 361.341 297.906 361.229C297.906 361.118 307.04 361.023 318.309 361.023C329.57 361.023 338.713 361.118 338.713 361.229Z" fill="#455A64"/>
<path d="M221.49 16.7313C213.839 15.0221 204.019 20.3385 201.369 27.5014C198.719 34.6643 201.592 43.5278 207.355 48.535C202.861 54.3237 202.673 62.9381 206.472 69.1992C210.272 75.4689 217.639 79.2307 224.955 79.1878C232.279 79.1448 239.38 75.4947 244.14 69.9292C250.341 72.9868 258.24 72.2396 263.755 68.0569C269.269 63.8743 272.134 56.4709 270.873 49.6601C279.553 46.4909 284.321 35.3858 280.642 26.9002C276.971 18.4146 265.616 14.3007 257.374 18.4748C257.554 9.2248 249.492 0.593229 240.264 0.14662C231.052 -0.308577 222.201 7.50708 221.49 16.7313C222.056 16.6454 220.924 16.8257 221.49 16.7313Z" fill="#FAFAFA"/>
<path d="M221.489 16.7306C221.489 16.7306 221.454 16.7392 221.352 16.765H221.334H221.326C221.317 16.722 221.326 16.7564 221.326 16.7478H221.334L221.377 16.7392C221.412 16.7306 221.446 16.722 221.489 16.722C221.532 16.7134 221.583 16.7048 221.635 16.6962C221.635 16.765 221.54 16.7306 221.489 16.7564L221.463 16.765L221.472 16.7306C221.583 15.992 221.617 14.0424 222.792 11.3885C223.35 10.0572 224.216 8.57999 225.417 7.06839C226.618 5.55679 228.23 4.06237 230.245 2.78266C232.261 1.50295 234.731 0.489496 237.535 0.137362C237.887 0.094419 238.239 0.0600645 238.599 0.0171214C238.959 0.0171214 239.319 0.00853273 239.688 0.00853273C240.417 -0.0344104 241.155 0.111596 241.909 0.163128C243.393 0.429376 244.928 0.798687 246.378 1.50295C246.755 1.65755 247.115 1.82932 247.467 2.03545C247.819 2.23299 248.188 2.42194 248.539 2.63665C249.217 3.10903 249.937 3.54705 250.572 4.1139C251.249 4.62922 251.841 5.25619 252.467 5.86598C253.033 6.5273 253.642 7.18004 254.131 7.92725C256.241 10.813 257.587 14.5233 257.57 18.4655L257.304 18.3023C260.889 16.5073 265.323 16.1637 269.5 17.3404C273.66 18.4999 277.699 21.1881 280.058 25.2591C282.451 29.3215 282.691 34.5778 281.027 39.1985C280.204 41.5174 278.917 43.7161 277.219 45.5712C275.521 47.435 273.385 48.9551 270.958 49.8569L271.095 49.6079C271.756 53.1636 271.301 56.9683 269.852 60.421C268.411 63.865 265.958 66.9913 262.699 69.0525C257.064 72.634 249.74 72.9174 244.045 70.1261L244.311 70.0746C240.194 74.8499 234.551 78.1049 228.642 79.0755C222.732 80.1061 216.695 78.5945 212.115 75.4167C209.825 73.8278 207.878 71.8267 206.454 69.5507C205.039 67.2747 204.147 64.741 203.804 62.2074C203.427 59.6738 203.598 57.1401 204.173 54.7782C204.765 52.4249 205.828 50.2606 207.217 48.4398L207.243 48.6717C204.456 46.2239 202.56 43.1235 201.437 39.9886C200.862 38.4255 200.528 36.8194 200.356 35.2563C200.193 33.6931 200.202 32.1558 200.433 30.6957C200.845 27.7756 202.072 25.1818 203.753 23.2923C205.399 21.3685 207.277 19.9685 209.079 18.9551C210.888 17.9416 212.638 17.306 214.182 16.9024C215.734 16.5159 217.089 16.3871 218.178 16.3699C219.267 16.3785 220.108 16.4472 220.657 16.5674C221.214 16.6705 221.489 16.7306 221.489 16.7306C221.489 16.7306 221.206 16.7048 220.648 16.6189C220.099 16.5159 219.267 16.4643 218.178 16.4729C217.098 16.5073 215.751 16.6447 214.216 17.0484C212.689 17.4606 210.957 18.1048 209.173 19.1268C207.398 20.1489 205.545 21.5402 203.933 23.4469C202.286 25.3192 201.102 27.8615 200.708 30.7387C200.476 32.173 200.485 33.6846 200.648 35.2305C200.819 36.7679 201.154 38.3396 201.728 39.8855C202.852 42.9603 204.73 46.0178 207.475 48.4141L207.595 48.5171L207.5 48.6459C206.145 50.4324 205.108 52.5538 204.542 54.8641C203.984 57.1745 203.821 59.6652 204.199 62.1473C204.542 64.6294 205.416 67.1115 206.806 69.336C208.204 71.5604 210.108 73.5272 212.363 75.0818C216.866 78.1994 222.784 79.6767 228.582 78.6546C234.379 77.7013 239.937 74.4806 243.985 69.7912L244.096 69.6623L244.251 69.7396C249.808 72.4622 256.978 72.1788 262.476 68.6918C265.649 66.6907 268.042 63.6331 269.457 60.2664C270.872 56.8996 271.318 53.1722 270.675 49.7109L270.641 49.5306L270.812 49.4619C275.555 47.7012 279.037 43.5872 280.632 39.0696C282.271 34.552 282.039 29.4246 279.715 25.4824C277.425 21.5145 273.48 18.8778 269.406 17.7355C265.315 16.5674 260.984 16.9024 257.476 18.6459L257.21 18.7747V18.4741C257.236 14.6264 255.932 10.9762 253.865 8.13338C253.385 7.39476 252.785 6.7592 252.227 6.09787C251.61 5.49667 251.035 4.87829 250.366 4.37156C249.74 3.8133 249.037 3.37528 248.368 2.91149C248.025 2.69677 247.664 2.51641 247.313 2.31029C246.97 2.10416 246.609 1.93239 246.241 1.77779C244.817 1.08211 243.307 0.7128 241.858 0.446553C241.12 0.386432 240.4 0.240426 239.68 0.283369C239.319 0.283369 238.968 0.283369 238.608 0.291958C238.256 0.326312 237.913 0.369255 237.561 0.40361C234.8 0.729978 232.355 1.72626 230.357 2.97161C228.359 4.22555 226.746 5.69421 225.545 7.18004C224.353 8.67446 223.479 10.1259 222.904 11.44C221.712 14.0681 221.643 16.0006 221.497 16.7306L221.48 16.7134C221.54 16.722 221.617 16.6619 221.643 16.722C221.592 16.7306 221.54 16.7392 221.497 16.7392C221.454 16.7478 221.42 16.7478 221.386 16.7564L221.343 16.765H221.334C221.334 16.7564 221.334 16.7821 221.326 16.7478H221.334H221.352C221.454 16.7306 221.489 16.7306 221.489 16.7306Z" fill="#263238"/>
<path d="M235.889 54.6321C237.69 55.6284 239.757 56.0922 241.772 55.8173C244.148 55.491 246.378 54.0996 247.879 52.0126C249.303 50.0286 249.886 47.6324 249.474 45.4337C249.062 43.2178 247.647 41.1909 245.589 39.8854C243.951 38.8376 242.055 38.3395 240.211 38.4254L240.366 30.6698C240.383 29.914 239.783 29.2871 239.019 29.2699C238.265 29.2527 237.639 29.8539 237.621 30.6183L237.433 39.9885C237.424 40.4179 237.613 40.8302 237.956 41.0964C238.29 41.3627 238.736 41.4572 239.148 41.3455C240.778 40.9161 242.587 41.2339 244.122 42.2044C245.537 43.1062 246.507 44.4632 246.781 45.9318C247.056 47.4005 246.644 49.0237 245.658 50.3979C244.594 51.8838 243.042 52.8629 241.404 53.0862C238.145 53.5414 234.56 51.1194 233.582 47.8042C233.367 47.0741 232.604 46.6619 231.875 46.8766C231.146 47.0913 230.734 47.8557 230.949 48.5857C231.712 51.1881 233.582 53.3524 235.889 54.6321Z" fill="#E8505B"/>
<path d="M240.889 25.0358C240.932 24.1855 240.272 23.4641 239.423 23.4297C238.574 23.3868 237.853 24.0481 237.819 24.8984C237.776 25.7486 238.436 26.4701 239.285 26.5044C240.135 26.5388 240.855 25.8861 240.889 25.0358Z" fill="#E8505B"/>
<path d="M189.953 59.6994C186.059 59.2614 182.114 62.4134 181.677 66.3213C181.239 70.2291 184.378 74.1713 188.272 74.6179C192.166 75.0645 196.119 71.9211 196.565 68.0218C197.011 64.1226 193.881 60.1632 189.987 59.708" fill="#FAFAFA"/>
<path d="M189.996 59.7081C189.996 59.7081 190.673 59.6823 191.797 60.0946C192.903 60.5068 194.464 61.4774 195.613 63.3153C196.179 64.2257 196.642 65.3508 196.763 66.6219C196.883 67.8931 196.66 69.3016 195.965 70.5641C195.639 71.1997 195.202 71.8095 194.678 72.342C194.164 72.8916 193.563 73.3726 192.886 73.7677C191.557 74.575 189.91 75.0044 188.246 74.8327C186.591 74.6265 185.081 73.8364 183.966 72.7456C183.4 72.2131 182.92 71.6033 182.543 70.9506C182.157 70.3065 181.865 69.6194 181.694 68.9237C181.299 67.5323 181.402 66.1066 181.805 64.9042C182.217 63.6932 182.92 62.7055 183.675 61.9411C185.21 60.4124 186.951 59.8112 188.117 59.6652C189.309 59.5106 189.961 59.6909 189.961 59.6909C189.961 59.7424 189.301 59.6308 188.152 59.8369C187.02 60.0345 185.356 60.6614 183.906 62.1644C183.194 62.9116 182.543 63.8736 182.165 65.0245C181.805 66.1753 181.719 67.5152 182.105 68.8206C182.277 69.4734 182.551 70.1261 182.929 70.7359C183.289 71.3457 183.743 71.9297 184.284 72.4279C185.347 73.4585 186.771 74.1885 188.315 74.3861C189.867 74.5407 191.419 74.1542 192.68 73.3898C193.323 73.0205 193.898 72.5653 194.387 72.05C194.884 71.5432 195.304 70.9764 195.622 70.3752C196.291 69.1814 196.505 67.8673 196.411 66.6649C196.308 65.4539 195.879 64.3717 195.356 63.4871C194.284 61.7007 192.8 60.713 191.745 60.2664C190.656 59.794 189.987 59.7596 189.996 59.7081Z" fill="#263238"/>
<path d="M175.355 76.0349C173.674 75.846 171.976 77.203 171.788 78.8864C171.599 80.5697 172.954 82.2703 174.635 82.4678C176.316 82.6568 178.023 81.3084 178.211 79.625C178.409 77.9416 177.054 76.2325 175.373 76.0349" fill="#FAFAFA"/>
<path d="M175.373 76.035C175.373 76.0178 175.673 75.9921 176.17 76.1552C176.659 76.3184 177.354 76.7393 177.877 77.5466C178.134 77.9503 178.34 78.4398 178.4 79.0153C178.46 79.5821 178.357 80.2177 178.057 80.7845C177.474 81.9096 176.136 82.8544 174.609 82.6998C173.091 82.5023 171.993 81.2827 171.685 80.0545C171.513 79.4361 171.565 78.792 171.745 78.2595C171.933 77.7184 172.251 77.2804 172.585 76.954C173.271 76.2841 174.043 76.035 174.558 75.9835C175.081 75.9319 175.364 76.0264 175.355 76.0436C175.355 76.0865 175.064 76.0522 174.584 76.1552C174.103 76.2497 173.409 76.5331 172.808 77.1687C172.208 77.7871 171.745 78.8435 172.079 79.9428C172.371 81.0164 173.366 82.09 174.661 82.2446C175.956 82.382 177.165 81.5661 177.697 80.5784C178.271 79.5735 178.057 78.4398 177.611 77.7098C177.165 76.954 176.556 76.5246 176.11 76.3184C175.647 76.1123 175.364 76.078 175.373 76.035Z" fill="#263238"/>
</svg>
