<svg width="450" height="439" viewBox="0 0 450 439" fill="none" xmlns="http://www.w3.org/2000/svg">
<g clip-path="url(#clip0)">
<path d="M29.0499 212.88C29.0499 212.88 19.4599 214.56 25.6099 235.48C31.7599 256.4 36.7299 267.12 36.7299 267.12C36.7299 267.12 37.6199 271.88 33.7599 271.86C29.8999 271.85 21.9299 268.99 19.4099 273.24C16.7999 277.65 19.3899 282.76 25.6299 287.99C31.8699 293.22 45.1099 305.18 46.2999 306.26C47.4699 307.33 48.4099 309.64 45.7799 310.05C43.1499 310.46 24.3099 308.92 24.1099 317.9C23.9099 326.88 43.6799 338.6 45.8099 339.92C47.9499 341.24 48.3099 342.32 47.8899 343.55C47.4599 344.78 41.1799 343.66 35.8099 343.44C30.4299 343.22 24.1599 343.91 24.4799 349.1C24.7999 354.29 35.4099 367.07 65.3699 375.8L79.5199 378.94L89.5299 368.37C109.57 344.45 111.27 327.93 108.65 323.44C106.03 318.95 100.43 321.87 96.0899 325.04C91.7399 328.21 87.1399 332.64 86.1099 331.85C85.0699 331.07 84.7799 329.96 85.8199 327.68C86.8599 325.39 96.7699 304.66 91.6099 297.31C86.4499 289.96 71.6499 301.72 69.2399 302.84C66.8199 303.96 66.3199 301.52 66.6999 299.98C67.0899 298.41 71.4399 281.11 73.7099 273.3C75.9799 265.49 75.2999 259.79 70.6699 257.58C66.2099 255.45 61.1799 262.25 57.9799 264.41C54.7799 266.57 52.8799 262.12 52.8799 262.12C52.8799 262.12 51.0499 250.45 44.5199 229.64C37.9899 208.83 28.8799 212.92 28.8799 212.92" fill="#EBEBEB"/>
<path d="M79.6203 382.44C74.8903 367.14 66.9303 339.81 59.9703 316.38C53.0203 292.96 46.7003 271.75 42.0503 256.43C39.7203 248.78 37.8303 242.59 36.5203 238.29C35.8703 236.16 35.3703 234.5 35.0203 233.36C34.8603 232.81 34.7303 232.38 34.6403 232.07C34.5603 231.78 34.5303 231.63 34.5303 231.63C34.5303 231.63 34.5903 231.77 34.6903 232.06C34.7903 232.36 34.9303 232.79 35.1103 233.33C35.4803 234.47 36.0103 236.12 36.6903 238.24C38.0603 242.5 40.0003 248.69 42.3603 256.34C47.0903 271.64 53.4603 292.83 60.4103 316.25C67.3603 339.68 75.2703 367.03 79.9303 382.35" fill="#E0E0E0"/>
<path d="M30.3899 277.69C30.4099 277.66 30.7399 277.83 31.3299 278.15C31.9199 278.47 32.7599 278.96 33.7999 279.57C35.8699 280.8 38.6799 282.58 41.7499 284.59C44.7699 286.59 47.4999 288.4 49.5899 289.78C50.5299 290.4 51.3299 290.92 51.9699 291.34C52.5299 291.7 52.8399 291.92 52.8199 291.95C52.7999 291.98 52.4699 291.81 51.8799 291.49C51.2899 291.17 50.4499 290.68 49.4199 290.05C47.3599 288.8 44.5699 286.98 41.5099 284.97C38.4799 282.99 35.7399 281.21 33.6399 279.84C32.6899 279.23 31.8899 278.71 31.2499 278.3C30.6799 277.93 30.3799 277.72 30.3899 277.69Z" fill="#E0E0E0"/>
<path d="M53.9694 291.22C53.8594 291.16 57.2694 285.2 61.5694 277.91C65.8794 270.62 69.4594 264.76 69.5594 264.83C69.6694 264.89 66.2594 270.85 61.9594 278.14C57.6594 285.43 54.0794 291.29 53.9694 291.22Z" fill="#E0E0E0"/>
<path d="M63.0303 327.68C63.0103 327.66 63.2803 327.38 63.7703 326.91C64.3403 326.38 65.0503 325.71 65.8903 324.92C67.6803 323.24 70.1403 320.9 72.7503 318.23C75.3803 315.56 77.6703 313.06 79.3103 311.24C80.0903 310.38 80.7403 309.66 81.2603 309.08C81.7203 308.57 81.9903 308.3 82.0103 308.32C82.0303 308.34 81.8103 308.65 81.3903 309.19C80.9703 309.73 80.3403 310.51 79.5503 311.44C77.9603 313.32 75.7003 315.86 73.0703 318.54C70.4403 321.22 67.9403 323.53 66.1003 325.15C65.1703 325.96 64.4203 326.6 63.8803 327.04C63.3503 327.48 63.0503 327.71 63.0303 327.68Z" fill="#E0E0E0"/>
<path d="M39.01 320.14C39.02 320.11 39.36 320.18 39.98 320.34C40.69 320.53 41.55 320.77 42.57 321.04C44.76 321.65 47.77 322.53 51.08 323.53C54.4 324.53 57.39 325.45 59.56 326.14C60.57 326.47 61.42 326.75 62.11 326.98C62.71 327.19 63.04 327.32 63.03 327.35C63.02 327.38 62.68 327.31 62.06 327.15C61.35 326.96 60.49 326.72 59.47 326.45C57.28 325.84 54.27 324.96 50.96 323.96C47.64 322.96 44.65 322.04 42.49 321.35C41.48 321.02 40.63 320.74 39.94 320.51C39.33 320.29 39 320.17 39.01 320.14Z" fill="#E0E0E0"/>
<path d="M42.9103 353.34C42.9203 353.31 43.3603 353.41 44.1503 353.61C45.0203 353.84 46.1403 354.14 47.4803 354.5C50.2903 355.27 54.1503 356.37 58.4103 357.6C62.6703 358.84 66.5303 359.98 69.3103 360.83C70.6403 361.24 71.7403 361.59 72.6003 361.86C73.3703 362.11 73.8003 362.27 73.7903 362.3C73.7803 362.33 73.3403 362.23 72.5503 362.03C71.6803 361.8 70.5603 361.5 69.2203 361.14C66.4103 360.37 62.5503 359.28 58.2803 358.04C54.0203 356.8 50.1603 355.66 47.3803 354.81C46.0503 354.4 44.9503 354.05 44.0903 353.78C43.3303 353.52 42.9003 353.37 42.9103 353.34Z" fill="#E0E0E0"/>
<path d="M73.1102 361.86C73.0902 361.84 73.4202 361.48 74.0302 360.86C74.7002 360.18 75.5702 359.3 76.6302 358.24C78.8202 356.03 81.8302 352.96 85.0602 349.47C88.3002 345.99 91.1402 342.77 93.1902 340.42C94.1702 339.29 94.9902 338.36 95.6102 337.64C96.1902 336.99 96.5102 336.63 96.5402 336.65C96.5602 336.67 96.2802 337.06 95.7502 337.75C95.2202 338.44 94.4302 339.42 93.4302 340.63C91.4502 343.03 88.6302 346.3 85.3902 349.78C82.1502 353.27 79.1002 356.31 76.8502 358.47C75.7202 359.55 74.8002 360.41 74.1502 360.99C73.5002 361.57 73.1302 361.89 73.1102 361.86Z" fill="#E0E0E0"/>
<path d="M92.9281 160.495C108.213 145.21 108.213 120.428 92.9281 105.143C77.6431 89.8578 52.8613 89.8578 37.5763 105.143C22.2913 120.428 22.2913 145.21 37.5763 160.495C52.8613 175.78 77.6431 175.78 92.9281 160.495Z" fill="#C8C7C7"/>
<path d="M44.86 125.13C44.83 125.07 45.93 124.42 47.74 123.43C49.55 122.44 52.07 121.1 54.86 119.65C54.99 119.59 55.11 119.52 55.23 119.46L55.25 119.93C52.44 118.72 49.93 117.6 48.13 116.77C46.33 115.94 45.23 115.4 45.26 115.33C45.29 115.27 46.43 115.69 48.27 116.43C50.11 117.17 52.64 118.24 55.45 119.44C55.58 119.5 55.64 119.65 55.59 119.78C55.57 119.84 55.52 119.88 55.47 119.91C55.35 119.97 55.23 120.03 55.1 120.1C52.3 121.55 49.76 122.84 47.91 123.74C46.06 124.66 44.89 125.19 44.86 125.13Z" fill="#E0E0E0"/>
<path d="M83.9394 123.99C83.9094 124.05 82.7994 123.59 81.0394 122.78C79.2694 121.97 76.8494 120.82 74.1794 119.53C74.0494 119.47 73.9994 119.31 74.0594 119.18C74.0894 119.12 74.1394 119.08 74.1894 119.06C74.2294 119.04 74.2694 119.03 74.3094 119.01C77.0594 117.8 79.5594 116.74 81.3694 115.99C83.1894 115.24 84.3294 114.81 84.3594 114.88C84.3894 114.95 83.2994 115.49 81.5194 116.33C79.7394 117.16 77.2594 118.28 74.5194 119.49C74.4794 119.51 74.4394 119.53 74.3994 119.54L74.4094 119.07C77.0794 120.37 79.4794 121.57 81.1994 122.46C82.9194 123.35 83.9694 123.93 83.9394 123.99Z" fill="#E0E0E0"/>
<path d="M38.9697 133.35L90.7597 133.15C90.7597 133.15 87.3597 157.04 65.7497 157.48C44.1297 157.92 38.9697 133.35 38.9697 133.35Z" fill="#E0E0E0"/>
<path d="M84.9994 146.94C80.4494 140.91 72.6394 137.87 65.0894 138.06C57.5394 138.25 50.2894 141.38 44.1494 145.76C44.1494 145.76 50.9494 157.77 65.7494 157.47C80.5494 157.18 84.9994 146.94 84.9994 146.94Z" fill="#F5F5F5"/>
<path d="M40.19 158.42C40.18 158.43 40.03 158.32 39.76 158.08C39.49 157.84 39.08 157.5 38.6 157.01C37.61 156.06 36.27 154.58 34.83 152.58C31.95 148.63 28.87 142.27 28.23 134.72C27.6 127.17 29.58 120.38 31.76 116.01C32.85 113.8 33.92 112.12 34.74 111.01C35.13 110.44 35.49 110.04 35.71 109.76C35.94 109.48 36.07 109.34 36.08 109.35C36.12 109.38 35.67 109.99 34.91 111.12C34.15 112.25 33.13 113.95 32.1 116.16C30.02 120.54 28.13 127.23 28.75 134.67C29.38 142.11 32.35 148.39 35.13 152.36C36.51 154.37 37.8 155.87 38.74 156.86C39.67 157.86 40.22 158.39 40.19 158.42Z" fill="white"/>
<path d="M43.1797 103.82C43.2197 103.97 42.2097 104.36 41.1697 105.16C40.1197 105.95 39.4797 106.83 39.3497 106.75C39.2297 106.69 39.7197 105.61 40.8497 104.75C41.9897 103.88 43.1497 103.69 43.1797 103.82Z" fill="white"/>
<path d="M95.6994 151.87C95.5494 151.77 98.2194 148.83 99.6194 144.26C101.079 139.71 100.569 135.77 100.749 135.77C100.809 135.76 101.009 136.72 101.029 138.31C101.059 139.89 100.829 142.1 100.109 144.41C99.3794 146.72 98.2994 148.66 97.3794 149.94C96.4594 151.23 95.7394 151.91 95.6994 151.87Z" fill="white"/>
<path d="M421.438 190.246C430.717 180.967 430.717 165.923 421.438 156.644C412.159 147.365 397.116 147.365 387.837 156.644C378.558 165.923 378.558 180.967 387.837 190.246C397.116 199.524 412.159 199.524 421.438 190.246Z" fill="#D7D7D7"/>
<path d="M392.26 168.77C392.19 168.64 394.89 167.11 398.29 165.35C398.37 165.31 398.44 165.27 398.51 165.23L398.53 165.7C395.12 164.22 392.45 162.94 392.51 162.82C392.57 162.69 395.33 163.76 398.74 165.23C398.87 165.29 398.93 165.44 398.88 165.57C398.86 165.63 398.81 165.67 398.76 165.7C398.69 165.74 398.61 165.78 398.54 165.82C395.13 167.58 392.33 168.9 392.26 168.77Z" fill="#E0E0E0"/>
<path d="M415.99 168.08C415.93 168.21 413.26 167.04 410.02 165.46C409.89 165.4 409.84 165.24 409.9 165.11C409.93 165.05 409.98 165.01 410.03 164.99L410.1 164.96C413.44 163.5 416.19 162.42 416.24 162.55C416.3 162.68 413.64 163.98 410.31 165.44L410.24 165.47L410.25 165C413.49 166.58 416.05 167.96 415.99 168.08Z" fill="#E0E0E0"/>
<path d="M388.69 173.76L420.14 173.64C420.14 173.64 418.08 188.15 404.95 188.42C391.82 188.68 388.69 173.76 388.69 173.76Z" fill="#E0E0E0"/>
<path d="M416.64 182.02C413.88 178.36 409.13 176.51 404.55 176.63C399.97 176.75 395.56 178.64 391.83 181.31C391.83 181.31 395.96 188.61 404.95 188.42C413.93 188.23 416.64 182.02 416.64 182.02Z" fill="#F5F5F5"/>
<path d="M389.431 188.99C389.411 189.01 389.041 188.73 388.431 188.16C387.821 187.59 386.991 186.69 386.111 185.48C384.341 183.08 382.451 179.21 382.061 174.6C381.671 169.99 382.901 165.86 384.241 163.2C384.911 161.86 385.581 160.84 386.081 160.17C386.581 159.5 386.901 159.17 386.931 159.18C387.021 159.24 385.811 160.66 384.581 163.35C383.341 166.01 382.211 170.06 382.581 174.55C382.961 179.04 384.751 182.85 386.411 185.26C388.081 187.72 389.501 188.92 389.431 188.99Z" fill="white"/>
<path d="M391.24 155.84C391.28 155.98 390.69 156.26 390.08 156.74C389.46 157.21 389.04 157.7 388.91 157.62C388.79 157.56 389.05 156.86 389.76 156.32C390.47 155.78 391.21 155.7 391.24 155.84Z" fill="white"/>
<path d="M423.131 185.01C423.001 184.91 424.571 183.11 425.411 180.36C426.291 177.62 426.031 175.24 426.191 175.24C426.311 175.19 426.821 177.65 425.901 180.52C425.031 183.39 423.201 185.11 423.131 185.01Z" fill="white"/>
<path d="M140.09 82C129.21 82 120.36 73.15 120.36 62.27C120.36 51.39 129.21 42.54 140.09 42.54C150.97 42.54 159.82 51.39 159.82 62.27C159.82 73.15 150.97 82 140.09 82ZM140.09 43.54C129.76 43.54 121.36 51.94 121.36 62.27C121.36 72.6 129.76 81 140.09 81C150.42 81 158.82 72.6 158.82 62.27C158.82 51.94 150.42 43.54 140.09 43.54Z" fill="#E0E0E0"/>
<path d="M148.261 56.43C144.671 51.26 140.081 55.77 140.081 55.77C140.081 55.77 135.501 51.27 131.901 56.43C128.111 61.88 135.291 68.33 140.081 70.59C144.871 68.33 152.051 61.88 148.261 56.43Z" fill="#E0E0E0"/>
<path d="M440.53 389.77C440.53 389.91 341.91 390.03 220.27 390.03C98.6 390.03 0 389.91 0 389.77C0 389.63 98.6 389.51 220.28 389.51C341.91 389.51 440.53 389.62 440.53 389.77Z" fill="#263238"/>
<path d="M400.68 361.06C400.67 361.05 400.74 360.89 400.88 360.57C401.04 360.22 401.26 359.76 401.54 359.16C402.1 357.92 402.83 356.03 403.48 353.53C404.76 348.52 405.21 340.87 403.31 331.78C402.43 327.23 401.01 322.35 399.28 317.17C397.57 311.99 395.59 306.48 393.97 300.54C392.37 294.61 391.1 288.17 391.35 281.42C391.6 274.66 393.6 267.9 395.8 261.18C398 254.45 400.27 247.87 400.95 241.25C401.72 234.64 400.31 228.16 397.3 222.84C394.39 217.47 390.72 212.88 387.97 208.12C385.18 203.38 383.44 198.5 382.36 193.97C380.28 184.83 381.01 177.12 382 172.04C383.08 166.94 384.29 164.3 384.29 164.3C384.3 164.3 384.26 164.48 384.15 164.81C384.04 165.18 383.88 165.67 383.69 166.29C383.29 167.59 382.76 169.54 382.27 172.09C381.36 177.16 380.71 184.81 382.84 193.85C383.94 198.33 385.69 203.15 388.46 207.82C391.2 212.52 394.88 217.09 397.85 222.53C400.92 227.9 402.4 234.6 401.62 241.31C400.93 248.04 398.64 254.66 396.45 261.39C394.25 268.1 392.27 274.79 392.02 281.44C391.77 288.09 393 294.46 394.58 300.37C396.17 306.29 398.13 311.79 399.82 316.99C401.53 322.18 402.93 327.1 403.79 331.68C405.64 340.84 405.11 348.57 403.73 353.59C403.03 356.11 402.26 357.98 401.66 359.21C401.35 359.79 401.11 360.25 400.94 360.59C400.78 360.91 400.69 361.07 400.68 361.06Z" fill="#263238"/>
<path d="M391.7 212.82C391.7 212.82 386.13 195 396.12 184.56C396.47 184.19 397.09 184.37 397.18 184.87C397.72 187.82 398.39 196.78 391.7 212.82Z" fill="#E8505B"/>
<path d="M395.04 190.5C395.13 190.52 394.98 191.77 394.66 193.79C394.29 196.05 393.86 198.71 393.39 201.65C392.92 204.59 392.5 207.25 392.14 209.51C391.83 211.52 391.65 212.77 391.55 212.76C391.46 212.75 391.47 211.48 391.65 209.45C391.83 207.41 392.19 204.61 392.7 201.54C393.2 198.47 393.74 195.7 394.18 193.7C394.62 191.71 394.95 190.49 395.04 190.5Z" fill="#263238"/>
<path d="M398.25 254.85C398.25 254.85 401.66 236.49 415.37 231.94C415.85 231.78 416.32 232.22 416.16 232.71C415.26 235.57 411.66 243.8 398.25 254.85Z" fill="#E8505B"/>
<path d="M411.64 236.69C411.71 236.75 410.99 237.78 409.77 239.42C408.39 241.25 406.76 243.4 404.97 245.77C403.18 248.15 401.57 250.3 400.19 252.13C398.98 253.77 398.23 254.78 398.15 254.73C398.07 254.68 398.67 253.57 399.79 251.85C400.91 250.14 402.53 247.83 404.42 245.35C406.3 242.87 408.07 240.67 409.39 239.11C410.7 237.55 411.56 236.63 411.64 236.69Z" fill="#263238"/>
<path d="M394.539 300.91C394.539 300.91 392.469 282.35 404.269 274.02C404.679 273.73 405.259 274.02 405.249 274.52C405.219 277.51 404.169 286.44 394.539 300.91Z" fill="#E8505B"/>
<path d="M402.079 279.64C402.169 279.68 401.769 280.88 401.079 282.8C400.289 284.95 399.359 287.48 398.329 290.27C397.309 293.06 396.389 295.59 395.609 297.75C394.929 299.67 394.51 300.86 394.41 300.83C394.32 300.81 394.57 299.56 395.14 297.6C395.71 295.64 396.6 292.96 397.68 290.03C398.76 287.11 399.82 284.49 400.62 282.62C401.43 280.74 401.989 279.6 402.079 279.64Z" fill="#263238"/>
<path d="M404.88 347.24C404.88 347.24 403.48 328.62 415.57 320.71C415.99 320.43 416.56 320.74 416.53 321.25C416.38 324.24 415.01 333.12 404.88 347.24Z" fill="#E8505B"/>
<path d="M413.17 326.25C413.26 326.29 412.82 327.48 412.06 329.37C411.19 331.49 410.17 333.99 409.05 336.74C407.93 339.5 406.92 341.99 406.06 344.12C405.31 346.01 404.85 347.19 404.75 347.16C404.66 347.13 404.96 345.9 405.6 343.96C406.24 342.02 407.22 339.37 408.41 336.49C409.59 333.61 410.74 331.03 411.62 329.19C412.48 327.33 413.08 326.21 413.17 326.25Z" fill="#263238"/>
<path d="M383.69 197.16C383.69 197.16 367.14 188.52 366.81 174.07C366.8 173.56 367.36 173.25 367.77 173.54C370.24 175.24 377.06 181.1 383.69 197.16Z" fill="#E8505B"/>
<path d="M370.25 179.04C370.33 178.99 371.11 179.98 372.31 181.63C373.65 183.49 375.23 185.67 376.98 188.08C378.73 190.49 380.31 192.66 381.66 194.52C382.87 196.16 383.62 197.17 383.55 197.24C383.48 197.3 382.59 196.4 381.28 194.83C379.97 193.26 378.24 191.03 376.42 188.5C374.6 185.97 373.02 183.64 371.91 181.92C370.81 180.19 370.17 179.09 370.25 179.04Z" fill="#263238"/>
<path d="M401.47 235.44C401.47 235.44 384.42 227.82 383.22 213.42C383.18 212.91 383.72 212.57 384.15 212.83C386.71 214.37 393.87 219.81 401.47 235.44Z" fill="#E8505B"/>
<path d="M386.95 218.16C387.03 218.1 387.86 219.05 389.17 220.62C390.62 222.39 392.33 224.48 394.22 226.78C396.11 229.07 397.83 231.15 399.28 232.92C400.59 234.48 401.4 235.44 401.33 235.52C401.27 235.58 400.32 234.74 398.91 233.25C397.51 231.76 395.64 229.64 393.67 227.23C391.7 224.82 389.98 222.58 388.77 220.93C387.57 219.27 386.87 218.22 386.95 218.16Z" fill="#263238"/>
<path d="M391.66 278.13C391.66 278.13 379.96 263.58 385.45 250.21C385.64 249.74 386.28 249.68 386.55 250.11C388.12 252.65 392.01 260.75 391.66 278.13Z" fill="#E8505B"/>
<path d="M386.61 256.14C386.71 256.12 387.01 257.35 387.46 259.34C387.95 261.58 388.52 264.21 389.15 267.12C389.79 270.02 390.37 272.65 390.86 274.89C391.31 276.88 391.6 278.1 391.5 278.13C391.41 278.16 390.96 276.97 390.38 275.01C389.81 273.05 389.12 270.31 388.46 267.26C387.8 264.21 387.29 261.44 386.97 259.43C386.65 257.41 386.51 256.15 386.61 256.14Z" fill="#263238"/>
<path d="M403.25 328.37C403.25 328.37 386.33 320.46 385.38 306.04C385.35 305.53 385.89 305.19 386.32 305.46C388.85 307.06 395.92 312.61 403.25 328.37Z" fill="#E8505B"/>
<path d="M389.03 310.85C389.11 310.79 389.93 311.76 391.2 313.34C392.62 315.14 394.3 317.25 396.15 319.58C398 321.91 399.68 324.01 401.11 325.8C402.39 327.38 403.19 328.36 403.11 328.43C403.04 328.49 402.11 327.63 400.73 326.12C399.35 324.61 397.53 322.46 395.6 320.01C393.67 317.56 391.99 315.3 390.81 313.63C389.63 311.97 388.95 310.91 389.03 310.85Z" fill="#263238"/>
<path d="M436.94 254.95C436.96 254.95 436.96 255.09 436.96 255.36C436.95 255.69 436.94 256.08 436.93 256.55C436.88 257.67 436.81 259.19 436.73 261.08C436.51 265.06 436.21 270.61 435.84 277.25V277.27V277.29C434.63 284.05 431.19 291.54 426.57 298.81C423.18 304.17 419.63 309.04 416.56 313.56C413.47 318.08 410.87 322.26 409.06 325.97C407.23 329.67 406.17 332.85 405.55 335.07C405.25 336.19 405.03 337.06 404.9 337.65C404.76 338.24 404.68 338.55 404.65 338.55C404.63 338.55 404.66 338.23 404.76 337.62C404.84 337.01 405.03 336.13 405.28 335C405.82 332.74 406.82 329.51 408.61 325.75C410.38 321.98 412.96 317.74 416.03 313.2C419.07 308.64 422.61 303.76 425.98 298.43C430.58 291.19 434 283.82 435.25 277.17V277.21C435.72 270.58 436.11 265.03 436.39 261.06C436.54 259.17 436.66 257.66 436.76 256.54C436.81 256.07 436.85 255.68 436.88 255.35C436.9 255.09 436.93 254.95 436.94 254.95Z" fill="#263238"/>
<path d="M426.87 297.42C426.87 297.42 434.03 280.18 425.02 268.88C424.7 268.48 424.07 268.6 423.94 269.09C423.14 271.97 421.67 280.84 426.87 297.42Z" fill="#E8505B"/>
<path d="M425.57 274.89C425.67 274.88 425.88 276.13 426.14 278.15C426.39 280.18 426.68 282.98 426.9 286.09C427.12 289.2 427.23 292.02 427.23 294.07C427.23 296.12 427.12 297.38 427.03 297.38C426.93 297.38 426.86 296.12 426.74 294.09C426.59 291.8 426.41 289.12 426.21 286.15C426 283.18 425.82 280.5 425.66 278.21C425.52 276.17 425.47 274.9 425.57 274.89Z" fill="#263238"/>
<g opacity="0.3">
<g opacity="0.3">
<g opacity="0.3">
<g opacity="0.3">
<g opacity="0.3">
<g opacity="0.3">
<path opacity="0.3" d="M426.87 297.42C426.87 297.42 434.03 280.18 425.02 268.88C424.7 268.48 424.07 268.6 423.94 269.09C423.14 271.97 421.67 280.84 426.87 297.42Z" fill="black"/>
</g>
</g>
</g>
</g>
</g>
</g>
<path d="M404.68 338.98C404.68 338.98 410.42 321.21 400.52 310.68C400.17 310.31 399.55 310.48 399.46 310.98C398.9 313.91 398.15 322.87 404.68 338.98Z" fill="#E8505B"/>
<path d="M401.56 316.63C401.65 316.61 401.97 317.84 402.39 319.84C402.81 321.84 403.32 324.61 403.79 327.69C404.27 330.77 404.6 333.57 404.76 335.61C404.92 337.65 404.92 338.92 404.83 338.92C404.73 338.93 404.56 337.68 404.27 335.66C403.93 333.39 403.54 330.73 403.1 327.79C402.65 324.85 402.25 322.19 401.9 319.92C401.61 317.9 401.46 316.64 401.56 316.63Z" fill="#263238"/>
<g opacity="0.3">
<g opacity="0.3">
<g opacity="0.3">
<g opacity="0.3">
<g opacity="0.3">
<g opacity="0.3">
<path opacity="0.3" d="M404.68 338.98C404.68 338.98 410.42 321.21 400.52 310.68C400.17 310.31 399.55 310.48 399.46 310.98C398.9 313.91 398.15 322.87 404.68 338.98Z" fill="black"/>
</g>
</g>
</g>
</g>
</g>
</g>
<path d="M436 276.35C436 276.35 451.3 265.64 449.75 251.27C449.7 250.77 449.1 250.53 448.72 250.87C446.5 252.87 440.5 259.56 436 276.35Z" fill="#E8505B"/>
<g opacity="0.3">
<g opacity="0.3">
<g opacity="0.3">
<g opacity="0.3">
<g opacity="0.3">
<g opacity="0.3">
<path opacity="0.3" d="M436 276.35C436 276.35 451.3 265.64 449.75 251.27C449.7 250.77 449.1 250.53 448.72 250.87C446.5 252.87 440.5 259.56 436 276.35Z" fill="black"/>
</g>
</g>
</g>
</g>
</g>
</g>
<path d="M446.98 256.64C447.07 256.68 446.58 257.85 445.71 259.7C444.84 261.55 443.57 264.07 442.09 266.81C440.61 269.55 439.19 271.99 438.09 273.72C436.99 275.44 436.22 276.45 436.15 276.4C436.06 276.34 436.68 275.24 437.67 273.46C438.77 271.45 440.06 269.08 441.48 266.47C442.9 263.85 444.18 261.49 445.27 259.47C446.26 257.68 446.9 256.59 446.98 256.64Z" fill="#263238"/>
<path d="M410.85 321.36C410.85 321.36 429.3 318.48 434.24 304.9C434.41 304.42 433.98 303.95 433.5 304.08C430.63 304.91 422.29 308.27 410.85 321.36Z" fill="#E8505B"/>
<g opacity="0.3">
<g opacity="0.3">
<g opacity="0.3">
<g opacity="0.3">
<g opacity="0.3">
<g opacity="0.3">
<path opacity="0.3" d="M410.85 321.36C410.85 321.36 429.3 318.48 434.24 304.9C434.41 304.42 433.98 303.95 433.5 304.08C430.63 304.91 422.29 308.27 410.85 321.36Z" fill="black"/>
</g>
</g>
</g>
</g>
</g>
</g>
<path d="M429.399 308.5C429.459 308.58 428.51 309.41 426.91 310.69C425.31 311.96 423.069 313.67 420.529 315.48C417.989 317.29 415.639 318.85 413.899 319.92C412.149 320.98 411.019 321.55 410.969 321.47C410.919 321.38 411.96 320.67 413.63 319.5C415.5 318.18 417.7 316.62 420.13 314.91C422.55 313.19 424.749 311.63 426.619 310.3C428.279 309.12 429.339 308.43 429.399 308.5Z" fill="#263238"/>
<path d="M389.02 355.31L394.31 390.03L415.45 389.99L422.57 355.31H389.02Z" fill="#455A64"/>
<path d="M419.469 368.71C419.479 368.72 419.419 368.76 419.289 368.84C419.169 368.91 418.989 369.04 418.729 369.16C418.219 369.41 417.439 369.72 416.369 369.86C415.309 370 413.949 369.98 412.479 369.5C411.029 369.03 409.439 368.09 408.299 366.47C407.759 365.65 407.379 364.65 407.319 363.57C407.239 362.51 407.659 361.22 408.749 360.59C409.839 359.96 411.249 360.19 412.289 360.88C413.379 361.59 414.009 362.82 414.309 364.07C414.609 365.34 414.649 366.66 414.569 367.99C414.479 369.32 414.239 370.69 413.709 372C413.199 373.31 412.369 374.54 411.259 375.49C410.149 376.44 408.729 377.12 407.189 377.19C405.649 377.26 404.189 376.73 402.959 375.96C401.729 375.19 400.679 374.2 399.799 373.11C398.929 372.01 398.279 370.7 398.199 369.3C398.129 367.92 398.619 366.49 399.699 365.62C400.799 364.73 402.349 364.79 403.439 365.39C404.569 365.96 405.399 367.04 405.599 368.22C406.009 370.6 404.619 372.75 402.929 373.71C401.199 374.7 399.319 374.73 397.829 374.45C396.309 374.16 395.119 373.56 394.189 373.03C393.269 372.49 392.599 371.99 392.149 371.65C391.709 371.31 391.489 371.11 391.499 371.1C391.509 371.08 391.759 371.25 392.219 371.56C392.689 371.87 393.369 372.33 394.299 372.84C395.229 373.33 396.419 373.89 397.879 374.14C399.329 374.38 401.119 374.31 402.719 373.37C404.269 372.47 405.519 370.43 405.129 368.32C404.949 367.28 404.209 366.35 403.209 365.85C402.229 365.33 400.929 365.3 400.029 366.04C399.129 366.76 398.679 368.04 398.749 369.27C398.829 370.51 399.419 371.73 400.239 372.76C401.069 373.8 402.089 374.75 403.249 375.47C404.409 376.19 405.769 376.67 407.149 376.61C408.529 376.55 409.839 375.93 410.869 375.05C411.909 374.16 412.679 373.02 413.169 371.78C413.669 370.55 413.909 369.24 413.999 367.95C414.079 366.66 414.049 365.37 413.769 364.19C413.489 363.02 412.919 361.91 411.979 361.3C411.069 360.68 409.849 360.49 408.959 361C408.059 361.51 407.679 362.57 407.729 363.55C407.769 364.54 408.109 365.48 408.609 366.25C409.649 367.78 411.159 368.72 412.549 369.2C413.949 369.69 415.269 369.76 416.309 369.65C418.449 369.39 419.439 368.62 419.469 368.71Z" fill="#263238"/>
<path d="M104.19 370.6C93.3197 369.48 58.4797 368.74 47.7297 370.66C36.9797 372.58 24.6197 382.38 20.0197 391.12C14.8597 400.93 15.7297 419.71 23.9197 427.68C32.1097 435.66 46.8097 433.28 58.9197 434.98C71.0297 436.68 83.4097 436.06 95.6897 435.75C172.81 433.76 250.51 443.69 326.78 433.15C336.51 431.81 346.84 429.83 353.72 423.62C361.33 416.75 362.83 406.46 363.93 396.96C364.8 389.45 365.46 381.19 360.47 375.07C357.2 371.06 351.92 368.67 346.34 367.67C355.27 356.78 359.65 348.75 360.11 339.47C360.92 323.05 356.63 310.9 355.65 294.67C354.68 278.44 354.64 261.86 359.38 246.31C362.27 236.84 366.57 225.52 360.12 218.01C356.4 213.68 350.3 212.43 344.66 211.51C277.14 200.54 208.24 200.3 140.02 205.17C131.89 205.75 122.87 206.83 117.57 213.04C113.32 218.03 112.62 225.18 113.42 231.68C114.22 238.19 116.3 244.5 116.86 251.03C119.52 282.06 75.5197 335.09 104.19 370.6Z" fill="#E8505B"/>
<path opacity="0.5" d="M104.19 370.6C93.3197 369.48 58.4797 368.74 47.7297 370.66C36.9797 372.58 24.6197 382.38 20.0197 391.12C14.8597 400.93 15.7297 419.71 23.9197 427.68C32.1097 435.66 46.8097 433.28 58.9197 434.98C71.0297 436.68 83.4097 436.06 95.6897 435.75C172.81 433.76 250.51 443.69 326.78 433.15C336.51 431.81 346.84 429.83 353.72 423.62C361.33 416.75 362.83 406.46 363.93 396.96C364.8 389.45 365.46 381.19 360.47 375.07C357.2 371.06 351.92 368.67 346.34 367.67C355.27 356.78 359.65 348.75 360.11 339.47C360.92 323.05 356.63 310.9 355.65 294.67C354.68 278.44 354.64 261.86 359.38 246.31C362.27 236.84 366.57 225.52 360.12 218.01C356.4 213.68 350.3 212.43 344.66 211.51C277.14 200.54 208.24 200.3 140.02 205.17C131.89 205.75 122.87 206.83 117.57 213.04C113.32 218.03 112.62 225.18 113.42 231.68C114.22 238.19 116.3 244.5 116.86 251.03C119.52 282.06 75.5197 335.09 104.19 370.6Z" fill="#A53037"/>
<path d="M118.14 212.42C118.14 212.42 119.29 211.75 121.6 210.71C123.91 209.69 127.43 208.32 132.19 207.52C136.94 206.67 142.84 206.5 149.66 206.14C156.48 205.8 164.25 205.47 172.85 205.19C190.04 204.61 210.51 204.28 233.25 204.49C255.99 204.7 280.98 205.49 307.17 207.06C310.44 207.27 313.7 207.48 316.93 207.69C320.16 207.9 323.39 208.11 326.55 208.71C329.7 209.31 332.83 210.33 335.43 212.22C336.72 213.16 337.87 214.3 338.79 215.59C339.7 216.89 340.39 218.33 340.89 219.81C341.9 222.79 342.11 225.94 341.88 228.99C341.63 232.05 340.92 235 340.11 237.87C339.3 240.74 338.36 243.53 337.62 246.34C336.83 249.13 336.2 251.94 335.62 254.72C333.38 265.85 332.86 276.71 333.52 286.78C333.85 291.81 334.49 296.66 335.36 301.26C336.21 305.87 337.35 310.23 338.4 314.39C340.56 322.7 342.41 330.3 343 337.13C343.63 343.95 343.01 349.9 341.8 354.57C341.19 356.9 340.44 358.91 339.68 360.61C338.89 362.29 338.12 363.66 337.42 364.72C337.06 365.24 336.75 365.7 336.47 366.1C336.17 366.47 335.92 366.79 335.72 367.05C335.31 367.55 335.09 367.8 335.09 367.8C335.09 367.8 335.28 367.53 335.68 367.01C335.88 366.75 336.12 366.43 336.41 366.05C336.68 365.65 336.98 365.19 337.33 364.66C338.01 363.59 338.77 362.22 339.53 360.55C340.27 358.86 341 356.85 341.59 354.53C342.76 349.89 343.35 343.96 342.7 337.17C342.09 330.37 340.22 322.8 338.03 314.49C336.96 310.33 335.81 305.96 334.95 301.34C334.06 296.72 333.41 291.87 333.07 286.82C332.39 276.72 332.89 265.82 335.13 254.64C335.7 251.85 336.33 249.03 337.13 246.23C337.87 243.41 338.81 240.61 339.62 237.76C340.42 234.91 341.12 231.98 341.37 228.98C341.6 225.99 341.38 222.9 340.4 220C339.91 218.56 339.24 217.17 338.36 215.91C337.47 214.66 336.37 213.57 335.12 212.66C332.61 210.83 329.55 209.83 326.45 209.24C323.33 208.65 320.12 208.43 316.89 208.23C313.66 208.02 310.4 207.81 307.13 207.6C280.95 206.03 255.97 205.22 233.24 204.99C210.51 204.76 190.04 205.05 172.86 205.58C164.27 205.84 156.5 206.14 149.68 206.45C142.86 206.78 136.97 206.93 132.23 207.74C127.48 208.5 123.97 209.84 121.65 210.83C120.49 211.33 119.62 211.74 119.03 212.03C118.45 212.28 118.14 212.42 118.14 212.42Z" fill="#263238"/>
<path d="M364.51 403.14C364.51 403.14 364.22 403.23 363.64 403.38C363.05 403.53 362.19 403.76 361.06 404.04C358.78 404.62 355.44 405.46 351.14 406.55C348.98 407.09 346.59 407.69 343.96 408.35C341.33 408.97 338.45 409.56 335.37 410.24C329.19 411.54 322.19 413.21 314.36 414.54C310.45 415.25 306.35 416 302.09 416.78C299.96 417.2 297.76 417.48 295.54 417.83C293.31 418.16 291.04 418.51 288.73 418.85C286.42 419.2 284.07 419.55 281.68 419.91C280.49 420.08 279.28 420.28 278.07 420.44C276.85 420.58 275.63 420.73 274.39 420.88C269.45 421.46 264.36 422.07 259.14 422.68C238.23 424.8 215.16 426.33 190.9 426.6C166.63 426.73 143.53 425.59 122.58 423.81C117.35 423.28 112.25 422.76 107.3 422.26C106.06 422.13 104.83 422.01 103.61 421.89C102.39 421.75 101.19 421.57 99.9899 421.42C97.5999 421.1 95.2399 420.79 92.9199 420.48C90.5999 420.17 88.3299 419.87 86.0899 419.57C83.8599 419.26 81.6599 419.02 79.5199 418.63C75.2399 417.92 71.1299 417.24 67.2099 416.59C59.3499 415.39 52.3299 413.84 46.1299 412.64C43.0399 412.01 40.1499 411.47 37.5099 410.89C34.8799 410.28 32.4699 409.71 30.3099 409.21C25.9899 408.19 22.6399 407.4 20.3499 406.87C19.2199 406.6 18.3599 406.39 17.7599 406.25C17.1799 406.11 16.8799 406.02 16.8799 406.02C16.8799 406.02 17.1799 406.07 17.7699 406.2C18.3699 406.33 19.2399 406.52 20.3699 406.77C22.6699 407.29 26.0299 408.04 30.3499 409.02C32.5199 409.51 34.9299 410.06 37.5599 410.66C40.1999 411.22 43.0899 411.75 46.1899 412.36C52.3899 413.53 59.4199 415.06 67.2799 416.23C71.1999 416.87 75.3099 417.54 79.5899 418.24C81.7199 418.62 83.9299 418.86 86.1599 419.16C88.3899 419.45 90.6699 419.75 92.9899 420.06C95.3099 420.36 97.6599 420.67 100.05 420.99C101.25 421.14 102.45 421.32 103.67 421.45C104.89 421.57 106.12 421.69 107.36 421.82C112.31 422.32 117.41 422.83 122.63 423.35C143.56 425.1 166.65 426.23 190.9 426.1C215.14 425.83 238.2 424.32 259.1 422.23C264.32 421.62 269.4 421.03 274.34 420.45C275.58 420.31 276.8 420.16 278.02 420.02C279.24 419.86 280.44 419.67 281.63 419.5C284.02 419.15 286.37 418.8 288.68 418.46C290.99 418.12 293.26 417.78 295.49 417.45C297.72 417.11 299.91 416.83 302.04 416.42C306.31 415.65 310.4 414.91 314.31 414.21C322.15 412.91 329.15 411.27 335.33 409.99C338.41 409.33 341.3 408.75 343.93 408.15C346.55 407.51 348.95 406.92 351.11 406.39C355.42 405.34 358.77 404.53 361.06 403.98C362.19 403.71 363.05 403.51 363.65 403.37C364.2 403.2 364.51 403.14 364.51 403.14Z" fill="#263238"/>
<path d="M104.189 370.6C104.189 370.6 104.399 370.6 104.809 370.62C105.239 370.65 105.839 370.68 106.629 370.73C108.249 370.84 110.599 371 113.619 371.21C116.649 371.43 120.359 371.7 124.679 371.93C128.989 372.15 133.899 372.51 139.329 372.71C144.759 372.94 150.709 373.23 157.099 373.38C160.289 373.46 163.599 373.6 166.999 373.65C170.399 373.71 173.909 373.76 177.499 373.82C191.869 373.98 207.679 373.91 224.259 373.53C257.439 372.72 287.439 371.03 309.149 369.81C319.989 369.19 328.769 368.68 334.859 368.34C337.879 368.17 340.229 368.05 341.849 367.96C342.639 367.92 343.239 367.89 343.669 367.87C344.079 367.85 344.289 367.86 344.289 367.86C344.289 367.86 344.079 367.89 343.669 367.92C343.239 367.95 342.639 368 341.849 368.06C340.229 368.17 337.879 368.33 334.859 368.54C328.769 368.93 319.999 369.49 309.159 370.18C287.449 371.49 257.449 373.24 224.259 374.05C207.669 374.43 191.859 374.48 177.479 374.29C173.889 374.22 170.379 374.16 166.979 374.1C163.569 374.04 160.269 373.9 157.069 373.8C150.679 373.63 144.729 373.32 139.299 373.06C133.869 372.84 128.959 372.45 124.649 372.2C120.339 371.95 116.629 371.64 113.599 371.4C110.579 371.15 108.239 370.96 106.619 370.82C105.839 370.75 105.229 370.7 104.809 370.66C104.399 370.63 104.189 370.6 104.189 370.6Z" fill="#263238"/>
<path d="M298.14 430.21C297.98 430.23 297.69 427.25 296.64 423.75C295.61 420.24 294.24 417.59 294.38 417.52C294.44 417.49 294.86 418.11 295.41 419.2C295.96 420.28 296.61 421.83 297.14 423.61C297.66 425.39 297.96 427.05 298.09 428.25C298.21 429.45 298.2 430.2 298.14 430.21Z" fill="#263238"/>
<path d="M306.97 426.08C306.81 426.09 306.76 423.56 305.68 420.7C304.64 417.82 303.03 415.87 303.16 415.77C303.24 415.67 305.08 417.54 306.16 420.52C307.28 423.49 307.1 426.11 306.97 426.08Z" fill="#263238"/>
<path d="M329.1 322.32C329.12 322.16 331.56 322.89 334.47 322.1C337.39 321.36 339.16 319.53 339.26 319.66C339.3 319.7 338.94 320.21 338.14 320.85C337.35 321.49 336.11 322.2 334.6 322.6C333.09 322.99 331.65 322.98 330.66 322.81C329.66 322.64 329.09 322.37 329.1 322.32Z" fill="#263238"/>
<path d="M328.5 310.32C328.57 310.18 330.34 311.08 332.69 311.66C335.04 312.26 337.02 312.3 337.02 312.46C337.03 312.59 334.99 312.78 332.56 312.16C330.14 311.57 328.43 310.43 328.5 310.32Z" fill="#263238"/>
<path d="M322.97 85.36C334.833 85.36 344.45 75.7431 344.45 63.88C344.45 52.0169 334.833 42.4 322.97 42.4C311.107 42.4 301.49 52.0169 301.49 63.88C301.49 75.7431 311.107 85.36 322.97 85.36Z" fill="#E8505B"/>
<path d="M332.1 57.36C328.09 51.59 322.97 56.62 322.97 56.62C322.97 56.62 317.85 51.59 313.84 57.36C309.61 63.45 317.62 70.64 322.97 73.17C328.31 70.64 336.33 63.44 332.1 57.36Z" fill="white"/>
<path d="M253.464 83.6403C275.335 72.9992 284.438 46.643 273.797 24.7721C263.156 2.90117 236.8 -6.20234 214.929 4.4388C193.058 15.0799 183.954 41.4362 194.596 63.3071C205.237 85.178 231.593 94.2815 253.464 83.6403Z" fill="#E8505B"/>
<g opacity="0.2">
<path opacity="0.2" d="M253.464 83.6403C275.335 72.9992 284.438 46.643 273.797 24.7721C263.156 2.90117 236.8 -6.20234 214.929 4.4388C193.058 15.0799 183.954 41.4362 194.596 63.3071C205.237 85.178 231.593 94.2815 253.464 83.6403Z" fill="white"/>
</g>
<path d="M211.26 35.39C211.24 35.36 211.55 35.16 212.11 34.84C212.67 34.51 213.49 34.06 214.51 33.5C216.55 32.39 219.38 30.89 222.53 29.26C222.67 29.19 222.81 29.11 222.94 29.05L222.96 29.52C219.8 28.15 216.98 26.9 214.95 25.97C213.93 25.51 213.12 25.12 212.56 24.85C212 24.58 211.7 24.41 211.71 24.38C211.72 24.35 212.05 24.45 212.64 24.67C213.23 24.89 214.06 25.22 215.1 25.64C217.17 26.48 220.02 27.68 223.18 29.04C223.31 29.1 223.37 29.25 223.32 29.38C223.3 29.44 223.25 29.48 223.2 29.51C223.07 29.58 222.93 29.65 222.79 29.72C219.64 31.35 216.78 32.8 214.7 33.83C213.66 34.34 212.81 34.75 212.22 35.02C211.61 35.29 211.27 35.42 211.26 35.39Z" fill="#263238"/>
<path d="M255.23 34.11C255.2 34.17 253.96 33.64 251.97 32.73C249.99 31.82 247.26 30.52 244.25 29.06C244.12 29 244.07 28.84 244.13 28.71C244.16 28.65 244.2 28.61 244.26 28.59C244.3 28.57 244.35 28.55 244.39 28.53C247.48 27.17 250.29 25.97 252.33 25.13C254.37 24.28 255.65 23.79 255.68 23.86C255.71 23.93 254.48 24.54 252.48 25.47C250.47 26.4 247.69 27.66 244.6 29.01C244.55 29.03 244.51 29.05 244.47 29.07L244.48 28.6C247.48 30.06 250.19 31.41 252.13 32.41C254.07 33.4 255.26 34.05 255.23 34.11Z" fill="#263238"/>
<path d="M204.63 44.64L262.91 44.41C262.91 44.41 259.09 71.3 234.76 71.79C210.44 72.28 204.63 44.64 204.63 44.64Z" fill="#263238"/>
<path d="M256.42 59.94C251.31 53.16 242.51 49.73 234.02 49.94C225.53 50.15 217.37 53.67 210.46 58.61C210.46 58.61 218.12 72.13 234.77 71.79C251.41 71.45 256.42 59.94 256.42 59.94Z" fill="#E8505B"/>
<path d="M204.63 44.64C204.64 44.65 204.67 44.75 204.74 45C204.82 45.26 204.92 45.61 205.05 46.06C205.33 46.98 205.76 48.34 206.44 50.05C207.12 51.75 208.03 53.8 209.32 56.06C210.61 58.31 212.29 60.77 214.53 63.15C215.67 64.32 216.92 65.48 218.36 66.54C219.8 67.58 221.39 68.53 223.13 69.33C224.88 70.11 226.78 70.69 228.78 71.08C230.78 71.48 232.89 71.58 235.04 71.55C239.33 71.41 243.87 70.39 247.9 67.98C251.94 65.6 255.32 61.93 257.82 57.64C260.24 53.43 261.86 48.88 262.65 44.39L262.9 44.68C246.33 44.7 231.81 44.71 221.39 44.72C216.19 44.71 212.02 44.7 209.11 44.7C207.69 44.69 206.58 44.69 205.79 44.68C205.43 44.68 205.14 44.67 204.92 44.67C204.74 44.65 204.64 44.64 204.63 44.64C204.62 44.64 204.72 44.63 204.9 44.62C205.11 44.62 205.39 44.61 205.73 44.6C206.5 44.59 207.59 44.57 208.99 44.56C211.88 44.53 216.03 44.49 221.2 44.44C231.67 44.37 246.26 44.27 262.9 44.15H262.91C263.05 44.15 263.16 44.26 263.16 44.4V44.44C262.36 49.02 260.72 53.61 258.27 57.88C255.74 62.23 252.28 65.98 248.16 68.4C244.04 70.85 239.41 71.88 235.05 72.01C232.87 72.04 230.73 71.93 228.69 71.51C226.66 71.1 224.73 70.5 222.95 69.7C221.18 68.88 219.57 67.91 218.11 66.84C216.66 65.76 215.39 64.57 214.25 63.38C211.99 60.96 210.33 58.47 209.05 56.18C207.77 53.9 206.89 51.82 206.23 50.1C205.58 48.38 205.18 47.01 204.93 46.07C204.81 45.6 204.72 45.24 204.67 45C204.64 44.77 204.63 44.63 204.63 44.64Z" fill="#263238"/>
<path d="M206 72.86C205.99 72.87 205.82 72.74 205.52 72.47C205.22 72.19 204.75 71.82 204.22 71.26C203.11 70.18 201.6 68.52 199.99 66.27C196.75 61.82 193.29 54.67 192.58 46.18C191.87 37.69 194.09 30.06 196.54 25.14C197.76 22.65 198.97 20.76 199.88 19.51C200.32 18.87 200.72 18.42 200.96 18.1C201.22 17.78 201.36 17.62 201.37 17.64C201.38 17.65 201.27 17.83 201.04 18.17C200.82 18.51 200.45 18.98 200.04 19.63C199.18 20.9 198.03 22.81 196.86 25.3C194.52 30.22 192.38 37.77 193.08 46.14C193.78 54.51 197.14 61.59 200.27 66.06C201.83 68.32 203.29 70.01 204.35 71.12C204.86 71.7 205.31 72.1 205.58 72.4C205.87 72.68 206.01 72.84 206 72.86Z" fill="white"/>
<path d="M209.37 11.41C209.42 11.56 208.26 11.99 207.09 12.9C205.91 13.79 205.19 14.79 205.06 14.71C204.94 14.65 205.5 13.45 206.77 12.49C208.04 11.51 209.34 11.28 209.37 11.41Z" fill="white"/>
<path d="M268.46 65.48C268.39 65.42 269.09 64.58 270.03 63.1C270.97 61.63 272.1 59.47 272.9 56.93C273.7 54.38 274 51.97 274.07 50.22C274.14 48.47 274.05 47.38 274.14 47.37C274.18 47.37 274.23 47.63 274.3 48.13C274.38 48.62 274.43 49.34 274.44 50.23C274.46 52.01 274.21 54.48 273.4 57.09C272.58 59.69 271.37 61.87 270.33 63.31C269.81 64.03 269.36 64.59 269.02 64.95C268.69 65.31 268.49 65.5 268.46 65.48Z" fill="white"/>
<path d="M365.19 136.39C365.19 136.39 365.16 136.19 365.13 135.81C365.1 135.4 365.07 134.84 365.02 134.1C365 133.72 364.97 133.3 364.94 132.84C364.89 132.38 364.79 131.88 364.71 131.33C364.54 130.24 364.37 128.98 363.96 127.61C363.32 124.82 362.02 121.53 359.96 118.04C357.89 114.57 354.9 110.94 350.82 107.86C346.76 104.81 341.64 102.21 335.72 101.16C334.24 100.95 332.74 100.64 331.19 100.64C330.42 100.61 329.64 100.54 328.85 100.55C328.07 100.59 327.27 100.63 326.48 100.67C326.08 100.7 325.68 100.7 325.28 100.75L324.08 100.93C323.28 101.06 322.47 101.16 321.67 101.32C320.09 101.75 318.45 102.07 316.89 102.72C315.28 103.23 313.77 104.03 312.22 104.77C311.46 105.18 310.74 105.66 309.99 106.1C309.23 106.53 308.53 107.06 307.83 107.59C306.37 108.59 305.1 109.84 303.77 111.04C302.56 112.37 301.3 113.68 300.26 115.19L299.44 116.29L298.72 117.47L298 118.66C297.75 119.05 297.52 119.45 297.33 119.88C296.93 120.72 296.52 121.56 296.11 122.41C295.79 123.29 295.46 124.18 295.14 125.06C293.97 128.66 293.34 132.48 293.29 136.36C293.34 140.25 293.97 144.07 295.14 147.67C295.47 148.56 295.79 149.44 296.11 150.32C296.52 151.17 296.92 152.01 297.33 152.85C297.52 153.28 297.75 153.68 298 154.07L298.72 155.26L299.44 156.44L300.26 157.54C301.3 159.05 302.57 160.36 303.77 161.69C305.1 162.89 306.38 164.15 307.83 165.15C308.53 165.69 309.23 166.22 309.99 166.64C310.74 167.08 311.46 167.56 312.22 167.97C313.77 168.72 315.29 169.51 316.89 170.03C318.45 170.68 320.09 171 321.67 171.43C322.47 171.6 323.28 171.69 324.08 171.82L325.28 172C325.68 172.05 326.08 172.05 326.48 172.08C327.28 172.12 328.07 172.16 328.85 172.2C329.64 172.21 330.41 172.14 331.19 172.11C332.74 172.1 334.24 171.8 335.72 171.59C341.64 170.54 346.76 167.94 350.82 164.89C354.89 161.81 357.88 158.18 359.96 154.71C362.02 151.22 363.32 147.93 363.96 145.15C364.38 143.78 364.54 142.52 364.71 141.43C364.79 140.89 364.89 140.39 364.94 139.92C364.97 139.46 364.99 139.04 365.02 138.66C365.07 137.92 365.11 137.35 365.13 136.95C365.16 136.59 365.19 136.39 365.19 136.39C365.19 136.39 365.2 136.59 365.19 136.97C365.18 137.38 365.16 137.95 365.13 138.69C365.11 139.07 365.1 139.49 365.08 139.96C365.04 140.42 364.95 140.93 364.87 141.48C364.71 142.57 364.56 143.85 364.16 145.23C363.55 148.04 362.27 151.36 360.22 154.89C358.15 158.41 355.16 162.09 351.06 165.22C346.97 168.32 341.8 170.97 335.82 172.05C334.32 172.27 332.8 172.58 331.23 172.59C330.45 172.62 329.66 172.7 328.86 172.69C328.06 172.65 327.26 172.61 326.46 172.57C326.06 172.54 325.65 172.55 325.25 172.49L324.04 172.31C323.23 172.18 322.41 172.08 321.6 171.92C320 171.49 318.33 171.16 316.75 170.51C315.12 169.99 313.58 169.19 312.01 168.44C311.24 168.03 310.51 167.54 309.75 167.09C308.98 166.66 308.27 166.12 307.56 165.58C306.08 164.57 304.79 163.3 303.43 162.08C302.21 160.73 300.92 159.41 299.86 157.87L299.02 156.75L298.29 155.55L297.56 154.35C297.31 153.95 297.07 153.54 296.88 153.11C296.47 152.26 296.06 151.4 295.64 150.55C295.31 149.66 294.98 148.76 294.65 147.86C293.46 144.21 292.83 140.33 292.77 136.39C292.82 132.45 293.46 128.57 294.65 124.93C294.98 124.03 295.31 123.13 295.64 122.24C296.05 121.38 296.47 120.53 296.88 119.68C297.07 119.25 297.3 118.84 297.56 118.44L298.29 117.24L299.02 116.05L299.86 114.93C300.92 113.4 302.2 112.07 303.42 110.72C304.77 109.5 306.07 108.23 307.54 107.22C308.25 106.68 308.96 106.14 309.73 105.71C310.49 105.26 311.23 104.78 311.99 104.36C313.57 103.61 315.1 102.8 316.73 102.29C318.31 101.63 319.97 101.31 321.58 100.88C322.39 100.71 323.22 100.62 324.02 100.49L325.23 100.31C325.63 100.26 326.04 100.26 326.44 100.23C327.25 100.19 328.05 100.15 328.84 100.11C329.63 100.1 330.42 100.18 331.21 100.21C332.78 100.22 334.3 100.54 335.8 100.75C341.78 101.83 346.96 104.48 351.04 107.58C355.14 110.71 358.14 114.39 360.2 117.91C362.25 121.44 363.53 124.77 364.14 127.58C364.54 128.96 364.69 130.23 364.85 131.33C364.92 131.88 365.01 132.38 365.06 132.85C365.08 133.31 365.1 133.74 365.11 134.12C365.14 134.86 365.16 135.43 365.17 135.84C365.19 136.19 365.19 136.39 365.19 136.39Z" fill="#E8505B"/>
<path d="M321.949 127.94H323.999C323.999 127.94 327.979 121.09 327.869 119.27C327.759 117.45 326.849 113.02 327.869 111.77C328.889 110.52 335.049 111.23 335.719 115.32C336.569 120.48 336.499 127.95 336.499 127.95H349.519C351.019 127.95 352.419 128.88 352.859 130.32C352.979 130.71 353.029 131.13 352.979 131.56C352.979 131.56 352.829 134.63 349.989 134.74C349.989 134.74 350.899 135.54 350.899 137.58C350.899 139.63 348.339 140.37 348.339 140.37C348.339 140.37 349.929 140.88 349.929 143.16C349.929 145.44 347.489 146.34 347.489 146.34C347.489 146.34 348.459 147.65 348.229 149.75C347.999 151.85 345.639 152.34 345.639 152.34H321.939V127.94H321.949Z" fill="#E8505B"/>
<path d="M317.999 152.33H311.619C310.209 152.33 309.069 151.19 309.069 149.78V130.48C309.069 129.07 310.209 127.93 311.619 127.93H317.999C319.409 127.93 320.549 129.07 320.549 130.48V149.78C320.539 151.19 319.399 152.33 317.999 152.33Z" fill="#E8505B"/>
<path d="M259.12 163.68C260.56 160.95 262.83 158.57 265.72 157.48C268.61 156.39 272.12 156.75 274.43 158.79C276.74 160.83 277.48 164.61 275.74 167.16C279.71 166.37 284.07 168.57 285.79 172.24C287.51 175.9 286.41 180.67 283.26 183.21C280.12 185.75 275.22 185.83 272 183.38C271.55 185.65 269.85 187.63 267.68 188.43C265.51 189.23 262.94 188.83 261.12 187.4C256.52 183.79 257.57 175.41 252.45 172.59" fill="#263238"/>
<path d="M255.54 177.2C259.37 173.26 261.19 167.47 260.31 162.05C260.19 161.31 260.03 160.51 260.35 159.83C260.93 158.62 262.8 158.59 263.81 159.47C264.82 160.35 265.16 161.77 265.33 163.1C265.78 166.64 265.42 170.28 264.29 173.66C263.84 175.01 263.25 176.34 262.31 177.41C261.37 178.48 260.03 179.26 258.6 179.26C257.17 179.27 255.94 178.57 255.54 177.2Z" fill="#E8505B"/>
<path d="M252.46 124.69C250.55 119.39 241.49 114.85 236.52 112.21C229.09 108.26 222.35 109.33 218.31 113.19C210.57 107.12 200.45 101.38 191.02 104.19C181.59 106.99 174.2 116.99 176.25 126.61C177.46 132.28 181.58 137.26 181.54 143.06C181.51 147.01 179.54 150.64 178 154.28C176.45 157.92 175.31 162.13 176.92 165.74C178.41 169.1 181.93 171.11 183.9 174.22C185.5 176.75 185.95 179.82 187.01 182.62C190.94 193 203.53 198.47 214.41 196.26C225.29 194.05 234.12 185.51 238.96 175.53C243.8 165.54 245.13 154.22 245.36 143.12" fill="#263238"/>
<path d="M211.661 122.53C201.551 121.14 192.321 128.44 191.331 138.6C190.161 150.72 189.161 165.95 190.341 175.18C192.631 193.2 206.311 195.91 206.311 195.91C206.311 195.91 206.201 202.61 206.051 210.42C205.851 220.85 213.921 229.59 224.341 230.2C235.541 230.86 244.971 221.92 244.911 210.7L244.531 132.54" fill="#FFBE9D"/>
<path d="M206.311 195.92C206.311 195.92 218.461 196.84 230.641 190.03C230.641 190.03 224.151 202.58 206.261 200.34L206.311 195.92Z" fill="#EB996E"/>
<path d="M217.531 140.44C217.751 141.12 220.231 140.88 223.131 141.32C226.031 141.7 228.351 142.63 228.751 142.03C228.931 141.75 228.541 141.1 227.621 140.42C226.701 139.74 225.221 139.08 223.491 138.83C221.751 138.59 220.151 138.81 219.081 139.21C217.991 139.6 217.441 140.11 217.531 140.44Z" fill="#263238"/>
<path d="M194.681 141.8C195.101 142.38 196.821 141.85 198.871 141.88C200.921 141.84 202.641 142.38 203.061 141.8C203.241 141.52 202.991 140.95 202.251 140.39C201.521 139.84 200.281 139.36 198.871 139.36C197.461 139.36 196.221 139.83 195.491 140.39C194.761 140.95 194.501 141.52 194.681 141.8Z" fill="#263238"/>
<path d="M216.88 160.65C216.89 161.01 217.2 161.3 217.56 161.28C217.92 161.27 218.21 160.96 218.19 160.6C218.18 160.24 217.87 159.95 217.51 159.97C217.16 159.99 216.87 160.29 216.88 160.65Z" fill="#EB996E"/>
<path d="M198.231 158.06C198.241 158.42 198.551 158.71 198.911 158.69C199.271 158.68 199.561 158.37 199.541 158.01C199.531 157.65 199.221 157.36 198.861 157.38C198.501 157.39 198.221 157.7 198.231 158.06Z" fill="#EB996E"/>
<path d="M194.67 159.89C194.68 160.25 194.99 160.54 195.35 160.52C195.71 160.51 196 160.2 195.98 159.84C195.97 159.48 195.66 159.19 195.3 159.21C194.94 159.22 194.66 159.53 194.67 159.89Z" fill="#EB996E"/>
<path d="M193.47 157.18C193.48 157.54 193.79 157.83 194.15 157.81C194.51 157.8 194.8 157.49 194.78 157.13C194.77 156.77 194.46 156.48 194.1 156.5C193.74 156.52 193.46 156.82 193.47 157.18Z" fill="#EB996E"/>
<path d="M219.981 163.45C219.991 163.81 220.301 164.1 220.661 164.08C221.021 164.07 221.311 163.76 221.291 163.4C221.281 163.04 220.971 162.75 220.611 162.77C220.251 162.78 219.971 163.09 219.981 163.45Z" fill="#EB996E"/>
<path d="M222.35 160.73C222.36 161.09 222.67 161.38 223.03 161.36C223.39 161.35 223.68 161.04 223.66 160.68C223.65 160.32 223.34 160.03 222.98 160.05C222.62 160.06 222.34 160.37 222.35 160.73Z" fill="#EB996E"/>
<path d="M212.501 119.72C214.591 133.92 225.591 146.41 239.421 150.28C235.221 156.79 238.4 168.8 238.62 178.9C238.83 188.3 238.921 190.98 245.171 195.56C250.241 196.6 252.681 182.73 256.291 178.76C259.901 174.79 263.32 169.92 262.86 164.58C262.65 162.08 261.59 159.71 261.37 157.21C261.13 154.44 261.921 151.69 262.321 148.94C264.101 136.75 257.381 123.93 246.611 117.95C235.851 111.96 221.771 112.87 211.521 119.69" fill="#263238"/>
<path d="M260.911 155.89C260.921 155.9 261.071 155.72 261.341 155.37C261.591 155.01 261.921 154.42 262.111 153.59C262.541 151.94 262.231 149.37 260.841 146.68C260.181 145.33 259.141 143.97 257.851 142.77C256.581 141.54 255.121 140.32 253.431 139.26C251.751 138.19 249.841 137.27 247.761 136.65C245.691 136.02 243.501 135.55 241.271 135.07C239.041 134.59 236.861 134.11 234.821 133.47C232.771 132.84 230.851 132.07 229.081 131.2C225.541 129.47 222.611 127.41 220.351 125.48C218.081 123.54 216.451 121.75 215.381 120.47C214.831 119.84 214.441 119.32 214.171 118.98C213.901 118.64 213.751 118.46 213.741 118.47C213.731 118.48 213.861 118.67 214.111 119.03C214.361 119.39 214.741 119.93 215.261 120.58C216.301 121.89 217.911 123.73 220.171 125.71C222.431 127.69 225.371 129.78 228.931 131.55C230.711 132.43 232.651 133.22 234.721 133.86C236.781 134.51 238.971 134.99 241.201 135.47C243.431 135.95 245.611 136.42 247.661 137.04C249.711 137.65 251.581 138.54 253.241 139.58C254.911 140.62 256.361 141.81 257.621 143.02C258.911 144.21 259.911 145.49 260.591 146.82C261.991 149.44 262.331 151.95 261.961 153.56C261.611 155.19 260.831 155.85 260.911 155.89Z" fill="#455A64"/>
<path d="M213.73 118.47C213.72 118.48 213.85 118.63 214.12 118.91C214.38 119.19 214.78 119.59 215.3 120.1C216.35 121.11 217.91 122.53 219.99 124.1C222.09 125.63 224.7 127.38 227.97 128.56C229.61 129.15 231.4 129.49 233.24 129.8C235.09 130.11 237.02 130.33 238.98 130.56C242.91 131.01 246.67 131.5 249.94 132.48C253.2 133.48 255.96 134.95 257.96 136.58C259.97 138.2 261.24 139.91 261.92 141.18C262.25 141.82 262.5 142.33 262.63 142.69C262.78 143.04 262.86 143.23 262.87 143.22C262.88 143.22 262.83 143.02 262.7 142.66C262.59 142.29 262.37 141.77 262.06 141.11C261.41 139.8 260.16 138.03 258.14 136.36C256.13 134.68 253.34 133.16 250.04 132.13C246.73 131.11 242.95 130.61 239.02 130.16C237.05 129.93 235.13 129.71 233.29 129.41C231.45 129.11 229.68 128.78 228.08 128.21C224.86 127.07 222.25 125.37 220.14 123.87C218.05 122.34 216.46 120.96 215.39 119.99C214.88 119.52 214.47 119.14 214.16 118.86C213.89 118.59 213.74 118.46 213.73 118.47Z" fill="#455A64"/>
<path d="M193.17 103.53C193.16 103.62 194.71 103.62 197.12 104.18C197.72 104.32 198.38 104.49 199.06 104.73C199.76 104.93 200.47 105.25 201.22 105.56C202.7 106.24 204.27 107.11 205.79 108.22C207.29 109.35 208.59 110.6 209.67 111.82C210.18 112.45 210.69 113.04 211.09 113.65C211.52 114.23 211.87 114.81 212.18 115.35C213.41 117.49 213.86 118.98 213.95 118.94C213.98 118.93 213.87 118.56 213.64 117.9C213.53 117.57 213.39 117.16 213.17 116.72C212.96 116.27 212.75 115.74 212.43 115.21C212.13 114.66 211.79 114.06 211.37 113.46C210.98 112.83 210.47 112.23 209.96 111.58C208.88 110.33 207.57 109.05 206.04 107.89C204.5 106.76 202.89 105.88 201.38 105.21C200.61 104.91 199.88 104.6 199.17 104.41C198.47 104.17 197.8 104.03 197.19 103.9C196.58 103.75 196.02 103.7 195.53 103.63C195.04 103.55 194.61 103.53 194.26 103.53C193.56 103.5 193.17 103.5 193.17 103.53Z" fill="#455A64"/>
<path d="M182.74 172.1C182.75 172.09 182.7 172.04 182.62 171.95C182.52 171.84 182.39 171.7 182.23 171.52C181.89 171.15 181.37 170.6 180.78 169.84C180.2 169.08 179.5 168.11 179.09 166.82C178.89 166.18 178.78 165.46 178.85 164.7C178.93 163.95 179.17 163.17 179.59 162.43C180.39 160.92 181.75 159.59 182.98 157.96C184.2 156.32 185.31 154.42 186.16 152.29C187.02 150.16 187.64 147.8 187.88 145.31C188.13 142.81 187.94 140.23 187.82 137.61C187.7 134.99 187.68 132.41 188.26 130.02C188.84 127.64 190.02 125.51 191.47 123.8C192.93 122.08 194.68 120.76 196.48 119.9C198.28 119.02 200.14 118.6 201.84 118.48C205.27 118.23 208.01 119.14 209.73 119.94C210.6 120.35 211.24 120.74 211.66 121.02C211.85 121.15 212.01 121.25 212.14 121.34C212.25 121.41 212.31 121.44 212.31 121.44C212.31 121.44 211.53 120.69 209.8 119.8C208.08 118.94 205.32 117.98 201.82 118.19C200.09 118.3 198.18 118.71 196.33 119.6C194.48 120.48 192.68 121.81 191.18 123.56C189.68 125.31 188.46 127.48 187.86 129.93C187.25 132.38 187.27 135 187.4 137.63C187.52 140.26 187.72 142.82 187.47 145.28C187.24 147.73 186.63 150.05 185.8 152.15C184.97 154.26 183.88 156.13 182.69 157.76C181.5 159.37 180.14 160.74 179.32 162.3C178.9 163.07 178.65 163.89 178.58 164.69C178.52 165.49 178.64 166.24 178.86 166.9C179.3 168.23 180.04 169.2 180.64 169.95C181.26 170.7 181.79 171.23 182.15 171.58C182.32 171.74 182.46 171.87 182.57 171.98C182.68 172.06 182.73 172.1 182.74 172.1Z" fill="#455A64"/>
<path d="M260 156.92C260 156.93 260.07 156.89 260.19 156.83C260.33 156.75 260.51 156.65 260.73 156.52C261.19 156.23 261.87 155.79 262.65 155.1C264.2 153.75 266.29 151.42 267.48 147.86C268.7 144.36 268.69 139.55 266.37 135.15C265.24 132.96 263.51 130.93 261.3 129.38C259.11 127.82 256.51 126.72 253.77 126C251.03 125.28 248.26 124.95 245.61 124.79C242.95 124.63 240.39 124.6 237.95 124.51C235.51 124.42 233.2 124.28 231.06 123.97C228.92 123.68 226.96 123.19 225.22 122.59C221.74 121.39 219.25 119.65 217.77 118.24C217.04 117.52 216.51 116.91 216.18 116.49C216.03 116.29 215.9 116.13 215.8 116C215.71 115.89 215.67 115.84 215.66 115.84C215.66 115.84 216.2 116.87 217.65 118.36C219.11 119.82 221.61 121.63 225.12 122.87C226.87 123.49 228.85 124 231.01 124.31C233.17 124.63 235.49 124.79 237.93 124.89C242.8 125.11 248.22 124.97 253.66 126.4C256.36 127.11 258.91 128.19 261.06 129.71C263.22 131.22 264.91 133.19 266.02 135.33C268.3 139.62 268.35 144.33 267.18 147.77C266.04 151.28 264.01 153.61 262.52 154.98C261.76 155.68 261.11 156.14 260.66 156.45C260.45 156.59 260.28 156.7 260.15 156.79C260.06 156.87 260 156.92 260 156.92Z" fill="#263238"/>
<path d="M194.7 152.81C194.98 153.11 196.74 151.86 199.21 151.92C201.67 151.94 203.46 153.24 203.73 152.95C203.86 152.82 203.59 152.27 202.81 151.68C202.05 151.09 200.73 150.51 199.2 150.49C197.66 150.47 196.36 151.01 195.61 151.57C194.83 152.14 194.56 152.67 194.7 152.81Z" fill="#263238"/>
<path d="M219.901 153.22C220.181 153.52 221.941 152.27 224.411 152.33C226.871 152.35 228.661 153.65 228.931 153.36C229.061 153.23 228.791 152.68 228.011 152.09C227.251 151.5 225.931 150.92 224.401 150.9C222.861 150.88 221.561 151.42 220.801 151.98C220.031 152.54 219.761 153.08 219.901 153.22Z" fill="#263238"/>
<path d="M210.59 168.1C210.6 167.96 209.08 167.67 206.6 167.3C205.97 167.22 205.38 167.09 205.28 166.65C205.14 166.19 205.42 165.52 205.74 164.79C206.36 163.28 207.01 161.69 207.7 160.03C210.42 153.25 212.41 147.67 212.13 147.57C211.86 147.46 209.43 152.87 206.71 159.65C206.05 161.32 205.43 162.92 204.83 164.44C204.58 165.15 204.15 165.95 204.45 166.91C204.61 167.38 205.07 167.73 205.47 167.85C205.87 167.98 206.23 167.99 206.54 168.02C209.02 168.2 210.57 168.24 210.59 168.1Z" fill="#263238"/>
<path d="M211.511 174.07C212.421 172.91 213.991 172.3 215.531 172.5C216.601 172.64 217.671 173.17 218.301 174.06C218.931 174.94 219.041 176.18 218.441 177C217.761 177.92 216.361 178.11 215.191 177.75C214.021 177.39 213.021 176.6 212.071 175.81C211.811 175.59 211.541 175.36 211.381 175.07C211.221 174.77 211.191 174.39 211.401 174.15" fill="#EB996E"/>
<path d="M217.81 169.95C217.41 169.92 217.35 172.6 215.02 174.45C212.69 176.31 209.85 175.95 209.82 176.33C209.78 176.5 210.45 176.86 211.65 176.92C212.83 176.98 214.56 176.64 215.99 175.5C217.41 174.36 218.04 172.82 218.16 171.72C218.28 170.61 218 169.94 217.81 169.95Z" fill="#263238"/>
<path d="M196.97 337.32L169.61 346.63L167.4 353.48C167.4 353.48 91.0503 325.99 85.6303 323.1C80.2103 320.21 52.3103 313.8 43.0903 336.75C35.3403 356.05 50.7403 375.39 75.3003 386.23C99.8603 397.07 147.54 401.76 147.54 401.76L178.91 407.19L248.3 408.09C268.81 408.36 288.37 399.49 301.73 383.92C312.67 371.18 323.97 356.74 326.11 349.21C330.28 334.58 326.5 315.62 304.69 313.79C282.88 311.96 247.51 336.88 247.51 336.88L234.08 333.2L196.97 337.32Z" fill="#263238"/>
<path d="M194.831 381.83C194.821 381.83 194.861 381.66 194.941 381.36C195.011 381.06 195.041 380.56 194.781 380C194.261 378.85 192.531 377.82 190.211 377.23H190.201H190.191C185.481 375.32 178.391 372.35 169.991 368.18C161.581 364.05 151.861 358.78 141.451 353.18C133.921 349.15 126.741 345.32 120.091 342.1C113.441 338.88 107.381 336.1 102.171 334.06C100.871 333.54 99.6406 333.02 98.4706 332.58C97.2906 332.15 96.1706 331.74 95.1306 331.36C94.0906 330.98 93.1206 330.62 92.2206 330.3C91.3206 330.01 90.4906 329.74 89.7506 329.5C88.2906 329.02 87.1406 328.65 86.3306 328.38C85.9606 328.25 85.6706 328.15 85.4406 328.08C85.2406 328.01 85.1406 327.97 85.1406 327.96C85.1406 327.95 85.2506 327.98 85.4506 328.03C85.6806 328.1 85.9806 328.18 86.3506 328.28C87.1706 328.52 88.3306 328.87 89.8106 329.31C90.5606 329.54 91.3906 329.79 92.3006 330.07C93.2006 330.39 94.1806 330.73 95.2306 331.09C96.2806 331.46 97.4006 331.85 98.5906 332.27C99.7706 332.71 101.011 333.21 102.311 333.72C107.541 335.73 113.631 338.47 120.301 341.67C126.981 344.88 134.171 348.69 141.701 352.73C152.111 358.33 161.811 363.62 170.191 367.79C178.551 371.99 185.601 375.03 190.281 377.01L190.261 377C192.621 377.64 194.371 378.72 194.891 379.96C195.151 380.56 195.091 381.08 195.001 381.39C194.901 381.68 194.841 381.84 194.831 381.83Z" fill="#455A64"/>
<path d="M296.96 318.6C296.96 318.61 296.86 318.63 296.65 318.66C296.42 318.69 296.12 318.73 295.74 318.78C294.94 318.88 293.76 318.95 292.28 319.35C289.3 319.98 285.09 321.48 280.42 324.3C278.07 325.68 275.62 327.41 273.12 329.42C270.62 331.43 268.08 333.74 265.6 336.36C260.71 341.7 255.06 347.33 248.82 352.88C245.69 355.65 242.54 358.26 239.35 360.59C236.15 362.89 232.92 365 229.45 366.22C225.97 367.35 222.52 367.76 219.35 368.25C216.17 368.72 213.22 369.26 210.64 370.11C208.06 370.97 205.8 372.01 204.04 373.25C202.26 374.47 201.01 375.9 200.31 377.24C199.59 378.58 199.41 379.77 199.32 380.56C199.29 380.96 199.3 381.27 199.29 381.47C199.28 381.68 199.27 381.78 199.26 381.78C199.25 381.78 199.24 381.68 199.23 381.47C199.23 381.26 199.2 380.95 199.21 380.55C199.27 379.75 199.42 378.53 200.13 377.14C200.82 375.76 202.08 374.26 203.87 373.01C205.65 371.72 207.93 370.65 210.52 369.76C213.13 368.87 216.1 368.31 219.28 367.82C222.45 367.31 225.88 366.88 229.29 365.76C232.66 364.56 235.87 362.46 239.04 360.17C242.21 357.85 245.34 355.25 248.47 352.48C254.7 346.93 260.35 341.33 265.25 336.02C267.76 333.4 270.33 331.09 272.85 329.08C275.37 327.07 277.85 325.35 280.23 323.98C284.96 321.18 289.23 319.72 292.24 319.15C293.73 318.78 294.93 318.74 295.74 318.67C296.12 318.64 296.42 318.62 296.66 318.6C296.86 318.59 296.96 318.59 296.96 318.6Z" fill="#455A64"/>
<path d="M202.091 373.61C202.061 373.62 201.901 373.17 201.641 372.33C201.491 371.91 201.411 371.38 201.281 370.77C201.141 370.16 201.051 369.46 200.961 368.68C200.761 367.12 200.711 365.25 200.731 363.18C200.811 361.11 200.931 358.83 201.281 356.47C201.921 351.73 203.071 347.52 204.271 344.62C204.601 343.91 204.871 343.25 205.171 342.7C205.491 342.16 205.731 341.68 205.991 341.32C206.521 340.62 206.831 340.24 206.851 340.26C206.881 340.28 206.631 340.7 206.161 341.42C205.941 341.79 205.721 342.28 205.431 342.82C205.161 343.37 204.921 344.03 204.611 344.74C203.521 347.64 202.431 351.82 201.801 356.52C201.461 358.87 201.321 361.12 201.211 363.18C201.171 365.23 201.181 367.08 201.331 368.63C201.561 371.74 202.191 373.58 202.091 373.61Z" fill="#455A64"/>
<path d="M194.831 381.83C194.831 381.83 246.501 394.88 248.581 395.56C251.701 396.58 251.441 407.92 246.621 407.86C244.341 407.83 207.211 410.14 202.511 409.95C197.811 409.76 185.061 405.06 185.061 405.06L192.841 386.58L194.831 381.83Z" fill="#E8505B"/>
<path d="M216.671 400.94C216.931 400.97 217.211 398.25 218.811 395.38C220.361 392.49 222.501 390.77 222.331 390.57C222.241 390.37 219.721 391.88 218.051 394.97C216.351 398.03 216.451 400.97 216.671 400.94Z" fill="#263238"/>
<path d="M211.261 398.63C211.511 398.67 211.981 396.23 213.281 393.52C214.561 390.79 216.161 388.89 215.971 388.72C215.821 388.55 213.861 390.28 212.501 393.15C211.131 396.01 211.041 398.63 211.261 398.63Z" fill="#263238"/>
<path d="M206.2 397.4C206.46 397.38 206.2 394.82 207.28 391.95C208.31 389.06 210.15 387.27 209.97 387.08C209.86 386.89 207.6 388.53 206.47 391.65C205.32 394.77 206 397.48 206.2 397.4Z" fill="#263238"/>
<path d="M206.961 390.75C207.051 390.77 207.471 389.33 207.421 386.92C207.391 385.72 207.221 384.29 206.801 382.74C206.591 381.97 206.321 381.17 205.981 380.37C205.801 379.97 205.601 379.5 205.131 379.13C204.641 378.71 203.771 378.82 203.371 379.26C202.911 379.68 202.771 380.26 202.721 380.73C202.681 381.2 202.661 381.64 202.681 382.09C202.711 382.97 202.851 383.82 203.051 384.6C203.471 386.16 204.111 387.46 204.721 388.49C205.961 390.55 207.031 391.59 207.101 391.53C207.221 391.45 206.331 390.27 205.261 388.2C204.731 387.16 204.181 385.89 203.831 384.41C203.651 383.67 203.551 382.89 203.531 382.07C203.531 381.28 203.501 380.29 203.951 379.9C204.191 379.69 204.411 379.67 204.631 379.83C204.861 380 205.061 380.35 205.211 380.71C205.551 381.47 205.821 382.23 206.041 382.96C206.481 384.43 206.701 385.8 206.811 386.95C207.031 389.27 206.821 390.73 206.961 390.75Z" fill="#263238"/>
<path d="M206.89 390.23C206.91 390.14 205.66 389.74 203.57 389.77C202.53 389.79 201.28 389.93 199.94 390.3C199.28 390.49 198.57 390.68 197.86 391.12C197.16 391.49 196.45 392.49 196.75 393.49C196.99 394.44 197.82 395.09 198.64 395.28C199.46 395.49 200.25 395.39 200.94 395.22C202.34 394.86 203.42 394.15 204.24 393.5C205.86 392.17 206.64 391.17 206.57 391.1C206.48 390.99 205.52 391.86 203.88 393.01C203.05 393.57 202.01 394.17 200.76 394.44C200.14 394.57 199.47 394.63 198.85 394.46C198.24 394.31 197.73 393.86 197.57 393.27C197.41 392.7 197.75 392.17 198.3 391.82C198.84 391.47 199.52 391.25 200.15 391.05C201.41 390.66 202.6 390.46 203.6 390.37C205.61 390.19 206.87 390.37 206.89 390.23Z" fill="#263238"/>
<path d="M224.571 401.31C224.821 401.28 224.521 399.09 225.481 396.66C226.391 394.21 228.071 392.78 227.901 392.58C227.811 392.37 225.691 393.64 224.671 396.35C223.631 399.05 224.361 401.41 224.571 401.31Z" fill="#263238"/>
<path d="M188.79 404.49C188.77 404.55 189.48 404.86 190.8 405.38C192.13 405.85 194.08 406.5 196.55 407.02C201.49 408.15 208.51 408.69 216.2 408.43C223.89 408.17 230.82 407.66 235.84 407.35C238.22 407.17 240.21 407.02 241.78 406.9C243.18 406.77 243.96 406.68 243.95 406.62C243.95 406.56 243.17 406.55 241.76 406.57C240.18 406.62 238.19 406.68 235.8 406.75C230.6 406.97 223.75 407.26 216.16 407.58C208.5 407.83 201.57 407.39 196.66 406.43C191.74 405.53 188.85 404.33 188.79 404.49Z" fill="#263238"/>
<path d="M187.3 405.7C187.37 405.82 188.76 404.96 191.11 403.87C193.43 402.81 196.92 401.53 200.79 402.03C204.67 402.53 207.48 405.07 209.3 406.84C211.14 408.67 212.23 409.89 212.33 409.8C212.41 409.73 211.5 408.39 209.74 406.42C208.85 405.45 207.73 404.32 206.26 403.31C204.81 402.3 202.96 401.45 200.9 401.18C196.75 400.64 193.13 402.11 190.83 403.32C188.51 404.58 187.25 405.62 187.3 405.7Z" fill="#263238"/>
<path d="M238.86 406.75C238.95 406.69 238.5 406.02 238.07 404.83C237.63 403.65 237.28 401.9 237.58 400.01C237.89 398.12 238.77 396.57 239.56 395.59C240.34 394.6 240.99 394.1 240.92 394.01C240.88 393.94 240.12 394.3 239.19 395.26C238.27 396.21 237.23 397.85 236.9 399.89C236.57 401.94 237.04 403.82 237.62 405.01C238.19 406.23 238.8 406.8 238.86 406.75Z" fill="#263238"/>
<path d="M316.38 360.9C316.39 360.91 316.24 361.15 315.92 361.6C315.57 362.08 315.11 362.73 314.53 363.54C313.91 364.37 313.2 365.42 312.28 366.57C311.33 367.71 310.26 369 309.08 370.42C307.89 371.84 306.45 373.28 304.97 374.88C303.47 376.46 301.72 378.01 299.96 379.72C296.25 382.92 292.09 386.38 287.32 389.45C282.57 392.54 277.83 395.14 273.35 397.16C268.86 399.13 264.7 400.65 261.12 401.63C259.34 402.14 257.69 402.49 256.26 402.83C254.81 403.08 253.56 403.33 252.54 403.48C251.55 403.59 250.76 403.67 250.16 403.73C249.62 403.78 249.33 403.8 249.33 403.78C249.33 403.76 249.61 403.71 250.15 403.62C250.74 403.53 251.52 403.42 252.51 403.27C253.53 403.09 254.76 402.82 256.2 402.54C257.62 402.18 259.25 401.8 261.02 401.27C264.57 400.25 268.7 398.7 273.16 396.71C277.6 394.68 282.31 392.08 287.04 389.01C291.78 385.96 295.93 382.53 299.65 379.36C301.41 377.67 303.16 376.14 304.67 374.57C306.15 372.98 307.61 371.57 308.81 370.17C310.01 368.77 311.09 367.5 312.06 366.38C312.99 365.25 313.73 364.22 314.37 363.41C314.98 362.62 315.47 362 315.84 361.53C316.18 361.11 316.36 360.89 316.38 360.9Z" fill="#455A64"/>
<path d="M184.48 375.5C184.41 375.54 183.59 374.25 182.14 372.27C180.69 370.28 178.56 367.64 175.91 364.99C173.26 362.34 170.61 360.21 168.62 358.77C166.63 357.32 165.34 356.51 165.39 356.44C165.41 356.41 165.75 356.58 166.35 356.92C166.96 357.25 167.81 357.78 168.83 358.47C170.88 359.85 173.6 361.96 176.28 364.63C178.95 367.31 181.06 370.02 182.44 372.07C183.13 373.1 183.66 373.95 183.99 374.55C184.33 375.14 184.51 375.48 184.48 375.5Z" fill="#455A64"/>
<path d="M246.89 346.88C246.94 346.95 245.76 347.7 243.98 349.06C242.2 350.42 239.87 352.46 237.63 355.03C235.39 357.61 233.69 360.2 232.59 362.14C231.48 364.08 230.91 365.35 230.83 365.32C230.8 365.31 230.91 364.98 231.14 364.39C231.37 363.8 231.75 362.97 232.26 361.97C233.29 359.96 234.96 357.3 237.23 354.69C239.5 352.09 241.91 350.07 243.76 348.77C244.68 348.12 245.45 347.63 246.01 347.32C246.56 347.01 246.88 346.85 246.89 346.88Z" fill="#455A64"/>
<path d="M259.971 331.05C273.911 319.9 300.121 314.58 300.121 314.58C300.121 314.58 298.651 263.7 294.671 240.32C294.571 239.75 294.471 239.19 294.361 238.65C290.771 220.63 274.791 209.76 256.591 207.23L244.251 205.52L207.811 206.84L185.571 213.57C185.571 213.57 159.301 219.49 155.241 256.42C151.251 292.63 146.541 322.55 147.271 333.21C147.791 340.73 154.741 346.09 158.591 346.97C162.081 347.77 166.511 348.51 170.281 346.24C168.951 348.67 168.051 351.05 167.831 353.23H190.071L207.501 337.9L223.431 349.32L244.771 340.3L259.421 330.29L259.971 331.05ZM183.961 329.56C183.971 329.51 183.981 329.47 183.991 329.42C186.471 317.16 186.781 313.55 186.781 313.55C186.781 313.55 173.681 311.9 175.781 294.47L177.821 279.38L190.891 323.32C190.891 323.31 187.841 325.8 183.961 329.56Z" fill="#FC4B58"/>
<g opacity="0.2">
<g opacity="0.2">
<path opacity="0.2" d="M230.191 312.67L234.271 302.38C229.761 300.46 228.161 300.39 223.291 299.8C210.321 298.23 196.801 301.76 186.241 309.46L188.931 317.2L188.901 317.21C188.911 317.22 188.931 317.22 188.941 317.23C188.971 317.24 189.001 317.25 189.031 317.26C190.701 317.81 193.511 317.72 195.171 317.33C196.881 316.92 198.661 316.46 200.361 316.89C202.591 317.45 204.181 319.37 206.191 320.5C210.221 322.77 215.961 321.12 218.171 317.06C219.091 315.36 219.951 313 221.881 313.04C222.831 313.06 223.631 313.72 224.341 314.35C226.651 316.37 228.951 318.4 231.261 320.42C234.031 322.85 236.811 325.29 239.781 327.48C243.261 330.05 247.281 332.36 251.611 332.22C255.941 332.09 256.131 327.94 256.131 327.94L230.191 312.67Z" fill="black"/>
</g>
</g>
<path d="M206.141 205.62L205.501 216.11C205.281 219.73 205.841 223.36 207.141 226.75L219.961 260.14C219.961 260.14 217.991 240.65 226.221 233.46C234.451 226.26 244.771 226.99 244.911 215.88C244.931 214.03 244.871 201.91 244.871 201.91L227.171 198.4L206.141 205.62Z" fill="#FFBE9D"/>
<path d="M271.671 211.08C271.681 211.1 271.451 211.22 271.001 211.45C270.541 211.65 269.911 212.04 269.121 212.54C267.551 213.58 265.481 215.46 263.671 218.31C261.891 221.16 260.391 225.02 260.141 229.48C260.021 231.69 260.291 234.05 260.471 236.48C260.701 238.91 260.941 241.43 261.181 244.02C262.231 254.34 263.351 263.67 264.241 270.41C264.681 273.78 265.071 276.5 265.351 278.38C265.481 279.28 265.591 280 265.671 280.55C265.741 281.05 265.771 281.31 265.761 281.31C265.741 281.31 265.681 281.06 265.571 280.57C265.461 280.08 265.331 279.35 265.151 278.42C264.811 276.55 264.361 273.83 263.871 270.46C262.891 263.73 261.711 254.4 260.661 244.07C260.401 241.49 260.161 238.97 259.961 236.53C259.781 234.09 259.521 231.73 259.661 229.45C259.951 224.9 261.511 220.99 263.361 218.11C265.241 215.23 267.381 213.37 269.011 212.37C269.841 211.88 270.491 211.53 270.961 211.35C271.421 211.16 271.661 211.06 271.671 211.08Z" fill="#263238"/>
<path d="M266.981 333.63C266.981 333.64 266.911 333.61 266.781 333.56C266.631 333.49 266.441 333.41 266.211 333.31C265.711 333.09 264.971 332.76 264.041 332.29C262.161 331.38 259.481 329.95 256.171 328.12C249.541 324.45 240.391 319.12 230.071 312.88L229.881 312.77L229.971 312.56C231.171 309.69 232.411 306.71 233.681 303.66C234.941 300.6 236.151 297.6 237.281 294.68C237.841 293.22 238.391 291.78 238.891 290.37C239.141 289.66 239.381 288.96 239.601 288.26C239.711 287.91 239.811 287.56 239.901 287.22C239.941 287.05 239.981 286.87 240.011 286.71C240.021 286.63 240.031 286.55 240.031 286.47C240.031 286.43 240.031 286.41 240.031 286.38V286.39C240.031 286.39 240.081 286.46 240.121 286.45L240.301 286C244.771 287.99 248.751 290.15 252.281 292.09C255.811 294.04 258.911 295.78 261.501 297.16C264.091 298.55 266.171 299.6 267.611 300.3C268.301 300.64 268.851 300.9 269.251 301.1C269.621 301.28 269.811 301.39 269.811 301.4C269.801 301.41 269.601 301.34 269.221 301.18C268.841 301.02 268.271 300.78 267.541 300.45C266.081 299.79 263.981 298.78 261.361 297.43C258.741 296.08 255.631 294.37 252.081 292.45C248.531 290.54 244.551 288.4 240.101 286.45L240.281 286C240.351 286.03 240.441 286.11 240.461 286.16C240.481 286.2 240.501 286.25 240.511 286.3C240.521 286.36 240.531 286.43 240.521 286.48C240.521 286.59 240.511 286.69 240.491 286.78C240.461 286.97 240.421 287.15 240.381 287.34C240.291 287.7 240.191 288.06 240.081 288.41C239.861 289.12 239.621 289.83 239.371 290.54C238.871 291.97 238.331 293.41 237.761 294.87C236.631 297.8 235.421 300.8 234.171 303.86C232.891 306.91 231.651 309.89 230.451 312.76L230.351 312.44C240.651 318.7 249.771 324.09 256.351 327.83C259.641 329.7 262.291 331.17 264.141 332.13C265.061 332.63 265.781 332.98 266.271 333.23C266.491 333.35 266.671 333.44 266.821 333.52C266.921 333.59 266.981 333.63 266.981 333.63Z" fill="#263238"/>
<path d="M177.381 279.37C177.341 279.38 177.221 278.86 177.021 277.93C176.821 277 176.571 275.64 176.311 273.95C175.781 270.58 175.271 265.88 175.121 260.67C174.971 255.46 175.221 250.74 175.561 247.34C175.721 245.64 175.891 244.27 176.041 243.33C176.181 242.39 176.281 241.87 176.311 241.87C176.351 241.87 176.321 242.4 176.241 243.35C176.151 244.3 176.041 245.67 175.931 247.37C175.691 250.76 175.501 255.46 175.651 260.65C175.801 265.84 176.261 270.52 176.691 273.89C176.901 275.58 177.091 276.94 177.231 277.89C177.361 278.84 177.421 279.36 177.381 279.37Z" fill="#263238"/>
<path d="M175.23 287.75C175.26 287.77 174.92 288.22 174.29 289.01C173.59 289.86 172.69 290.98 171.59 292.32C169.24 295.18 166.11 298.99 162.64 303.2C159.19 307.43 156.07 311.26 153.74 314.12C152.64 315.46 151.73 316.57 151.03 317.42C150.38 318.19 150.01 318.61 149.98 318.59C149.95 318.57 150.27 318.11 150.87 317.3C151.47 316.49 152.35 315.32 153.45 313.9C155.65 311.04 158.75 307.14 162.24 302.87C165.73 298.61 168.95 294.81 171.31 292.08C172.49 290.72 173.46 289.62 174.14 288.88C174.82 288.13 175.21 287.73 175.23 287.75Z" fill="#263238"/>
<path d="M185.281 320.12C185.321 320.12 185.301 320.57 185.231 321.38C185.201 321.79 185.161 322.28 185.061 322.85C184.961 323.42 184.891 324.07 184.701 324.78C184.401 326.2 183.901 327.87 183.201 329.66C182.471 331.44 181.531 333.35 180.351 335.23C179.141 337.1 177.811 338.75 176.491 340.16C175.151 341.55 173.851 342.7 172.691 343.57C172.131 344.03 171.561 344.38 171.091 344.7C170.621 345.03 170.191 345.28 169.831 345.48C169.121 345.88 168.721 346.08 168.711 346.05C168.661 345.96 170.231 345.09 172.471 343.28C173.601 342.39 174.851 341.22 176.151 339.83C177.421 338.42 178.731 336.79 179.921 334.95C181.091 333.1 182.031 331.23 182.771 329.48C183.481 327.72 184.021 326.09 184.351 324.69C185.041 321.9 185.171 320.11 185.281 320.12Z" fill="#263238"/>
<path d="M246.991 204.32C247.011 204.31 247.131 204.55 247.361 205.01C247.581 205.47 247.941 206.14 248.321 207.04C249.051 208.84 250.011 211.51 250.591 214.95C251.181 218.38 251.361 222.58 250.691 227.16C250.061 231.73 248.441 236.64 245.751 241.25C245.261 242.01 244.781 242.78 244.281 243.52C243.741 244.23 243.221 244.93 242.701 245.61L242.571 245.79L242.371 245.67C238.421 243.26 233.641 243.19 230.011 244.56C228.161 245.21 226.631 246.32 225.311 247.45C224.011 248.6 222.961 249.84 222.211 251.1C220.691 253.63 220.301 256.03 220.121 257.64C219.971 259.26 220.011 260.17 219.951 260.17C219.931 260.17 219.921 259.95 219.901 259.52C219.871 259.09 219.881 258.45 219.931 257.63C220.061 256.01 220.401 253.55 221.911 250.93C222.661 249.63 223.721 248.34 225.041 247.15C226.371 245.99 227.931 244.83 229.841 244.14C233.581 242.7 238.511 242.74 242.631 245.24L242.291 245.3C242.801 244.63 243.311 243.94 243.841 243.24C244.331 242.51 244.801 241.75 245.291 241C247.941 236.46 249.551 231.62 250.201 227.11C250.891 222.6 250.751 218.44 250.211 215.03C249.681 211.61 248.781 208.95 248.111 207.13C247.761 206.23 247.431 205.55 247.251 205.07C247.071 204.58 246.981 204.33 246.991 204.32Z" fill="#263238"/>
<path d="M217.891 255.66C217.871 255.67 217.761 255.47 217.571 255.09C217.361 254.66 217.081 254.11 216.741 253.42C216.031 251.97 215.041 249.85 213.701 247.3C212.351 244.77 210.631 241.76 208.071 238.97C206.751 237.63 205.251 236.3 203.421 235.38C201.591 234.47 199.531 233.9 197.351 233.79C196.491 233.77 195.631 233.83 194.831 233.85L194.501 233.86L194.551 233.56C195.191 229.47 196.261 225.7 197.361 222.34C198.481 218.99 199.661 216.05 200.761 213.64C201.871 211.23 202.911 209.37 203.711 208.13C204.101 207.5 204.441 207.04 204.671 206.74C204.901 206.43 205.031 206.28 205.041 206.29C205.081 206.32 204.601 206.97 203.871 208.24C203.131 209.5 202.141 211.38 201.081 213.8C200.021 216.21 198.881 219.15 197.801 222.5C196.731 225.85 195.681 229.6 195.061 233.65L194.781 233.35C195.601 233.33 196.491 233.27 197.371 233.29C199.611 233.4 201.761 234 203.651 234.95C205.541 235.91 207.081 237.29 208.421 238.67C211.011 241.54 212.711 244.59 214.021 247.16C215.321 249.75 216.261 251.89 216.921 253.37C217.221 254.07 217.471 254.64 217.661 255.08C217.831 255.44 217.911 255.65 217.891 255.66Z" fill="#263238"/>
<g opacity="0.2">
<g opacity="0.2">
<path opacity="0.2" d="M219.95 259.48C221.07 255.97 222.46 254.72 224.38 252.89C226.3 251.06 228.86 249.73 231.51 249.88C233.73 250 235.81 251.14 238.04 251.18C240.63 251.23 243.02 249.8 244.98 248.11C253.04 241.14 255.65 228.6 251.05 218.99C251.5 228.48 248.34 238.1 242.36 245.48C237.7 242.81 231.56 242.95 227.03 245.84C222.49 248.73 219.65 254.24 219.95 259.48Z" fill="black"/>
</g>
</g>
<path d="M265.571 280.32C265.611 280.32 265.701 280.81 265.841 281.71C265.981 282.71 266.161 283.99 266.381 285.52C266.811 288.74 267.381 293.2 267.971 298.13C268.081 299.06 268.191 299.97 268.291 300.85L268.091 300.63C272.361 301.55 275.841 303.34 278.091 304.89C279.221 305.66 280.081 306.36 280.641 306.86C281.201 307.37 281.491 307.67 281.471 307.69C281.411 307.76 280.201 306.63 277.911 305.17C275.631 303.71 272.191 302.01 267.991 301.13L267.811 301.09L267.791 300.91C267.681 300.04 267.571 299.12 267.461 298.19C266.871 293.26 266.361 288.8 266.031 285.57C265.881 284.03 265.751 282.74 265.651 281.74C265.561 280.83 265.541 280.32 265.571 280.32Z" fill="#263238"/>
<path d="M234.2 325.66C234.2 325.68 234.03 325.73 233.68 325.83C233.28 325.93 232.78 326.05 232.17 326.21C230.85 326.51 228.93 326.89 226.53 327.21C221.74 327.85 214.99 328.14 207.66 327.11C204 326.6 200.55 325.82 197.48 324.91C195.95 324.43 194.49 324.01 193.16 323.44C191.83 322.88 190.72 321.97 190.04 320.94C189.33 319.92 188.96 318.86 188.69 317.93C188.43 317 188.3 316.17 188.21 315.5C188.12 314.83 188.07 314.31 188.04 313.95C188.02 313.59 188.01 313.41 188.03 313.41C188.07 313.4 188.17 314.15 188.41 315.47C188.53 316.13 188.69 316.94 188.97 317.85C189.26 318.75 189.64 319.78 190.34 320.73C191.01 321.7 192.04 322.52 193.33 323.05C194.62 323.58 196.09 323.99 197.61 324.45C200.67 325.33 204.09 326.09 207.73 326.59C215.01 327.62 221.71 327.38 226.49 326.85C228.88 326.57 230.81 326.26 232.14 326.02C232.76 325.91 233.26 325.81 233.67 325.74C234.01 325.66 234.2 325.64 234.2 325.66Z" fill="#263238"/>
<path d="M213.32 327.26C213.35 327.35 212.63 327.55 211.62 328.14C210.61 328.72 209.36 329.77 208.39 331.27C207.44 332.77 207.01 334.35 206.9 335.51C206.79 336.67 206.91 337.4 206.81 337.42C206.76 337.43 206.51 336.71 206.53 335.49C206.54 334.28 206.94 332.58 207.95 330.99C208.96 329.41 210.34 328.34 211.44 327.82C212.55 327.28 213.31 327.21 213.32 327.26Z" fill="#263238"/>
<path d="M218.25 259.27C218.27 259.27 218.31 259.51 218.37 259.96C218.43 260.47 218.51 261.14 218.6 261.96C218.78 263.7 219.02 266.23 219.24 269.35C219.69 275.6 220.02 284.26 219.79 293.81C219.68 298.59 219.44 303.14 219.14 307.27C218.85 311.4 218.36 315.13 217.49 318.16C216.64 321.2 215.42 323.48 214.41 324.92C213.89 325.63 213.46 326.16 213.13 326.49C212.81 326.83 212.64 327 212.63 326.99C212.58 326.95 213.27 326.26 214.24 324.81C215.19 323.36 216.34 321.09 217.13 318.07C217.94 315.06 218.4 311.36 218.65 307.24C218.93 303.11 219.15 298.57 219.26 293.8C219.49 284.26 219.22 275.62 218.86 269.37C218.69 266.25 218.51 263.72 218.39 261.98C218.33 261.15 218.29 260.48 218.25 259.97C218.24 259.51 218.24 259.27 218.25 259.27Z" fill="#263238"/>
<path d="M172.961 253.9C172.971 254.04 169.221 254.46 164.571 254.82C159.931 255.19 156.151 255.37 156.141 255.22C156.131 255.08 159.881 254.66 164.531 254.3C169.171 253.93 172.941 253.75 172.961 253.9Z" fill="white"/>
<path d="M217.871 271.6C217.881 271.64 217.291 271.74 216.241 271.91C215.181 272.09 213.641 272.26 211.731 272.4C209.821 272.55 207.541 272.61 205.001 272.56C202.471 272.48 199.681 272.28 196.781 271.88C193.881 271.46 191.151 270.88 188.701 270.25C186.251 269.59 184.071 268.9 182.281 268.22C180.481 267.55 179.051 266.95 178.091 266.49C177.121 266.04 176.591 265.77 176.611 265.74C176.621 265.71 177.181 265.91 178.171 266.31C179.161 266.72 180.601 267.26 182.411 267.88C184.211 268.51 186.381 269.16 188.821 269.79C191.271 270.39 193.981 270.95 196.861 271.37C199.741 271.77 202.501 271.99 205.021 272.09C207.541 272.17 209.811 272.15 211.711 272.04C213.611 271.95 215.151 271.83 216.221 271.71C217.271 271.61 217.861 271.57 217.871 271.6Z" fill="white"/>
<path d="M259.981 256.58C260.001 256.61 259.491 256.93 258.551 257.48C257.621 258.04 256.231 258.78 254.481 259.64C252.731 260.5 250.601 261.42 248.191 262.33C245.771 263.22 243.071 264.08 240.191 264.81C237.301 265.52 234.511 266.03 231.961 266.38C229.401 266.71 227.091 266.9 225.141 266.96C223.191 267.03 221.621 267.03 220.531 266.97C219.441 266.92 218.841 266.88 218.841 266.84C218.841 266.8 219.441 266.78 220.531 266.76C221.611 266.75 223.191 266.7 225.121 266.58C227.061 266.47 229.351 266.24 231.891 265.89C234.421 265.51 237.191 265 240.061 264.29C242.931 263.57 245.611 262.72 248.031 261.86C250.431 260.98 252.571 260.1 254.331 259.29C256.091 258.48 257.501 257.79 258.461 257.29C259.421 256.81 259.961 256.55 259.981 256.58Z" fill="white"/>
<path d="M293.42 235.82C293.42 235.86 292.95 235.91 292.09 235.97C291.23 236.03 290 236.13 288.48 236.3C285.44 236.63 281.26 237.31 276.76 238.56C272.27 239.83 268.34 241.42 265.57 242.72C264.18 243.37 263.07 243.92 262.31 244.32C261.55 244.71 261.12 244.91 261.1 244.88C261.08 244.85 261.48 244.59 262.21 244.14C262.94 243.69 264.03 243.09 265.4 242.39C268.14 241 272.08 239.33 276.61 238.06C281.14 236.79 285.37 236.17 288.44 235.93C289.97 235.81 291.22 235.76 292.08 235.76C292.94 235.77 293.42 235.78 293.42 235.82Z" fill="white"/>
<path d="M298.001 277.75C297.991 277.79 297.531 277.76 296.691 277.69C295.851 277.61 294.641 277.51 293.141 277.42C290.141 277.23 285.991 277.13 281.421 277.45C276.851 277.77 272.751 278.44 269.811 279.05C268.341 279.35 267.151 279.62 266.331 279.81C265.511 280 265.051 280.09 265.041 280.05C265.031 280.02 265.471 279.86 266.281 279.61C267.081 279.35 268.261 279.03 269.731 278.69C272.661 277.99 276.781 277.26 281.381 276.93C285.981 276.61 290.161 276.77 293.161 277.05C294.661 277.19 295.871 277.35 296.711 277.49C297.541 277.62 298.001 277.72 298.001 277.75Z" fill="white"/>
<path d="M266.41 327.33C266.32 327.3 266.8 325.87 267.31 323.5C267.83 321.13 268.3 317.81 268.28 314.11C268.24 310.41 267.71 307.09 267.15 304.74C266.59 302.38 266.09 300.96 266.18 300.93C266.21 300.92 266.37 301.26 266.62 301.9C266.88 302.53 267.19 303.47 267.51 304.65C268.17 307.01 268.77 310.36 268.81 314.11C268.84 317.85 268.29 321.22 267.68 323.59C267.38 324.77 267.08 325.72 266.84 326.36C266.59 327 266.44 327.34 266.41 327.33Z" fill="white"/>
<path d="M170.151 292.51C170.151 292.59 169.041 292.62 167.271 292.75C165.491 292.87 163.041 293.12 160.371 293.6C157.701 294.08 155.311 294.7 153.601 295.2C151.891 295.7 150.841 296.05 150.811 295.98C150.791 295.92 151.791 295.45 153.491 294.85C155.181 294.25 157.581 293.57 160.281 293.08C162.981 292.6 165.461 292.41 167.251 292.38C169.041 292.35 170.151 292.45 170.151 292.51Z" fill="white"/>
<path d="M177.161 334.5C177.161 334.52 177.031 334.53 176.781 334.53C176.531 334.52 176.161 334.54 175.691 334.49C174.741 334.43 173.371 334.23 171.741 333.74C168.501 332.8 164.141 330.39 161.141 326.05C158.151 321.71 157.451 316.77 157.721 313.41C157.841 311.71 158.141 310.36 158.421 309.45C158.541 308.99 158.691 308.65 158.771 308.42C158.861 308.19 158.921 308.07 158.931 308.07C159.051 308.1 158.231 310.07 158.081 313.42C157.911 316.73 158.661 321.52 161.561 325.74C164.481 329.95 168.691 332.36 171.841 333.37C175.041 334.45 177.171 334.38 177.161 334.5Z" fill="white"/>
<path d="M199.901 341.07C199.861 341.21 195.601 340.25 190.371 338.93C185.141 337.61 180.931 336.42 180.961 336.28C181.001 336.14 185.261 337.1 190.491 338.42C195.721 339.74 199.931 340.93 199.901 341.07Z" fill="white"/>
<path d="M253.311 331.2C253.331 331.23 252.871 331.48 252.021 331.91C251.181 332.34 249.941 332.92 248.401 333.6C245.311 334.96 240.951 336.65 236.011 338.13C231.061 339.6 226.491 340.57 223.161 341.12C221.491 341.4 220.141 341.59 219.201 341.69C218.261 341.79 217.741 341.84 217.741 341.8C217.741 341.76 218.251 341.66 219.171 341.49C220.101 341.33 221.441 341.08 223.091 340.76C226.391 340.12 230.941 339.1 235.861 337.63C240.781 336.16 245.141 334.53 248.261 333.26C249.821 332.63 251.081 332.1 251.941 331.72C252.811 331.36 253.301 331.17 253.311 331.2Z" fill="white"/>
<path d="M217.831 302.72C217.841 302.75 217.431 302.88 216.671 303.09C215.921 303.3 214.821 303.55 213.451 303.8C210.711 304.32 206.861 304.77 202.601 304.75C198.331 304.72 194.491 304.21 191.761 303.66C190.391 303.39 189.291 303.12 188.541 302.91C187.791 302.7 187.381 302.56 187.391 302.53C187.401 302.5 187.831 302.56 188.591 302.71C189.351 302.87 190.461 303.07 191.821 303.3C194.561 303.76 198.371 304.2 202.601 304.23C206.831 304.25 210.651 303.86 213.391 303.44C214.761 303.23 215.871 303.04 216.631 302.89C217.391 302.75 217.821 302.68 217.831 302.72Z" fill="white"/>
<path d="M233.55 302.88C233.57 302.94 232.89 303.28 231.71 303.66C230.54 304.04 228.86 304.42 226.98 304.56C225.1 304.7 223.38 304.56 222.17 304.36C220.95 304.16 220.23 303.92 220.24 303.86C220.27 303.7 223.25 304.33 226.95 304.04C230.64 303.78 233.5 302.72 233.55 302.88Z" fill="white"/>
<path d="M198.82 216.91C198.83 216.99 197.39 217.15 195.1 217.53C192.81 217.91 189.66 218.57 186.28 219.61C182.9 220.66 179.93 221.9 177.82 222.88C175.71 223.86 174.44 224.54 174.4 224.47C174.38 224.44 174.68 224.24 175.24 223.89C175.79 223.54 176.62 223.08 177.66 222.55C179.74 221.48 182.71 220.18 186.13 219.12C189.55 218.07 192.73 217.46 195.05 217.17C196.21 217.02 197.15 216.94 197.81 216.91C198.46 216.88 198.82 216.88 198.82 216.91Z" fill="white"/>
<path d="M205.57 220.9C205.7 220.93 205.11 223.64 203.9 226.84C202.7 230.04 201.36 232.47 201.24 232.41C201.1 232.34 202.23 229.83 203.42 226.66C204.61 223.49 205.43 220.86 205.57 220.9Z" fill="white"/>
<path d="M236.981 228.23C237.131 228.26 236.451 231.59 236.001 235.75C235.541 239.9 235.471 243.3 235.321 243.3C235.251 243.3 235.181 242.45 235.181 241.07C235.181 239.69 235.261 237.78 235.491 235.69C235.721 233.6 236.061 231.72 236.361 230.37C236.661 229.03 236.911 228.22 236.981 228.23Z" fill="white"/>
<path d="M248.941 228.59C248.791 228.63 248.241 226.87 247.081 224.95C245.931 223.02 244.631 221.7 244.741 221.59C244.821 221.49 246.331 222.67 247.531 224.68C248.731 226.68 249.071 228.57 248.941 228.59Z" fill="white"/>
<path d="M178.34 293.59C178.92 290.34 178.88 286.98 178.24 283.74C177.85 281.79 177.49 279.77 177.77 277.8C178.05 275.83 179.78 273.69 181.76 273.77L185.36 287.96L178.34 293.59Z" fill="#FFBE9D"/>
<path d="M178.26 259.91L190.96 310.08L215.78 307.48L206.23 257.72C205.98 256.41 204.8 255.48 203.47 255.54L180.75 256.56C179.04 256.64 177.84 258.26 178.26 259.91Z" fill="#263238"/>
<path d="M206.81 271.84C206.77 271.85 206.62 271.32 206.37 270.37C206.11 269.32 205.77 267.95 205.35 266.31C204.93 264.56 204.45 262.52 203.91 260.27C203.84 259.99 203.79 259.68 203.69 259.45C203.59 259.21 203.43 258.99 203.22 258.83C203.02 258.66 202.77 258.55 202.5 258.5C202.25 258.45 201.94 258.49 201.61 258.5C200.34 258.55 199.03 258.6 197.68 258.65C192.29 258.85 187.41 259.01 183.88 259.1C182.19 259.13 180.78 259.16 179.7 259.18C178.71 259.19 178.16 259.17 178.16 259.14C178.16 259.1 178.7 259.05 179.69 258.98C180.77 258.92 182.18 258.84 183.87 258.74C187.4 258.56 192.27 258.34 197.66 258.14C199.01 258.09 200.32 258.04 201.59 258C201.9 258 202.22 257.95 202.59 258.02C202.94 258.08 203.27 258.24 203.53 258.46C203.8 258.68 204.01 258.97 204.14 259.28C204.27 259.61 204.3 259.89 204.37 260.18C204.87 262.44 205.32 264.48 205.7 266.24C206.05 267.9 206.33 269.28 206.55 270.34C206.76 271.29 206.85 271.83 206.81 271.84Z" fill="#455A64"/>
<path d="M193.03 261.38C192.77 260.94 192.25 260.42 191.51 260.71C191.22 260.76 190.67 261.22 190.67 261.74C190.67 262.25 190.96 262.75 191.41 262.98C191.86 263.21 192.45 263.13 192.82 262.78C193.19 262.42 193.29 261.81 193.03 261.38Z" fill="#FAFAFA"/>
<path d="M193.01 276.68C192.44 276.85 179.57 284.22 179.57 284.22L173.01 291.76C173.01 291.76 170.72 296.06 173.01 302.51C175.3 308.96 178.69 311.12 186.34 312.66L200.55 309.78L210.55 303.55L207.6 292.24L197.77 300.11L192.2 301.09L191.28 299.29L199.31 294.67L211.87 284.05L207.94 279.79L196.3 287.33L186.35 292.25L187.77 288.15L199.31 278.81C199.3 278.81 200.05 274.55 193.01 276.68Z" fill="#FFBE9D"/>
<path d="M193.96 269.68C193.96 269.68 196.63 267.99 201.28 269.68C205.92 271.37 211.85 273.97 211.85 273.97L220.69 276.08L219.56 273.97C219.56 273.97 210.98 275.22 211.12 268.93H216.33L220.69 266.44L229.84 274.6L233.92 284.87L239.55 289.16L232.69 306.69L218.16 304.29L205.78 305.56L199.3 300.78L198.33 294.38L191.93 288.4C191.93 288.4 191.02 285.3 193.83 284.88C196.64 284.46 203.75 290.92 203.75 290.92L210.58 290.79C210.58 290.79 211.71 289.66 210.72 289.1C209.73 288.54 189.19 279.53 188.21 277.35C187.22 275.17 186.24 273.76 188.21 273.06C190.18 272.36 193.56 273.34 193.56 273.34C193.56 273.34 192.47 270.23 193.96 269.68Z" fill="#FFBE9D"/>
<path d="M211.13 281.31C211.07 281.44 206.98 279.75 201.99 277.52C197 275.3 193 273.39 193.06 273.26C193.12 273.13 197.21 274.82 202.2 277.05C207.19 279.27 211.18 281.18 211.13 281.31Z" fill="#EB996E"/>
<path d="M215.881 297.19C215.891 297.22 215.531 297.36 214.871 297.57C214.211 297.77 213.251 298.06 212.041 298.33C210.831 298.59 209.351 298.84 207.691 298.82C206.031 298.81 204.191 298.43 202.451 297.61C198.941 295.99 196.541 293.37 194.941 291.52C194.141 290.58 193.521 289.79 193.111 289.23C192.701 288.68 192.481 288.36 192.511 288.34C192.571 288.29 193.561 289.46 195.221 291.28C196.881 293.06 199.281 295.58 202.671 297.15C204.351 297.93 206.101 298.31 207.701 298.35C209.311 298.4 210.761 298.19 211.961 297.98C214.381 297.51 215.861 297.11 215.881 297.19Z" fill="#EB996E"/>
<path d="M239.56 289.17C239.56 289.17 239.43 289.09 239.18 288.91C238.92 288.72 238.55 288.45 238.09 288.11C237.11 287.38 235.7 286.32 233.88 284.96L233.86 284.94L233.85 284.91C232.77 282.24 231.38 278.78 229.72 274.66L229.76 274.72C227.06 272.33 223.98 269.6 220.59 266.59L220.81 266.61C219.46 267.38 217.98 268.23 216.45 269.11L216.4 269.14H216.35C214.73 269.14 212.96 269.15 211.14 269.15L211.35 268.95C211.4 269.81 211.46 270.72 211.96 271.46C212.41 272.21 213.13 272.78 213.96 273.15C215.64 273.88 217.64 273.96 219.55 273.76L219.71 273.74L219.78 273.88C220.13 274.53 220.52 275.26 220.91 275.99L221.15 276.44L220.65 276.32C217.86 275.66 214.87 274.95 211.8 274.22H211.78L211.76 274.21C209.02 273.02 206.17 271.83 203.22 270.7C201.74 270.14 200.27 269.52 198.7 269.31C197.16 269.09 195.46 269.21 194.1 269.92L194.06 269.94H194.05C193.59 270.1 193.41 270.72 193.43 271.35C193.45 271.98 193.58 272.65 193.79 273.28L193.94 273.74L193.48 273.61C192.53 273.35 191.52 273.17 190.51 273.11C189.52 273.06 188.42 273.1 187.67 273.66C187.3 273.92 187.28 274.36 187.4 274.84C187.53 275.32 187.76 275.8 187.98 276.28C188.23 276.75 188.39 277.32 188.72 277.6C189.09 277.94 189.53 278.25 189.97 278.54C193.66 280.83 197.6 282.66 201.4 284.5C203.32 285.39 205.21 286.28 207.08 287.15C208.02 287.58 208.95 288.01 209.88 288.44L210.58 288.77C210.8 288.87 211.12 289.02 211.28 289.35C211.45 289.68 211.35 290.04 211.24 290.3C211.11 290.57 210.96 290.78 210.76 290.99L210.69 291.06H210.58C208.26 291.1 205.99 291.14 203.75 291.18H203.65L203.58 291.11C201.44 289.22 199.24 287.45 196.89 286.1C195.73 285.48 194.43 284.8 193.26 285.27C192.68 285.47 192.27 285.94 192.11 286.52C191.96 287.1 191.99 287.75 192.14 288.33L192.08 288.23C194.31 290.32 196.43 292.31 198.47 294.22L198.52 294.27L198.53 294.34C198.86 296.55 199.18 298.69 199.49 300.75L199.41 300.62C201.71 302.32 203.86 303.92 205.88 305.42L205.76 305.39C210.52 304.92 214.63 304.51 218.15 304.17H218.17H218.19C222.83 304.97 226.45 305.59 228.94 306.01C230.15 306.23 231.09 306.39 231.74 306.51C232.04 306.57 232.28 306.61 232.45 306.65C232.61 306.68 232.69 306.7 232.69 306.71C232.69 306.72 232.61 306.71 232.45 306.69C232.27 306.66 232.03 306.63 231.73 306.59C231.07 306.49 230.13 306.35 228.91 306.16C226.42 305.76 222.79 305.18 218.14 304.44H218.18C214.67 304.81 210.56 305.25 205.8 305.75L205.73 305.76L205.67 305.72C203.64 304.23 201.48 302.64 199.17 300.95L199.1 300.9L199.09 300.82C198.77 298.76 198.44 296.63 198.1 294.42L198.16 294.54C196.11 292.63 193.98 290.65 191.75 288.57L191.7 288.53L191.69 288.47C191.52 287.8 191.48 287.11 191.65 286.41C191.74 286.06 191.92 285.73 192.16 285.45C192.42 285.19 192.73 284.96 193.07 284.85C193.73 284.57 194.53 284.63 195.19 284.84C195.85 285.06 196.49 285.35 197.09 285.7C199.5 287.08 201.71 288.85 203.88 290.76L203.71 290.7C205.95 290.66 208.22 290.61 210.54 290.56L210.37 290.63C210.67 290.32 210.94 289.83 210.8 289.57C210.67 289.31 210.07 289.12 209.64 288.9C208.71 288.47 207.78 288.04 206.84 287.61C204.96 286.74 203.07 285.85 201.15 284.96C197.34 283.12 193.42 281.3 189.66 278.97C189.2 278.67 188.75 278.36 188.33 277.96C188.12 277.79 187.91 277.43 187.83 277.22L187.49 276.49C187.27 276 187.03 275.51 186.88 274.96C186.81 274.68 186.77 274.38 186.82 274.06C186.87 273.74 187.08 273.43 187.32 273.25C188.31 272.53 189.48 272.55 190.52 272.58C191.58 272.65 192.6 272.84 193.6 273.11L193.28 273.44C193.06 272.75 192.92 272.07 192.9 271.35C192.89 271 192.93 270.63 193.07 270.27C193.2 269.92 193.5 269.59 193.87 269.45L193.82 269.47C195.4 268.65 197.13 268.57 198.76 268.79C200.41 269.02 201.92 269.66 203.39 270.21C206.34 271.36 209.19 272.55 211.94 273.75L211.9 273.74C214.97 274.48 217.96 275.2 220.74 275.87L220.48 276.2C220.09 275.46 219.7 274.73 219.36 274.08L219.59 274.2C217.59 274.41 215.57 274.32 213.76 273.54C212.87 273.14 212.07 272.5 211.57 271.67C211.02 270.84 210.96 269.85 210.91 268.93L210.9 268.72H211.12C212.94 268.72 214.71 268.73 216.33 268.73L216.23 268.76C217.76 267.89 219.24 267.05 220.6 266.28L220.72 266.21L220.82 266.3C224.2 269.33 227.26 272.08 229.94 274.49L229.97 274.51L229.98 274.54C231.6 278.68 232.96 282.15 234.01 284.83L233.98 284.79C235.78 286.19 237.17 287.27 238.14 288.02C238.6 288.38 238.95 288.66 239.2 288.86C239.44 289.07 239.56 289.17 239.56 289.17Z" fill="#EB996E"/>
<path d="M69.5205 151.02L138.861 119L120.671 186.82L105.141 173.98L94.5805 180.96L88.9605 179.89L83.1105 158.01L69.5205 151.02Z" fill="#E8505B"/>
<g opacity="0.5">
<path opacity="0.5" d="M89.2403 179.19L138.86 119L83.1104 158.01L89.2403 179.19Z" fill="black"/>
</g>
<path d="M139.06 118.15C139.18 118.22 132.08 130.44 123.2 145.43C114.32 160.43 107.02 172.52 106.89 172.45C106.77 172.38 113.87 160.16 122.75 145.17C131.64 130.17 138.94 118.08 139.06 118.15Z" fill="#263238"/>
<path d="M116.681 130.56C116.741 130.69 107.321 135.24 95.6507 140.71C83.9707 146.19 74.4607 150.52 74.4007 150.39C74.3407 150.26 83.7507 145.71 95.4307 140.24C107.111 134.77 116.621 130.43 116.681 130.56Z" fill="white"/>
<path d="M121.731 128.49C121.791 128.62 121.381 128.94 120.811 129.2C120.241 129.46 119.731 129.57 119.671 129.44C119.611 129.31 120.021 128.99 120.591 128.73C121.161 128.46 121.671 128.36 121.731 128.49Z" fill="white"/>
<path d="M119.551 154.08C119.611 154.11 119.101 155.23 118.161 156.98C117.221 158.73 115.851 161.11 114.211 163.66C112.571 166.21 110.981 168.45 109.771 170.03C108.571 171.61 107.761 172.54 107.711 172.5C107.651 172.45 108.351 171.44 109.471 169.81C110.591 168.18 112.141 165.92 113.771 163.38C115.401 160.84 116.821 158.5 117.831 156.8C118.851 155.1 119.481 154.05 119.551 154.08Z" fill="white"/>
<path d="M82.7103 184.23C82.6403 184.11 83.2803 183.62 84.1803 183.23C85.0703 182.83 85.8603 182.68 85.9103 182.81C85.9603 182.95 85.2703 183.31 84.3903 183.7C83.5103 184.09 82.7703 184.36 82.7103 184.23Z" fill="#263238"/>
<path d="M72.5406 193.33C72.4206 193.25 73.1906 191.89 74.4606 190.44C75.7306 188.99 76.9806 188.06 77.0706 188.16C77.1706 188.27 76.0906 189.36 74.8506 190.78C73.6106 192.2 72.6706 193.41 72.5406 193.33Z" fill="#263238"/>
<path d="M67.6002 206.03C67.4602 206.02 67.5102 204.45 68.0002 202.59C68.4802 200.73 69.1902 199.33 69.3102 199.39C69.4502 199.45 68.9702 200.9 68.5002 202.72C68.0302 204.54 67.7502 206.05 67.6002 206.03Z" fill="#263238"/>
<path d="M69.4306 219.52C69.3006 219.58 68.5706 218.19 68.0706 216.33C67.5606 214.47 67.4906 212.91 67.6306 212.89C67.7806 212.87 68.0706 214.38 68.5706 216.19C69.0606 218.01 69.5606 219.46 69.4306 219.52Z" fill="#263238"/>
<path d="M77.3799 230.61C77.2899 230.72 76.0199 229.8 74.7299 228.38C73.4399 226.96 72.6399 225.61 72.7599 225.53C72.8799 225.44 73.8499 226.64 75.1199 228.03C76.3799 229.43 77.4799 230.5 77.3799 230.61Z" fill="#263238"/>
<path d="M89.5206 236.77C89.5106 236.84 89.1206 236.81 88.5006 236.71C87.8806 236.62 87.0306 236.42 86.1306 236.09C84.3206 235.44 83.0006 234.6 83.0606 234.48C83.1306 234.35 84.5306 234.97 86.3006 235.6C87.1806 235.92 88.0006 236.18 88.5906 236.36C89.1706 236.54 89.5306 236.7 89.5206 236.77Z" fill="#263238"/>
<path d="M102.8 234.74C102.89 234.85 101.64 235.86 99.8003 236.49C97.9603 237.12 96.3803 237.15 96.3703 237.02C96.3503 236.87 97.8703 236.61 99.6303 236C101.4 235.4 102.72 234.62 102.8 234.74Z" fill="#263238"/>
<path d="M107.551 222.74C107.671 222.7 108.191 224.22 108.081 226.18C107.981 228.14 107.231 229.58 107.111 229.52C106.971 229.46 107.471 228.01 107.561 226.15C107.671 224.29 107.391 222.78 107.551 222.74Z" fill="#263238"/>
<path d="M99.2206 212.44C99.2606 212.31 100.811 212.75 102.351 213.95C103.901 215.14 104.741 216.5 104.631 216.57C104.511 216.67 103.511 215.5 102.031 214.36C100.561 213.22 99.1606 212.59 99.2206 212.44Z" fill="#263238"/>
<path d="M85.83 213.01C85.77 212.89 87.14 212.11 89.02 211.64C90.9 211.16 92.48 211.23 92.48 211.37C92.49 211.52 90.96 211.68 89.15 212.14C87.33 212.6 85.9 213.15 85.83 213.01Z" fill="#263238"/>
<path d="M75.7903 222.09C75.6703 222.02 76.3303 220.6 77.5303 219.09C78.7803 217.63 80.0103 216.65 80.0803 216.74C80.1903 216.87 79.1603 217.99 77.9403 219.41C76.7703 220.89 75.9203 222.16 75.7903 222.09Z" fill="#263238"/>
<path d="M71.6698 235.11C71.5298 235.1 71.5698 233.54 71.9498 231.66C72.3298 229.78 72.9198 228.33 73.0498 228.38C73.1898 228.42 72.8298 229.92 72.4598 231.76C72.0798 233.61 71.8198 235.13 71.6698 235.11Z" fill="#263238"/>
<path d="M72.1304 248.82C71.9904 248.85 71.5905 247.34 71.4005 245.44C71.2005 243.54 71.2804 241.98 71.4204 241.98C71.5704 241.98 71.7204 243.51 71.9204 245.38C72.1104 247.27 72.2704 248.79 72.1304 248.82Z" fill="#263238"/>
<path d="M76.2004 261.92C76.0704 261.98 75.3104 260.63 74.6304 258.84C73.9404 257.06 73.6104 255.54 73.7504 255.5C73.8904 255.46 74.4404 256.89 75.1204 258.65C75.7904 260.42 76.3404 261.86 76.2004 261.92Z" fill="#263238"/>
<path d="M83.3705 273.63C83.2605 273.72 82.2005 272.59 81.1005 271.02C80.0005 269.45 79.3105 268.06 79.4305 267.99C79.5605 267.91 80.4405 269.17 81.5305 270.72C82.6105 272.27 83.4805 273.54 83.3705 273.63Z" fill="#263238"/>
<path d="M93.1399 283.27C93.0599 283.38 91.7499 282.55 90.3099 281.29C88.8699 280.03 87.8599 278.85 87.9599 278.75C88.0599 278.65 89.2299 279.65 90.6499 280.9C92.0799 282.14 93.2299 283.15 93.1399 283.27Z" fill="#263238"/>
<path d="M105.03 290.12C104.98 290.25 103.49 289.79 101.78 288.94C100.06 288.1 98.7902 287.21 98.8602 287.09C98.9302 286.96 100.31 287.64 102.01 288.48C103.7 289.32 105.08 289.99 105.03 290.12Z" fill="#263238"/>
<path d="M118.43 292.81C118.43 292.95 116.88 293.06 114.97 292.87C113.06 292.69 111.56 292.26 111.59 292.12C111.62 291.98 113.14 292.17 115.02 292.35C116.9 292.54 118.44 292.66 118.43 292.81Z" fill="#263238"/>
<path d="M132.09 291.41C132.12 291.55 130.63 291.99 128.75 292.29C126.87 292.59 125.31 292.63 125.3 292.49C125.29 292.34 126.8 292.08 128.67 291.77C130.53 291.47 132.06 291.26 132.09 291.41Z" fill="#263238"/>
<path d="M145.291 287.57C145.341 287.7 143.911 288.3 142.111 288.9C140.301 289.5 138.801 289.87 138.761 289.73C138.721 289.59 140.151 289 141.941 288.4C143.741 287.81 145.241 287.44 145.291 287.57Z" fill="#263238"/>
<path d="M157.901 282.07C157.971 282.2 156.621 282.96 154.901 283.77C153.181 284.58 151.731 285.13 151.681 285C151.621 284.87 152.971 284.11 154.681 283.3C156.391 282.5 157.841 281.95 157.901 282.07Z" fill="#263238"/>
<path d="M169.82 275.19C169.9 275.31 168.65 276.22 167.03 277.22C165.41 278.22 164.03 278.93 163.96 278.8C163.89 278.68 165.14 277.77 166.75 276.77C168.36 275.78 169.74 275.07 169.82 275.19Z" fill="#263238"/>
<path d="M178.17 269.05C178.26 269.16 177.72 269.74 176.96 270.34C176.2 270.94 175.51 271.34 175.43 271.22C175.34 271.11 175.88 270.53 176.64 269.93C177.4 269.33 178.08 268.94 178.17 269.05Z" fill="#263238"/>
</g>
<defs>
<clipPath id="clip0">
<rect width="449.86" height="438.09" fill="white"/>
</clipPath>
</defs>
</svg>
