<svg xmlns="http://www.w3.org/2000/svg" xmlns:xlink="http://www.w3.org/1999/xlink"><defs><symbol viewBox="0 0 34 34" fill="none" id="angle-right">
<path fill-rule="evenodd" clip-rule="evenodd" d="M11.4904 27.5188C10.8365 26.8772 10.8365 25.837 11.4904 25.1955L20.352 16.5L11.4904 7.80453C10.8365 7.16296 10.8365 6.12276 11.4904 5.48118C12.1442 4.83961 13.2043 4.83961 13.8581 5.48118L23.9036 15.3383C24.5574 15.9799 24.5574 17.0201 23.9036 17.6617L13.8581 27.5188C13.2043 28.1604 12.1442 28.1604 11.4904 27.5188Z" fill="#303864" />
</symbol><symbol viewBox="0 0 34 34" fill="none" id="arrow-down">
<path fill-rule="evenodd" clip-rule="evenodd" d="M4.43934 16.4393C5.02513 15.8536 5.97487 15.8536 6.56066 16.4393L17.5 27.3787L28.4393 16.4393C29.0251 15.8536 29.9749 15.8536 30.5607 16.4393C31.1464 17.0251 31.1464 17.9749 30.5607 18.5607L18.5607 30.5607C17.9749 31.1464 17.0251 31.1464 16.4393 30.5607L4.43934 18.5607C3.85355 17.9749 3.85355 17.0251 4.43934 16.4393Z" fill="#0CD725" />
<path fill-rule="evenodd" clip-rule="evenodd" d="M17.5 4C18.3284 4 19 4.67157 19 5.5V29.5C19 30.3284 18.3284 31 17.5 31C16.6716 31 16 30.3284 16 29.5V5.5C16 4.67157 16.6716 4 17.5 4Z" fill="#0CD725" />
</symbol><symbol viewBox="0 0 34 34" id="arrow-left">
<path d="M17.9428 5.39052C18.4635 5.91122 18.4635 6.75544 17.9429 7.27614L8.21899 17L17.9429 26.7239C18.4636 27.2446 18.4636 28.0888 17.9429 28.6095C17.4222 29.1302 16.5779 29.1302 16.0572 28.6095L5.39057 17.9428C4.86987 17.4221 4.86987 16.5779 5.39057 16.0572L16.0572 5.39052C16.5779 4.86983 17.4222 4.86983 17.9428 5.39052Z" />
<path d="M29 17.0001C29 17.7365 28.403 18.3334 27.6667 18.3334L6.33333 18.3334C5.59695 18.3334 5 17.7365 5 17.0001C5 16.2637 5.59695 15.6668 6.33333 15.6668L27.6667 15.6667C28.403 15.6667 29 16.2637 29 17.0001Z" />
</symbol><symbol viewBox="0 0 34 34" id="arrow-right">
<path d="M16.0572 28.6095C15.5365 28.0888 15.5365 27.2446 16.0572 26.7239L25.781 17L16.0571 7.27614C15.5365 6.75544 15.5365 5.91122 16.0571 5.39052C16.5778 4.86982 17.4221 4.86982 17.9428 5.39052L28.6094 16.0572C29.1301 16.5779 29.1301 17.4221 28.6094 17.9428L17.9428 28.6095C17.4221 29.1302 16.5778 29.1302 16.0572 28.6095Z" />
<path d="M5 16.9999C5 16.2635 5.59695 15.6666 6.33333 15.6666L27.6667 15.6666C28.403 15.6666 29 16.2635 29 16.9999C29 17.7363 28.403 18.3333 27.6667 18.3333L6.33333 18.3333C5.59695 18.3333 5 17.7363 5 16.9999Z" />
</symbol><symbol viewBox="0 0 24 24" fill="none" id="brilliant">
<path d="M19.9241 8.60938L17.7366 4.4375C17.6741 4.3125 17.5699 4.20833 17.4241 4.125C17.2783 4.04167 17.1376 4 17.0022 4H7.00223C6.86682 4 6.72619 4.04167 6.58036 4.125C6.43452 4.20833 6.33036 4.3125 6.26786 4.4375L4.08036 8.53125C4.01786 8.65625 3.99182 8.80208 4.00223 8.96875C4.01265 9.13542 4.05952 9.27083 4.14286 9.375L11.6429 19.8438C11.7262 19.9479 11.8251 20 11.9397 20C11.9918 20 12.0439 19.987 12.096 19.9609C12.1481 19.9349 12.1949 19.8958 12.2366 19.8438L19.8616 9.46875C20.0283 9.22917 20.0595 8.96875 19.9554 8.6875C19.9449 8.65625 19.9345 8.63021 19.9241 8.60938ZM18.721 8.5H16.0491L17.1272 5.42188L18.721 8.5ZM12.9866 5H16.2054L15.2054 7.85938L12.9866 5ZM14.4397 8.5H9.79911L11.9866 5.34375L14.4397 8.5ZM8.90848 8.01562L7.90848 5H11.0179L8.90848 8.01562ZM14.6429 9.5L11.9554 17.1875L9.39286 9.5H14.6429ZM10.8304 16.9844L5.45536 9.5H8.34598L10.8304 16.9844ZM15.7054 9.5H18.596L13.0804 17L15.7054 9.5ZM6.93973 5.28125L8.01786 8.5H5.23661L6.93973 5.28125Z" fill="#303864" />
</symbol><symbol viewBox="0 0 34 34" fill="none" id="caret-right">
<path d="M8 5.30078L8 28.7014C8.00073 28.9384 8.06451 29.1706 8.18448 29.3731C8.30445 29.5757 8.47606 29.7409 8.68085 29.8509C8.88564 29.961 9.11585 30.0117 9.3467 29.9977C9.57754 29.9837 9.80029 29.9054 9.99095 29.7714L26.487 18.071C27.171 17.5861 27.171 16.4187 26.487 15.9325L9.99096 4.23215C9.80069 4.09672 9.57783 4.0173 9.3466 4.00252C9.11537 3.98774 8.8846 4.03817 8.67938 4.14832C8.47416 4.25847 8.30232 4.42414 8.18255 4.62732C8.06277 4.8305 7.99964 5.06342 8 5.30078ZM23.5355 17.0011L10.5379 26.221L10.5379 7.78125L23.5355 17.0011Z" fill="#303864" />
</symbol><symbol viewBox="0 0 34 34" fill="none" id="check">
<path fill-rule="evenodd" clip-rule="evenodd" d="M25.2424 8.63562C25.6539 8.22992 26.2094 8.0016 26.7888 8.00001C27.3682 7.99842 27.9249 8.22369 28.3386 8.62712C28.7523 9.03056 28.9898 9.57973 28.9997 10.1559C29.0096 10.7321 28.791 11.289 28.3914 11.7062L16.6541 26.299C16.4524 26.5151 16.2089 26.6885 15.9383 26.8089C15.6676 26.9293 15.3753 26.9942 15.0789 26.9996C14.7825 27.0051 14.488 26.951 14.213 26.8407C13.9381 26.7304 13.6883 26.566 13.4787 26.3575L5.70185 18.6195C5.4852 18.4187 5.31142 18.1766 5.1909 17.9075C5.07038 17.6385 5.00557 17.3481 5.00034 17.0536C4.99512 16.7591 5.04959 16.4666 5.16049 16.1935C5.2714 15.9203 5.43648 15.6723 5.64587 15.464C5.85527 15.2557 6.1047 15.0915 6.37928 14.9812C6.65386 14.8709 6.94797 14.8167 7.24405 14.8219C7.54014 14.8271 7.83214 14.8916 8.10264 15.0115C8.37313 15.1313 8.61658 15.3042 8.81846 15.5197L14.9752 21.6404L25.1866 8.69996C25.2048 8.6773 25.2244 8.65582 25.2454 8.63562H25.2424Z" fill="#0CD725" />
</symbol><symbol viewBox="0 0 11 11" fill="none" id="check-circle">
<path fill-rule="evenodd" clip-rule="evenodd" d="M10.0975 5.3375C10.0975 6.58733 9.61308 7.78598 8.75087 8.66974C7.88866 9.55351 6.71925 10.05 5.49991 10.05C4.28056 10.05 3.11115 9.55351 2.24894 8.66974C1.38673 7.78598 0.902344 6.58733 0.902344 5.3375C0.902344 4.08767 1.38673 2.88902 2.24894 2.00526C3.11115 1.12149 4.28056 0.625 5.49991 0.625C6.71925 0.625 7.88866 1.12149 8.75087 2.00526C9.61308 2.88902 10.0975 4.08767 10.0975 5.3375V5.3375ZM7.81593 3.55264C7.77488 3.51071 7.726 3.4777 7.67221 3.45557C7.61843 3.43345 7.56084 3.42267 7.5029 3.42388C7.44496 3.42509 7.38785 3.43826 7.33499 3.46261C7.28213 3.48696 7.23461 3.52199 7.19526 3.5656L5.19934 6.1722L3.9965 4.9387C3.9148 4.86067 3.80673 4.81818 3.69506 4.8202C3.5834 4.82222 3.47686 4.86859 3.39789 4.94953C3.31892 5.03048 3.27368 5.13968 3.27171 5.25413C3.26974 5.36859 3.31119 5.47936 3.38733 5.56311L4.90797 7.12236C4.94893 7.16427 4.99772 7.1973 5.0514 7.21947C5.10509 7.24164 5.16259 7.2525 5.22046 7.2514C5.27833 7.2503 5.33539 7.23726 5.38824 7.21307C5.44109 7.18888 5.48864 7.15402 5.52807 7.11058L7.82225 4.17116C7.90046 4.0878 7.94367 3.97634 7.94259 3.8607C7.94152 3.74505 7.89625 3.63445 7.8165 3.55264H7.81593Z" fill="#0CD725" />
</symbol><symbol viewBox="0 0 8 8" fill="none" id="circles">
<circle cx="1.75" cy="1.75" r="1.25" stroke="#303964" />
<circle cx="1.75" cy="6.25" r="1.25" stroke="#303964" />
<circle cx="6.25" cy="1.75" r="1.25" stroke="#303964" />
<circle cx="6.25" cy="6.25" r="1.25" stroke="#303964" />
</symbol><symbol viewBox="0 0 22 23" id="close">
<path d="M21.5967 0.407299C21.7247 0.536081 21.8263 0.689069 21.8956 0.8575C21.9649 1.02593 22.0006 1.2065 22.0006 1.38885C22.0006 1.57121 21.9649 1.75177 21.8956 1.9202C21.8263 2.08863 21.7247 2.24162 21.5967 2.3704L2.35072 21.7796C2.09259 22.04 1.74248 22.1862 1.37743 22.1862C1.01237 22.1862 0.662263 22.04 0.404129 21.7796C0.145995 21.5193 0.000976565 21.1662 0.000976562 20.7981C0.00097656 20.4299 0.145995 20.0769 0.404129 19.8165L19.6501 0.407299C19.7778 0.278191 19.9295 0.175758 20.0965 0.105866C20.2635 0.0359753 20.4426 0 20.6234 0C20.8042 0 20.9833 0.0359753 21.1503 0.105866C21.3173 0.175758 21.469 0.278191 21.5967 0.407299Z" />
<path d="M0.403873 0.407299C0.275851 0.536081 0.174279 0.689069 0.104976 0.8575C0.0356727 1.02593 0 1.2065 0 1.38885C0 1.57121 0.0356727 1.75177 0.104976 1.9202C0.174279 2.08863 0.275851 2.24162 0.403873 2.3704L19.6499 21.7796C19.908 22.04 20.2581 22.1862 20.6231 22.1862C20.9882 22.1862 21.3383 22.04 21.5964 21.7796C21.8546 21.5193 21.9996 21.1662 21.9996 20.7981C21.9996 20.4299 21.8546 20.0769 21.5964 19.8165L2.35047 0.407299C2.22277 0.278191 2.07107 0.175758 1.90405 0.105866C1.73704 0.0359753 1.55799 0 1.37717 0C1.19635 0 1.0173 0.0359753 0.850288 0.105866C0.683273 0.175758 0.531572 0.278191 0.403873 0.407299Z" />
</symbol><symbol viewBox="0 0 84 86" fill="none" id="double-leaf">
<path fill-rule="evenodd" clip-rule="evenodd" d="M22.2651 77.9667C52.0531 77.3064 75.6657 52.6232 75.0054 22.8352C74.891 17.6725 74.0549 12.6953 72.5958 7.99776C69.1418 7.3862 65.577 7.10424 61.9359 7.18495C32.1479 7.84525 8.53527 32.5284 9.19557 62.3164C9.31001 67.4791 10.1461 72.4563 11.6052 77.1538C15.0592 77.7654 18.624 78.0474 22.2651 77.9667Z" fill="#303864" />
<path fill-rule="evenodd" clip-rule="evenodd" d="M12.4467 71.7204C41.6025 79.5326 71.571 62.2303 79.3833 33.0745C80.7373 28.0214 81.3368 22.9438 81.2511 17.9614C78.0656 16.3863 74.6788 15.1003 71.1149 14.1454C41.9591 6.33309 11.9906 23.6354 4.17837 52.7912C2.82439 57.8443 2.2248 62.9219 2.31057 67.9043C5.49603 69.4794 8.88283 70.7654 12.4467 71.7204Z" fill="#0CD725" />
</symbol><symbol viewBox="0 0 20 20" fill="none" id="edit">
<path d="M14.2745 3.5293C13.9866 3.52999 13.7017 3.58769 13.4362 3.69906C13.1708 3.81043 12.93 3.97326 12.7277 4.17817L4.3108 12.5948L4.2778 12.7614L3.69549 15.6891L3.52942 16.4705L4.31134 16.3044L7.23887 15.7221L7.40494 15.6885L15.8219 7.27187C16.0273 7.06998 16.1905 6.8292 16.3018 6.56357C16.4132 6.29794 16.4706 6.01279 16.4706 5.72475C16.4706 5.43671 16.4132 5.15156 16.3018 4.88593C16.1905 4.6203 16.0273 4.37952 15.8219 4.17763C15.6195 3.97276 15.3786 3.80999 15.113 3.69871C14.8475 3.58743 14.5625 3.52985 14.2745 3.5293V3.5293ZM14.2745 4.54385C14.5428 4.54385 14.8132 4.66628 15.0729 4.92657C15.5908 5.44397 15.5908 6.00554 15.0729 6.52346L14.6908 6.88915L13.1099 5.30876L13.4761 4.92657C13.7364 4.66628 14.0063 4.54385 14.2745 4.54385V4.54385ZM12.362 6.0577L13.9419 7.63809L7.50501 14.0746C7.15751 13.3947 6.60427 12.8418 5.92414 12.4948L12.362 6.0577ZM5.24282 13.3603C5.55785 13.487 5.844 13.6761 6.08411 13.9162C6.32422 14.1563 6.51332 14.4425 6.64005 14.7575L4.89312 15.1067L5.24282 13.3603Z" fill="white" />
</symbol><symbol viewBox="0 0 32 32" fill="none" id="facebook">
<path d="M16 0.639893C7.51681 0.639893 0.640015 7.51669 0.640015 15.9999C0.640015 24.4831 7.51681 31.3599 16 31.3599C24.4832 31.3599 31.36 24.4831 31.36 15.9999C31.36 7.51669 24.4832 0.639893 16 0.639893ZM19.6384 11.2543H17.3296C17.056 11.2543 16.752 11.6143 16.752 12.0927V13.7599H19.64L19.2032 16.1375H16.752V23.2751H14.0272V16.1375H11.5552V13.7599H14.0272V12.3615C14.0272 10.3551 15.4192 8.72469 17.3296 8.72469H19.6384V11.2543Z" fill="#C8C8C8" />
</symbol><symbol viewBox="0 0 18 12" fill="none" id="filters">
<path fill-rule="evenodd" clip-rule="evenodd" d="M5 11.125C5 10.9592 5.06585 10.8003 5.18306 10.6831C5.30027 10.5658 5.45924 10.5 5.625 10.5H9.375C9.54076 10.5 9.69973 10.5658 9.81694 10.6831C9.93415 10.8003 10 10.9592 10 11.125C10 11.2908 9.93415 11.4497 9.81694 11.5669C9.69973 11.6842 9.54076 11.75 9.375 11.75H5.625C5.45924 11.75 5.30027 11.6842 5.18306 11.5669C5.06585 11.4497 5 11.2908 5 11.125ZM2.5 7.375C2.5 7.20924 2.56585 7.05027 2.68306 6.93306C2.80027 6.81585 2.95924 6.75 3.125 6.75H11.875C12.0408 6.75 12.1997 6.81585 12.3169 6.93306C12.4342 7.05027 12.5 7.20924 12.5 7.375C12.5 7.54076 12.4342 7.69973 12.3169 7.81694C12.1997 7.93415 12.0408 8 11.875 8H3.125C2.95924 8 2.80027 7.93415 2.68306 7.81694C2.56585 7.69973 2.5 7.54076 2.5 7.375ZM0 3.625C0 3.45924 0.0658481 3.30027 0.183058 3.18306C0.300269 3.06585 0.45924 3 0.625 3H14.375C14.5408 3 14.6997 3.06585 14.8169 3.18306C14.9342 3.30027 15 3.45924 15 3.625C15 3.79076 14.9342 3.94973 14.8169 4.06694C14.6997 4.18415 14.5408 4.25 14.375 4.25H0.625C0.45924 4.25 0.300269 4.18415 0.183058 4.06694C0.0658481 3.94973 0 3.79076 0 3.625Z" fill="#303864" />
<circle cx="14.5" cy="3" r="3" fill="#0CD725" />
</symbol><symbol viewBox="0 0 10 10" fill="none" id="fire">
<path d="M3.52795 3.49798L3.52712 3.4984L3.52587 3.49923L3.52795 3.49798ZM7.67546 3.42007C7.64647 3.3921 7.61431 3.36763 7.57962 3.34715C7.53052 3.31824 7.47601 3.29971 7.41946 3.2927C7.36292 3.2857 7.30553 3.29036 7.25086 3.30641C7.19619 3.32246 7.14539 3.34956 7.1016 3.38602C7.05781 3.42248 7.02197 3.46754 6.99629 3.5184C6.85279 3.80128 6.65483 4.05304 6.41379 4.25923C6.45075 4.05154 6.46943 3.84102 6.46962 3.63006C6.47042 2.98846 6.30118 2.35809 5.97914 1.80316C5.6571 1.24822 5.19375 0.788537 4.63629 0.470898C4.57486 0.435994 4.50556 0.417284 4.43491 0.416528C4.36426 0.415772 4.29457 0.432994 4.23241 0.466576C4.17024 0.500158 4.11764 0.548997 4.07954 0.608501C4.04144 0.668004 4.0191 0.736219 4.01462 0.806732C3.99129 1.20177 3.88801 1.58797 3.71104 1.94192C3.53406 2.29587 3.28707 2.61021 2.98504 2.8659L2.8892 2.94381C2.57321 3.15642 2.29352 3.41852 2.06087 3.72007C1.69932 4.17553 1.44887 4.70897 1.32938 5.27808C1.20989 5.8472 1.22465 6.43632 1.37249 6.99874C1.52033 7.56115 1.79719 8.08138 2.1811 8.51817C2.56501 8.95495 3.04541 9.29628 3.5842 9.51507C3.64746 9.54081 3.71608 9.55062 3.78402 9.54361C3.85195 9.53661 3.91713 9.51301 3.9738 9.4749C4.03048 9.43679 4.07691 9.38533 4.10902 9.32505C4.14114 9.26478 4.15794 9.19753 4.15795 9.12923C4.15761 9.0851 4.15058 9.04127 4.13712 8.99923C4.0439 8.64883 4.01705 8.28409 4.05795 7.92382C4.45232 8.66739 5.08527 9.25675 5.85504 9.59715C5.94896 9.63913 6.05511 9.64477 6.15295 9.61298C6.76107 9.41667 7.30889 9.06813 7.74438 8.60049C8.17986 8.13284 8.48854 7.56161 8.6411 6.94107C8.79366 6.32053 8.78502 5.67129 8.61601 5.05503C8.447 4.43877 8.12323 3.87596 7.67546 3.42007ZM6.04837 8.76631C5.68516 8.58227 5.36475 8.32385 5.10796 8.00785C4.85118 7.69184 4.66379 7.32533 4.55795 6.93215C4.5256 6.79974 4.50056 6.66565 4.48295 6.53048C4.4711 6.44441 4.43263 6.3642 4.37294 6.30107C4.31325 6.23794 4.23531 6.19505 4.15004 6.1784C4.12382 6.17331 4.09716 6.17079 4.07045 6.1709C3.99725 6.17083 3.92531 6.19005 3.86189 6.22662C3.79847 6.26319 3.74581 6.31583 3.7092 6.37923C3.36356 6.97559 3.18978 7.656 3.20712 8.34507C2.90302 8.10869 2.64886 7.81431 2.45938 7.47898C2.26989 7.14365 2.14885 6.77404 2.10328 6.39158C2.0577 6.00913 2.08849 5.62143 2.19386 5.25096C2.29923 4.88049 2.47709 4.53462 2.71712 4.2334C2.89938 3.99666 3.11924 3.79144 3.36795 3.6259C3.37884 3.61892 3.38928 3.61126 3.3992 3.60298C3.3992 3.60298 3.52254 3.5009 3.5267 3.49882C4.12054 2.99675 4.54294 2.32193 4.73504 1.5684C5.18897 1.98813 5.4916 2.54601 5.59595 3.15538C5.70031 3.76476 5.60053 4.39154 5.31212 4.9384C5.27395 5.01139 5.25828 5.09405 5.26707 5.17595C5.27586 5.25785 5.30873 5.3353 5.36152 5.39853C5.41431 5.46175 5.48466 5.50792 5.56367 5.53118C5.64269 5.55444 5.72682 5.55376 5.80545 5.52923C6.44368 5.32907 7.00526 4.9382 7.41462 4.40923C7.66075 4.77266 7.82167 5.18696 7.8854 5.62123C7.94913 6.05551 7.91402 6.49857 7.78269 6.9174C7.65136 7.33622 7.4272 7.72 7.12691 8.04013C6.82662 8.36026 6.45794 8.60849 6.04837 8.76631Z" fill="#303864" />
</symbol><symbol viewBox="0 0 34 34" id="home">
<path d="M6.19977 17.2001H7.3998V25.6C7.3998 26.9236 8.47622 28 9.79985 28H24.2002C25.5238 28 26.6002 26.9236 26.6002 25.6V17.2001H27.8002C28.0375 17.2001 28.2695 17.1297 28.4668 16.9978C28.6641 16.8659 28.8179 16.6785 28.9087 16.4593C28.9995 16.2401 29.0232 15.9988 28.977 15.7661C28.9307 15.5333 28.8164 15.3196 28.6487 15.1517L17.8484 4.35184C17.7371 4.2403 17.6048 4.15182 17.4592 4.09145C17.3137 4.03107 17.1576 4 17 4C16.8424 4 16.6863 4.03107 16.5408 4.09145C16.3952 4.15182 16.2629 4.2403 16.1516 4.35184L5.35135 15.1517C5.18358 15.3196 5.06933 15.5333 5.02304 15.7661C4.97676 15.9988 5.00053 16.2401 5.09133 16.4593C5.18214 16.6785 5.33591 16.8659 5.53321 16.9978C5.7305 17.1297 5.96246 17.2001 6.19977 17.2001ZM14.5999 25.6V19.6001H19.4001V25.6H14.5999ZM17 6.89701L24.2002 14.0969V19.6001L24.2014 25.6H21.8001V19.6001C21.8001 18.2765 20.7237 17.2001 19.4001 17.2001H14.5999C13.2763 17.2001 12.1999 18.2765 12.1999 19.6001V25.6H9.79985V14.0969L17 6.89701Z" />
</symbol><symbol viewBox="0 0 34 34" fill="none" id="insta">
<path fill-rule="evenodd" clip-rule="evenodd" d="M2 17.5C2 8.9409 8.9409 2 17.5 2C26.0591 2 33 8.9409 33 17.5C33 26.0591 26.0591 33 17.5 33C8.9409 33 2 26.0591 2 17.5ZM25.933 23.33C26.153 22.7638 26.3037 22.1169 26.3467 21.1695C26.3902 20.2204 26.4004 19.9171 26.4004 17.5C26.4004 15.0829 26.3902 14.7796 26.3469 13.8305C26.3037 12.8831 26.1532 12.2362 25.933 11.67C25.7098 11.0761 25.3593 10.5383 24.9066 10.0937C24.4619 9.64073 23.9239 9.29022 23.33 9.06672C22.7638 8.847 22.1169 8.69658 21.1695 8.65353C20.2204 8.61002 19.9171 8.59961 17.5 8.59961C15.0829 8.59961 14.7796 8.61002 13.8305 8.6533C12.8831 8.69658 12.2362 8.847 11.67 9.06696C11.0761 9.29046 10.5381 9.64073 10.0937 10.0937C9.64073 10.5381 9.29022 11.0761 9.06672 11.67C8.84676 12.2362 8.69634 12.8831 8.6533 13.8305C8.60978 14.7796 8.59961 15.0829 8.59961 17.5C8.59961 19.9171 8.60978 20.2204 8.65353 21.1697C8.69658 22.1169 8.84724 22.764 9.06719 23.33C9.2907 23.9239 9.64097 24.4619 10.0937 24.9063C10.5383 25.3593 11.0761 25.7095 11.6702 25.933C12.2362 26.153 12.8833 26.3034 13.8305 26.3467C14.7799 26.39 15.0829 26.4004 17.5002 26.4004C19.9174 26.4004 20.2206 26.39 21.1697 26.3467C22.1169 26.3034 22.764 26.153 23.33 25.933C24.5256 25.4707 25.4707 24.5256 25.933 23.33ZM24.4384 12.2507C24.2958 11.8643 24.0683 11.5145 23.7726 11.2274C23.4855 10.9317 23.1359 10.7042 22.7492 10.5616C22.4356 10.4398 21.9645 10.2948 21.0967 10.2553C20.158 10.2125 19.8766 10.2033 17.5001 10.2033C15.1234 10.2033 14.842 10.2122 13.9035 10.2551C13.0357 10.2948 12.5644 10.4398 12.251 10.5616C11.8643 10.7042 11.5145 10.9317 11.2276 11.2274C10.932 11.5145 10.7044 11.864 10.5616 12.2507C10.4398 12.5644 10.2948 13.0357 10.2553 13.9035C10.2125 14.842 10.2033 15.1234 10.2033 17.5001C10.2033 19.8766 10.2125 20.158 10.2553 21.0967C10.2948 21.9645 10.4398 22.4356 10.5616 22.7492C10.7044 23.1359 10.9317 23.4855 11.2274 23.7726C11.5145 24.0683 11.864 24.2958 12.2507 24.4384C12.5644 24.5604 13.0357 24.7054 13.9035 24.7449C14.842 24.7877 15.1232 24.7967 17.4999 24.7967C19.8768 24.7967 20.1583 24.7877 21.0965 24.7449C21.9643 24.7054 22.4356 24.5604 22.7492 24.4384C23.5255 24.139 24.139 23.5255 24.4384 22.7492C24.5602 22.4356 24.7052 21.9645 24.7449 21.0967C24.7877 20.158 24.7967 19.8766 24.7967 17.5001C24.7967 15.1234 24.7877 14.842 24.7449 13.9035C24.7054 13.0357 24.5604 12.5644 24.4384 12.2507ZM17.5001 22.0702C14.9758 22.0702 12.9295 20.0242 12.9295 17.4999C12.9295 14.9756 14.9758 12.9295 17.5001 12.9295C20.0242 12.9295 22.0704 14.9756 22.0704 17.4999C22.0704 20.0242 20.0242 22.0702 17.5001 22.0702ZM22.2511 13.8169C21.6613 13.8169 21.1831 13.3387 21.1831 12.7488C21.1831 12.159 21.6613 11.6807 22.2511 11.6807C22.841 11.6807 23.3192 12.159 23.3192 12.7488C23.319 13.3387 22.841 13.8169 22.2511 13.8169ZM20.4668 17.5C20.4668 19.1385 19.1385 20.4668 17.5 20.4668C15.8615 20.4668 14.5332 19.1385 14.5332 17.5C14.5332 15.8615 15.8615 14.5332 17.5 14.5332C19.1385 14.5332 20.4668 15.8615 20.4668 17.5Z" fill="#C8C8C8" />
</symbol><symbol viewBox="0 0 17 17" fill="none" id="insta-l">
<path d="M8.5 0C9.93064 0 11.0986 0.0167653 12.0039 0.0502959C12.7751 0.0838264 13.4625 0.217949 14.0661 0.452663C14.6473 0.6762 15.1502 1.00033 15.575 1.42505C15.9997 1.84977 16.3238 2.35273 16.5473 2.93392C16.7821 3.53748 16.9162 4.22485 16.9497 4.99606C16.9832 5.90138 17 7.06936 17 8.5C17 9.93064 16.9832 11.0986 16.9497 12.0039C16.9162 12.7751 16.7821 13.4625 16.5473 14.0661C16.3238 14.6473 15.9997 15.1502 15.575 15.575C15.1502 15.9997 14.6473 16.3238 14.0661 16.5473C13.4625 16.7821 12.7751 16.9162 12.0039 16.9497C11.0986 16.9832 9.93064 17 8.5 17C7.06936 17 5.90138 16.9832 4.99606 16.9497C4.22485 16.9162 3.53748 16.7821 2.93392 16.5473C2.35273 16.3238 1.84977 15.9997 1.42505 15.575C1.00033 15.1502 0.6762 14.6473 0.452663 14.0661C0.217949 13.4625 0.0838264 12.7751 0.0502959 12.0039C0.0167653 11.0986 0 9.93064 0 8.5C0 7.06936 0.0167653 5.90138 0.0502959 4.99606C0.0838264 4.22485 0.217949 3.53748 0.452663 2.93392C0.6762 2.35273 1.00033 1.84977 1.42505 1.42505C1.84977 1.00033 2.35273 0.6762 2.93392 0.452663C3.53748 0.217949 4.22485 0.0838264 4.99606 0.0502959C5.90138 0.0167653 7.06936 0 8.5 0ZM8.5 1.10651C7.01348 1.10651 5.80079 1.12327 4.86193 1.1568C4.25838 1.17916 3.69954 1.28534 3.1854 1.47535C2.38067 1.81065 1.81065 2.38067 1.47535 3.1854C1.28534 3.69954 1.17916 4.25838 1.1568 4.86193C1.12327 5.80079 1.10651 7.01348 1.10651 8.5C1.10651 9.98652 1.12327 11.1992 1.1568 12.1381C1.17916 12.7416 1.28534 13.3005 1.47535 13.8146C1.81065 14.6193 2.38067 15.1893 3.1854 15.5247C3.69954 15.7147 4.25838 15.8208 4.86193 15.8432C5.80079 15.8767 7.01348 15.8935 8.5 15.8935C9.98652 15.8935 11.1992 15.8767 12.1381 15.8432C12.7416 15.8208 13.3005 15.7147 13.8146 15.5247C14.6193 15.1893 15.1893 14.6193 15.5247 13.8146C15.7147 13.3005 15.8208 12.7416 15.8432 12.1381C15.8767 11.1992 15.8935 9.98652 15.8935 8.5C15.8935 7.01348 15.8767 5.80079 15.8432 4.86193C15.8208 4.25838 15.7147 3.69954 15.5247 3.1854C15.1893 2.38067 14.6193 1.81065 13.8146 1.47535C13.3005 1.28534 12.7416 1.17916 12.1381 1.1568C11.1992 1.12327 9.98652 1.10651 8.5 1.10651ZM8.5 11.9034C9.43886 11.9034 10.2408 11.5708 10.9058 10.9058C11.5708 10.2408 11.9034 9.43886 11.9034 8.5C11.9034 7.56114 11.5708 6.7592 10.9058 6.09418C10.2408 5.42916 9.43886 5.09665 8.5 5.09665C7.56114 5.09665 6.7592 5.42916 6.09418 6.09418C5.42916 6.7592 5.09665 7.56114 5.09665 8.5C5.09665 9.43886 5.42916 10.2408 6.09418 10.9058C6.7592 11.5708 7.56114 11.9034 8.5 11.9034ZM8.5 4.14103C9.7071 4.14103 10.7354 4.56575 11.5848 5.41519C12.4343 6.26463 12.859 7.2929 12.859 8.5C12.859 9.7071 12.4343 10.7354 11.5848 11.5848C10.7354 12.4343 9.7071 12.859 8.5 12.859C7.2929 12.859 6.26463 12.4343 5.41519 11.5848C4.56575 10.7354 4.14103 9.7071 4.14103 8.5C4.14103 7.2929 4.56575 6.26463 5.41519 5.41519C6.26463 4.56575 7.2929 4.14103 8.5 4.14103ZM14.0661 3.97337C14.0661 4.25279 13.9655 4.4903 13.7643 4.6859C13.5631 4.88149 13.3172 4.97929 13.0266 4.97929C12.7472 4.97929 12.5097 4.88149 12.3141 4.6859C12.1185 4.4903 12.0207 4.25279 12.0207 3.97337C12.0207 3.68277 12.1185 3.43688 12.3141 3.2357C12.5097 3.03452 12.7472 2.93392 13.0266 2.93392C13.306 2.93392 13.5491 3.03731 13.7559 3.24408C13.9627 3.45085 14.0661 3.69395 14.0661 3.97337Z" fill="#C8C8C8" />
</symbol><symbol viewBox="0 0 114 117" id="leaf">
<path d="M7.5 116.737C66.7349 116.737 113.5 72.9854 113.5 13.5969C113.5 10.567 112.71 0.0972946 112.71 0.310892C113.08 0.340171 107.42 -0.403059 97.4999 0.310933C33.4999 6.31096 -1.50014 53.097 0.499947 110.097L1.08029 116.737C2.65366 116.805 5.90976 116.737 7.5 116.737Z" />
</symbol><symbol viewBox="0 0 34 34" fill="none" id="likes">
<path d="M17.2997 9.38097C12.9016 2.95635 4 6.45627 4 13.4548C4 18.7102 16.2036 26.9311 17.2997 28C18.4033 26.9311 30 18.7102 30 13.4548C30 6.50933 21.706 2.95635 17.2997 9.38097Z" fill="#C8C8C8" />
</symbol><symbol viewBox="0 0 27 21" fill="none" id="logo-m">
<path d="M17.7739 19.1253C17.7739 17.3309 24.6881 4.69467 26.8371 2.26857C27.1882 1.87314 26.9067 1.23984 26.6035 0.896399C26.1362 0.341861 24.9914 0 24.3848 0C24.1976 0 23.7304 0.712078 23.0774 1.84636C21.2317 3.95739 17.2602 8.83796 15.812 10.6308C16.2561 8.94193 17.5635 5.64464 17.5635 4.64269C17.5635 2.63721 15.9746 1.45094 14.1999 1.45094C12.0974 1.45094 7.14495 5.19722 7.14495 7.70368C7.14495 8.49452 7.72827 9.23338 8.45379 9.23338C8.89781 9.23338 8.15052 8.88995 8.15052 8.15109C8.15052 6.88447 12.9622 3.90383 14.1999 3.95739C13.219 6.96482 5.91011 17.7027 2.50015 17.7027C1.14488 17.7027 0.44402 17.4648 0.163968 17.4648C0.0478845 17.4648 0 17.4916 0 17.5972C0 18.837 1.7993 20.4203 4.27478 20.4203C7.82549 20.4203 11.3965 13.4539 13.9663 7.96677C13.5223 10.3677 12.8679 12.3464 13.219 12.7418C13.7095 13.2963 14.6207 13.5862 15.0648 13.5862C15.4145 13.5862 18.0307 10.0242 20.3204 6.83248C17.961 11.502 15.368 17.2521 15.368 19.3112C15.368 20.499 16.2561 21 16.9569 21C17.7274 21 18.3818 20.2611 18.3818 19.9713C18.3804 19.653 17.7739 19.9681 17.7739 19.1253Z" fill="white" />
</symbol><symbol viewBox="0 0 34 34" fill="none" id="mastercard">
<path opacity="0.5" d="M22.6788 27.2014C20.5055 27.2017 18.381 26.5576 16.5739 25.3505C14.7667 24.1434 13.3581 22.4275 12.5261 20.4198C11.6942 18.4121 11.4762 16.2029 11.8999 14.0713C12.3236 11.9398 13.3698 9.98175 14.9063 8.44482C16.4427 6.90789 18.4005 5.86109 20.5319 5.4368C22.6633 5.01251 24.8726 5.22978 26.8806 6.06114C28.8885 6.8925 30.6048 8.3006 31.8124 10.1074C33.0201 11.9142 33.6648 14.0385 33.6652 16.2117V16.2134C33.6621 19.1264 32.5037 21.9192 30.4441 23.9792C28.3844 26.0391 25.5918 27.198 22.6788 27.2014Z" fill="#C8C8C8" />
<path d="M11.988 27.2014C9.81481 27.2014 7.69039 26.557 5.88342 25.3496C4.07644 24.1422 2.66808 22.4261 1.83642 20.4183C1.00476 18.4105 0.787161 16.2012 1.21114 14.0697C1.63511 11.9383 2.68162 9.98037 4.21833 8.44367C5.75503 6.90696 7.71291 5.86045 9.84438 5.43648C11.9759 5.0125 14.1852 5.2301 16.193 6.06176C18.2008 6.89342 19.9169 8.30178 21.1243 10.1088C22.3316 11.9157 22.9761 14.0402 22.9761 16.2134C22.9731 19.1267 21.8144 21.9197 19.7544 23.9797C17.6944 26.0397 14.9013 27.1984 11.988 27.2014Z" fill="#C8C8C8" />
</symbol><symbol viewBox="0 0 34 34" id="materials">
<path fill-rule="evenodd" clip-rule="evenodd" d="M16.441 4.88197C16.7929 4.70601 17.2071 4.70601 17.559 4.88197L28.559 10.382C28.9825 10.5937 29.25 11.0265 29.25 11.5C29.25 11.9735 28.9825 12.4063 28.559 12.618L17.559 18.118C17.2071 18.294 16.7929 18.294 16.441 18.118L5.44098 12.618C5.0175 12.4063 4.75 11.9735 4.75 11.5C4.75 11.0265 5.0175 10.5937 5.44098 10.382L16.441 4.88197ZM8.79508 11.5L17 15.6025L25.2049 11.5L17 7.39754L8.79508 11.5Z" />
<path fill-rule="evenodd" clip-rule="evenodd" d="M4.86198 21.4828C5.14765 20.8543 5.88872 20.5764 6.51719 20.8621L16.9999 25.627L27.4827 20.8621C28.1112 20.5764 28.8522 20.8543 29.1379 21.4828C29.4236 22.1113 29.1457 22.8523 28.5172 23.138L17.5172 28.138C17.1885 28.2874 16.8113 28.2874 16.4827 28.138L5.48269 23.138C4.85421 22.8523 4.57631 22.1113 4.86198 21.4828Z" />
<path fill-rule="evenodd" clip-rule="evenodd" d="M4.86198 16.4828C5.14765 15.8543 5.88872 15.5764 6.51719 15.8621L16.9999 20.627L27.4827 15.8621C28.1112 15.5764 28.8522 15.8543 29.1379 16.4828C29.4236 17.1113 29.1457 17.8523 28.5172 18.138L17.5172 23.138C17.1885 23.2874 16.8113 23.2874 16.4827 23.138L5.48269 18.138C4.85421 17.8523 4.57631 17.1113 4.86198 16.4828Z" />
</symbol><symbol viewBox="0 0 24 24" fill="none" id="money">
<path d="M20.25 19.5625L20.25 1.6875L6.5 1.6875L6.5 19.5625L20.25 19.5625ZM7.875 18.1875L7.875 3.0625L18.875 3.0625L18.875 18.1875L7.875 18.1875Z" fill="#303864" />
<path d="M16.8125 20.9375L5.125 20.9375L5.125 5.125L3.75 5.125L3.75 22.3125L16.8125 22.3125L16.8125 20.9375Z" fill="#303864" />
<path d="M10.0037 10.625C10.0037 12.3309 11.5135 13.7188 13.3693 13.7188C15.2251 13.7188 16.7349 12.3309 16.7349 10.625C16.7349 8.91914 15.2251 7.53125 13.3693 7.53125C11.5135 7.53125 10.0037 8.91914 10.0037 10.625ZM15.3599 10.625C15.3599 11.5727 14.4669 12.3438 13.3693 12.3438C12.2717 12.3438 11.3787 11.5727 11.3787 10.625C11.3787 9.67728 12.2717 8.90625 13.3693 8.90625C14.4669 8.90625 15.3599 9.67728 15.3599 10.625Z" fill="#303864" />
<path d="M17.1562 4.4375L17.1562 5.8125L9.59375 5.8125L9.59375 4.4375L17.1562 4.4375Z" fill="#303864" />
<path d="M17.1562 15.4375L17.1562 16.8125L9.59375 16.8125L9.59375 15.4375L17.1562 15.4375Z" fill="#303864" />
</symbol><symbol viewBox="0 0 24 24" fill="none" id="paint">
<path d="M8.5 10.7559C9.12132 10.7559 9.625 10.2522 9.625 9.63086C9.625 9.00954 9.12132 8.50586 8.5 8.50586C7.87868 8.50586 7.375 9.00954 7.375 9.63086C7.375 10.2522 7.87868 10.7559 8.5 10.7559Z" fill="#303864" />
<path d="M11.875 9.06836C12.4963 9.06836 13 8.56468 13 7.94336C13 7.32204 12.4963 6.81836 11.875 6.81836C11.2537 6.81836 10.75 7.32204 10.75 7.94336C10.75 8.56468 11.2537 9.06836 11.875 9.06836Z" fill="#303864" />
<path d="M15.25 10.7559C15.8713 10.7559 16.375 10.2522 16.375 9.63086C16.375 9.00954 15.8713 8.50586 15.25 8.50586C14.6287 8.50586 14.125 9.00954 14.125 9.63086C14.125 10.2522 14.6287 10.7559 15.25 10.7559Z" fill="#303864" />
<path d="M15.8125 14.1309C16.4338 14.1309 16.9375 13.6272 16.9375 13.0059C16.9375 12.3845 16.4338 11.8809 15.8125 11.8809C15.1912 11.8809 14.6875 12.3845 14.6875 13.0059C14.6875 13.6272 15.1912 14.1309 15.8125 14.1309Z" fill="#303864" />
<path d="M13.5625 16.9434C14.1838 16.9434 14.6875 16.4397 14.6875 15.8184C14.6875 15.197 14.1838 14.6934 13.5625 14.6934C12.9412 14.6934 12.4375 15.197 12.4375 15.8184C12.4375 16.4397 12.9412 16.9434 13.5625 16.9434Z" fill="#303864" />
<path d="M12.1788 4.00586C11.1193 3.96497 10.0625 4.13842 9.07176 4.51583C8.08098 4.89323 7.17661 5.46681 6.41287 6.20219C5.64913 6.93756 5.04175 7.81959 4.62713 8.79538C4.21252 9.77117 3.99921 10.8206 4 11.8809C3.99997 12.2979 4.09613 12.7092 4.281 13.083C4.46586 13.4568 4.73445 13.7829 5.06588 14.0359C5.39731 14.289 5.78264 14.4622 6.19191 14.5421C6.60119 14.622 7.02337 14.6064 7.42563 14.4965L8.05563 14.3221C8.30625 14.2537 8.56928 14.2441 8.82422 14.294C9.07917 14.3439 9.31915 14.452 9.52547 14.6099C9.73179 14.7677 9.89887 14.9711 10.0137 15.2041C10.1285 15.4372 10.188 15.6936 10.1875 15.9534V18.0684C10.1875 18.5159 10.3653 18.9451 10.6818 19.2616C10.9982 19.5781 11.4274 19.7559 11.875 19.7559C12.9352 19.7566 13.9847 19.5433 14.9605 19.1287C15.9363 18.7141 16.8183 18.1067 17.5537 17.343C18.289 16.5793 18.8626 15.6749 19.24 14.6841C19.6174 13.6933 19.7909 12.6365 19.75 11.5771C19.6684 9.59524 18.8445 7.71652 17.4419 6.31394C16.0393 4.91136 14.1606 4.08748 12.1788 4.00586ZM16.7406 16.5552C16.1126 17.2128 15.3574 17.7359 14.521 18.0927C13.6845 18.4495 12.7843 18.6326 11.875 18.6309C11.7258 18.6309 11.5827 18.5716 11.4773 18.4661C11.3718 18.3606 11.3125 18.2175 11.3125 18.0684V15.9534C11.3125 15.2074 11.0162 14.4921 10.4887 13.9646C9.96129 13.4372 9.24592 13.1409 8.5 13.1409C8.24724 13.1413 7.99566 13.1754 7.75188 13.2421L7.12188 13.4165C6.88657 13.4795 6.6399 13.4876 6.401 13.4399C6.1621 13.3923 5.93738 13.2902 5.74427 13.1417C5.55116 12.9932 5.39484 12.8022 5.28745 12.5836C5.18006 12.3649 5.12447 12.1245 5.125 11.8809C5.1243 10.9717 5.30726 10.0719 5.66289 9.23519C6.01852 8.39852 6.5395 7.64231 7.19457 7.01193C7.84964 6.38155 8.62529 5.89 9.475 5.56676C10.3247 5.24352 11.231 5.09525 12.1394 5.13086C13.8309 5.21896 15.4299 5.93055 16.6276 7.12827C17.8253 8.326 18.5369 9.92494 18.625 11.6165C18.6637 12.5255 18.5166 13.4328 18.1926 14.2829C17.8686 15.1331 17.3745 15.9082 16.7406 16.5609V16.5552Z" fill="#303864" />
</symbol><symbol viewBox="0 0 34 34" id="phone">
<path d="M10.7545 5.4973C10.0633 5.4973 9.50297 6.05634 9.50297 6.74596V26.7244C9.50297 27.414 10.0633 27.973 10.7545 27.973H23.2693C23.9605 27.973 24.5208 27.414 24.5208 26.7244V6.74596C24.5208 6.05634 23.9605 5.4973 23.2693 5.4973H10.7545ZM7 6.74596C7 4.67712 8.68093 3 10.7545 3H23.2693C25.3429 3 27.0238 4.67712 27.0238 6.74596V26.7244C27.0238 28.7932 25.3429 30.4703 23.2693 30.4703H10.7545C8.68093 30.4703 7 28.7932 7 26.7244V6.74596Z" />
<path d="M15.7604 24.2272C15.7604 23.5376 16.3207 22.9785 17.0119 22.9785H17.0244C17.7156 22.9785 18.2759 23.5376 18.2759 24.2272C18.2759 24.9168 17.7156 25.4758 17.0244 25.4758H17.0119C16.3207 25.4758 15.7604 24.9168 15.7604 24.2272Z" />
</symbol><symbol viewBox="0 0 18 18" fill="none" id="plus">
<path d="M17.3077 8.30769H9.69252V0.692308C9.69252 0.508696 9.61958 0.332605 9.48975 0.202772C9.35992 0.0729395 9.18383 0 9.00023 0C8.81662 0 8.64053 0.0729395 8.5107 0.202772C8.38087 0.332605 8.30794 0.508696 8.30794 0.692308V8.30769H0.692744C0.509137 8.30769 0.333051 8.38063 0.203221 8.51046C0.0733913 8.6403 0.000453645 8.81639 0.000453645 9C-0.00296255 9.08998 0.0129473 9.17964 0.0471107 9.26295C0.0812741 9.34625 0.132897 9.42127 0.198502 9.48294C0.264106 9.54461 0.342167 9.5915 0.427424 9.62045C0.512681 9.6494 0.603154 9.65974 0.692744 9.65077H8.30794V17.3077C8.30794 17.4913 8.38087 17.6674 8.5107 17.7972C8.64053 17.9271 8.81662 18 9.00023 18C9.18383 18 9.35992 17.9271 9.48975 17.7972C9.61958 17.6674 9.69252 17.4913 9.69252 17.3077V9.69231H17.3077C17.4913 9.69231 17.6674 9.61937 17.7972 9.48954C17.9271 9.3597 18 9.18361 18 9C18 8.81639 17.9271 8.6403 17.7972 8.51046C17.6674 8.38063 17.4913 8.30769 17.3077 8.30769Z" fill="#C8C8C8" />
</symbol><symbol viewBox="0 0 48 48" fill="none" id="question">
<ellipse cx="25.2397" cy="23.9161" rx="17.0789" ry="17.0789" fill="white" />
<path d="M24.7059 4.23529C14.1323 4.23529 5.55884 12.8087 5.55884 23.3823C5.55884 33.956 14.1323 42.5294 24.7059 42.5294C35.2795 42.5294 43.853 33.956 43.853 23.3823C43.853 12.8087 35.2795 4.23529 24.7059 4.23529ZM24.7059 39.2812C15.9273 39.2812 8.807 32.1609 8.807 23.3823C8.807 14.6038 15.9273 7.48345 24.7059 7.48345C33.4845 7.48345 40.6048 14.6038 40.6048 23.3823C40.6048 32.1609 33.4845 39.2812 24.7059 39.2812Z" fill="#0CD725" />
<path d="M29.4756 15.0354C28.1934 13.9114 26.5009 13.296 24.7059 13.296C22.9109 13.296 21.2184 13.9157 19.9362 15.0354C18.6028 16.2022 17.8677 17.7707 17.8677 19.4504V19.7752C17.8677 19.9632 18.0215 20.1171 18.2096 20.1171H20.2611C20.4491 20.1171 20.603 19.9632 20.603 19.7752V19.4504C20.603 17.5656 22.445 16.0313 24.7059 16.0313C26.9668 16.0313 28.8089 17.5656 28.8089 19.4504C28.8089 20.7796 27.8686 21.9976 26.4112 22.5575C25.5051 22.9037 24.7358 23.5106 24.1845 24.3055C23.6246 25.1176 23.334 26.092 23.334 27.0793V27.9982C23.334 28.1862 23.4879 28.3401 23.6759 28.3401H25.7274C25.9154 28.3401 26.0693 28.1862 26.0693 27.9982V27.028C26.0715 26.6131 26.1987 26.2085 26.4343 25.8669C26.6698 25.5254 27.0029 25.2627 27.3899 25.1133C29.9115 24.1431 31.5399 21.9207 31.5399 19.4504C31.5441 17.7707 30.809 16.2022 29.4756 15.0354ZM22.9964 32.7849C22.9964 33.2383 23.1765 33.6732 23.4971 33.9938C23.8177 34.3144 24.2525 34.4945 24.7059 34.4945C25.1593 34.4945 25.5941 34.3144 25.9148 33.9938C26.2354 33.6732 26.4155 33.2383 26.4155 32.7849C26.4155 32.3315 26.2354 31.8967 25.9148 31.5761C25.5941 31.2555 25.1593 31.0754 24.7059 31.0754C24.2525 31.0754 23.8177 31.2555 23.4971 31.5761C23.1765 31.8967 22.9964 32.3315 22.9964 32.7849Z" fill="#0CD725" />
</symbol><symbol viewBox="0 0 24 24" fill="none" id="ruler">
<path d="M16.25 20.5625L16.25 2.6875C16.25 2.50516 16.1776 2.3303 16.0486 2.20136C15.9197 2.07243 15.7448 2 15.5625 2L8.6875 2C8.50516 2 8.33029 2.07243 8.20136 2.20136C8.07243 2.33029 8 2.50516 8 2.6875L8 20.5625C8 20.7448 8.07243 20.9197 8.20136 21.0486C8.33029 21.1776 8.50516 21.25 8.6875 21.25L15.5625 21.25C15.7448 21.25 15.9197 21.1776 16.0486 21.0486C16.1776 20.9197 16.25 20.7448 16.25 20.5625ZM9.375 19.875L9.375 3.375L14.875 3.375L14.875 6.125L12.125 6.125L12.125 7.5L14.875 7.5L14.875 10.9375L12.125 10.9375L12.125 12.3125L14.875 12.3125L14.875 15.75L12.125 15.75L12.125 17.125L14.875 17.125L14.875 19.875L9.375 19.875Z" fill="#303864" />
</symbol><symbol viewBox="0 0 12 12" fill="none" id="size">
<path d="M4.99995 3C4.86734 3 4.74016 3.05268 4.64639 3.14645C4.55263 3.24021 4.49995 3.36739 4.49995 3.5V5.5H2.70495L3.10495 5.105C3.1991 5.01085 3.25199 4.88315 3.25199 4.75C3.25199 4.61685 3.1991 4.48915 3.10495 4.395C3.0108 4.30085 2.8831 4.24795 2.74995 4.24795C2.6168 4.24795 2.4891 4.30085 2.39495 4.395L1.14495 5.645C1.09943 5.69255 1.06375 5.74862 1.03995 5.81C0.989939 5.93173 0.989939 6.06827 1.03995 6.19C1.06375 6.25138 1.09943 6.30745 1.14495 6.355L2.39495 7.605C2.44143 7.65186 2.49673 7.68906 2.55766 7.71445C2.61859 7.73983 2.68394 7.7529 2.74995 7.7529C2.81595 7.7529 2.88131 7.73983 2.94224 7.71445C3.00317 7.68906 3.05847 7.65186 3.10495 7.605C3.15181 7.55852 3.18901 7.50322 3.21439 7.44229C3.23978 7.38136 3.25285 7.31601 3.25285 7.25C3.25285 7.18399 3.23978 7.11864 3.21439 7.05771C3.18901 6.99678 3.15181 6.94148 3.10495 6.895L2.70495 6.5H4.49995V8.5C4.49995 8.63261 4.55263 8.75979 4.64639 8.85355C4.74016 8.94732 4.86734 9 4.99995 9C5.13256 9 5.25973 8.94732 5.3535 8.85355C5.44727 8.75979 5.49995 8.63261 5.49995 8.5V3.5C5.49995 3.36739 5.44727 3.24021 5.3535 3.14645C5.25973 3.05268 5.13256 3 4.99995 3ZM10.9599 5.81C10.9362 5.74862 10.9005 5.69255 10.8549 5.645L9.60495 4.395C9.55833 4.34838 9.50298 4.3114 9.44207 4.28617C9.38116 4.26094 9.31588 4.24795 9.24995 4.24795C9.1168 4.24795 8.9891 4.30085 8.89495 4.395C8.84833 4.44162 8.81135 4.49696 8.78612 4.55788C8.76089 4.61879 8.7479 4.68407 8.7479 4.75C8.7479 4.88315 8.8008 5.01085 8.89495 5.105L9.29495 5.5H7.49995V3.5C7.49995 3.36739 7.44727 3.24021 7.3535 3.14645C7.25973 3.05268 7.13256 3 6.99995 3C6.86734 3 6.74016 3.05268 6.64639 3.14645C6.55263 3.24021 6.49995 3.36739 6.49995 3.5V8.5C6.49995 8.63261 6.55263 8.75979 6.64639 8.85355C6.74016 8.94732 6.86734 9 6.99995 9C7.13256 9 7.25973 8.94732 7.3535 8.85355C7.44727 8.75979 7.49995 8.63261 7.49995 8.5V6.5H9.29495L8.89495 6.895C8.84808 6.94148 8.81089 6.99678 8.7855 7.05771C8.76012 7.11864 8.74705 7.18399 8.74705 7.25C8.74705 7.31601 8.76012 7.38136 8.7855 7.44229C8.81089 7.50322 8.84808 7.55852 8.89495 7.605C8.94143 7.65186 8.99673 7.68906 9.05766 7.71445C9.11859 7.73983 9.18394 7.7529 9.24995 7.7529C9.31595 7.7529 9.38131 7.73983 9.44224 7.71445C9.50317 7.68906 9.55847 7.65186 9.60495 7.605L10.8549 6.355C10.9005 6.30745 10.9362 6.25138 10.9599 6.19C11.01 6.06827 11.01 5.93173 10.9599 5.81Z" fill="#303864" />
</symbol><symbol viewBox="0 0 35 35" fill="none" id="smile-a">
<path d="M35 17.5C35 27.1649 27.1649 35 17.5 35C7.83514 35 0 27.1649 0 17.5C0 7.83514 7.83514 0 17.5 0C27.1649 0 35 7.83514 35 17.5Z" fill="#FFCC4D" />
<path d="M17.5 21.242C14.6164 21.242 12.7021 20.9056 10.3357 20.4457C9.79414 20.3427 8.74316 20.4457 8.74316 22.0382C8.74316 25.2223 12.4016 29.2025 17.5 29.2025C22.5983 29.2025 26.2568 25.2223 26.2568 22.0382C26.2568 20.4457 25.2048 20.3417 24.6643 20.4457C22.2979 20.9056 20.3846 21.242 17.5 21.242Z" fill="#664500" />
<path d="M16.1875 3.18987C15.3523 0.826397 12.7614 -0.414159 10.3969 0.419036C8.96191 0.924591 7.94594 2.08251 7.55024 3.43681C6.39232 2.63084 4.87566 2.36737 3.4426 2.87292C1.0801 3.70709 -0.162398 6.30001 0.672741 8.66348C0.791352 8.99793 0.948852 9.30806 1.13163 9.59487C3.02844 13.0774 8.50885 15.5254 11.827 15.5556C14.3908 13.4488 17.1218 8.10348 16.414 4.20292C16.377 3.86459 16.3041 3.52431 16.1875 3.18987V3.18987ZM18.8125 3.18987C19.6476 0.826397 22.2395 -0.414159 24.603 0.419036C26.038 0.924591 27.054 2.08251 27.4507 3.43681C28.6086 2.63084 30.1252 2.36737 31.5583 2.87292C33.9208 3.70709 35.1623 6.30001 34.3291 8.66348C34.2095 8.99793 34.053 9.30806 33.8693 9.59487C31.9725 13.0774 26.492 15.5254 23.1729 15.5556C20.6091 13.4488 17.8791 8.10348 18.5869 4.20292C18.6229 3.86459 18.6958 3.52431 18.8125 3.18987V3.18987Z" fill="#DD2E44" />
</symbol><symbol viewBox="0 0 34 34" fill="none" id="smile-b">
<g clip-path="url(#smile-b_clip0)">
<path d="M34 17C34 26.3887 26.3887 34 17 34C7.61128 34 2.43404e-06 26.3887 1.61325e-06 17C7.92466e-07 7.61128 7.61128 -1.03088e-06 17 -1.85167e-06C26.3887 -2.67246e-06 34 7.61128 34 17Z" fill="#FFCC4D" />
<path d="M25.8165 21.8441C25.6484 21.692 25.3972 21.6826 25.2168 21.8167C25.1799 21.8441 21.5127 24.5556 17.0001 24.5556C12.4989 24.5556 8.81932 21.8441 8.78344 21.8167C8.60305 21.6826 8.35183 21.6939 8.18372 21.8441C8.01655 21.9952 7.97877 22.2445 8.09494 22.4372C8.21677 22.6393 11.1332 27.3889 17.0001 27.3889C22.867 27.3889 25.7844 22.6402 25.9053 22.4372C26.0214 22.2436 25.9846 21.9952 25.8165 21.8441Z" fill="#664500" />
<path d="M23.1389 10.3889C21.8349 10.3889 20.7778 11.8688 20.7778 13.6944C20.7778 15.5201 21.8349 17 23.1389 17C24.4429 17 25.5 15.5201 25.5 13.6944C25.5 11.8688 24.4429 10.3889 23.1389 10.3889Z" fill="#664500" />
<path d="M10.8611 10.3889C9.55705 10.3889 8.49995 11.8688 8.49995 13.6944C8.49995 15.5201 9.55705 17 10.8611 17C12.1651 17 13.2222 15.5201 13.2222 13.6944C13.2222 11.8688 12.1651 10.3889 10.8611 10.3889Z" fill="#664500" />
</g>
<defs>

</defs>
</symbol><clipPath id="smile-b_clip0">
<rect width="34" height="34" fill="white" transform="translate(34 34) rotate(180)" />
</clipPath><symbol viewBox="0 0 34 34" fill="none" id="smile-c">
<path d="M34 17C34 26.3887 26.3887 34 17 34C7.61222 34 0 26.3887 0 17C0 7.61222 7.61222 0 17 0C26.3887 0 34 7.61222 34 17Z" fill="#FFCC4D" />
<path d="M10.8611 18.8889C12.1651 18.8889 13.2222 17.409 13.2222 15.5834C13.2222 13.7578 12.1651 12.2778 10.8611 12.2778C9.55711 12.2778 8.5 13.7578 8.5 15.5834C8.5 17.409 9.55711 18.8889 10.8611 18.8889Z" fill="#664500" />
<path d="M23.1389 18.8889C24.4429 18.8889 25.5001 17.409 25.5001 15.5834C25.5001 13.7578 24.4429 12.2778 23.1389 12.2778C21.8349 12.2778 20.7778 13.7578 20.7778 15.5834C20.7778 17.409 21.8349 18.8889 23.1389 18.8889Z" fill="#664500" />
</symbol><symbol viewBox="0 0 34 34" fill="none" id="smile-d">
<path d="M34 17C34 26.3887 26.3887 34 17 34C7.61222 34 0 26.3887 0 17C0 7.61222 7.61222 0 17 0C26.3887 0 34 7.61222 34 17Z" fill="#FFCC4D" />
<path d="M23.6111 24.5555H10.3889C9.86753 24.5555 9.44442 24.1334 9.44442 23.6111C9.44442 23.0888 9.86753 22.6666 10.3889 22.6666H23.6111C24.1334 22.6666 24.5555 23.0888 24.5555 23.6111C24.5555 24.1334 24.1334 24.5555 23.6111 24.5555ZM14.1666 17H7.55553C7.0342 17 6.61108 16.5769 6.61108 16.0555C6.61108 15.5342 7.0342 15.1111 7.55553 15.1111H14.1666C14.688 15.1111 15.1111 15.5342 15.1111 16.0555C15.1111 16.5769 14.688 17 14.1666 17ZM26.4444 17H19.8333C19.311 17 18.8889 16.5769 18.8889 16.0555C18.8889 15.5342 19.311 15.1111 19.8333 15.1111L26.4444 15.1111C26.9667 15.1111 27.3889 15.5342 27.3889 16.0555C27.3889 16.5769 26.9667 17 26.4444 17Z" fill="#664500" />
</symbol><symbol viewBox="0 0 35 35" fill="none" id="smile-e">
<path d="M35 17.5C35 27.1649 27.1649 35 17.5 35C7.83514 35 0 27.1649 0 17.5C0 7.83514 7.83514 0 17.5 0C27.1649 0 35 7.83514 35 17.5Z" fill="#FFCC4D" />
<path d="M21.3889 26.2501C21.3889 28.9363 19.6476 29.1668 17.5 29.1668C15.3514 29.1668 13.6111 28.9363 13.6111 26.2501C13.6111 23.5658 15.3514 20.4168 17.5 20.4168C19.6476 20.4168 21.3889 23.5658 21.3889 26.2501ZM29.1667 14.5834C29.0461 14.5834 28.9236 14.5611 28.806 14.5134C23.7222 12.4805 21.6388 9.41801 21.5522 9.2887C21.2538 8.84148 21.3743 8.23773 21.8215 7.94023C22.2678 7.64273 22.8686 7.76134 23.1681 8.20662C23.1865 8.23287 25.0444 10.9143 29.5274 12.707C30.0261 12.9073 30.2692 13.4722 30.0699 13.9709C29.9172 14.352 29.5517 14.5834 29.1667 14.5834V14.5834ZM5.83333 14.5834C5.44736 14.5834 5.08278 14.352 4.93014 13.9719C4.73083 13.4731 4.97292 12.9073 5.47167 12.708C9.95556 10.9152 11.8135 8.23384 11.8319 8.20759C12.1314 7.76426 12.7351 7.64662 13.1804 7.94509C13.6247 8.24454 13.7453 8.8444 13.4478 9.28968C13.3613 9.41898 11.2778 12.4815 6.195 14.5144C6.07639 14.5611 5.95389 14.5834 5.83333 14.5834Z" fill="#664500" />
<path d="M23.3334 15.5557L27.2223 15.5557V34.0279L23.3334 33.9832V15.5557ZM7.77783 34.0279L11.6667 33.9832V15.5557H7.77783L7.77783 34.0279Z" fill="#5DADEC" />
<path d="M14.5824 17.4999C14.4365 17.4999 14.2878 17.4669 14.1488 17.3978C10.7343 15.6906 7.27515 17.3803 7.24112 17.3978C6.75987 17.6399 6.17654 17.4425 5.9364 16.9632C5.69626 16.483 5.89071 15.8987 6.37098 15.6585C6.54793 15.571 10.744 13.5225 15.0189 15.6585C15.4992 15.8987 15.6936 16.483 15.4535 16.9632C15.2824 17.3035 14.9392 17.4999 14.5824 17.4999V17.4999ZM28.1935 17.4999C28.0477 17.4999 27.8989 17.4669 27.7599 17.3978C24.3445 15.6906 20.8863 17.3803 20.8522 17.3978C20.372 17.6389 19.7886 17.4435 19.5475 16.9632C19.3074 16.483 19.5018 15.8987 19.9821 15.6585C20.159 15.571 24.3581 13.5235 28.63 15.6585C29.1103 15.8987 29.3047 16.483 29.0646 16.9632C28.8935 17.3035 28.5503 17.4999 28.1935 17.4999V17.4999Z" fill="#664500" />
<path d="M17.5 35C27.165 35 35 34.1294 35 33.0555C35 31.9816 27.165 31.1111 17.5 31.1111C7.83502 31.1111 0 31.9816 0 33.0555C0 34.1294 7.83502 35 17.5 35Z" fill="#5DADEC" />
<path d="M17.4999 28.1946C19.1107 28.1946 20.4166 27.324 20.4166 26.2501C20.4166 25.1762 19.1107 24.3057 17.4999 24.3057C15.8891 24.3057 14.5833 25.1762 14.5833 26.2501C14.5833 27.324 15.8891 28.1946 17.4999 28.1946Z" fill="#E75A70" />
</symbol><symbol viewBox="0 0 34 34" fill="none" id="views">
<path fill-rule="evenodd" clip-rule="evenodd" d="M5.22332 18.179C4.97138 17.7914 4.77486 17.4626 4.63521 17.2187C4.77486 16.9749 4.97138 16.6461 5.22332 16.2585C5.79246 15.3829 6.63773 14.2176 7.74122 13.056C9.96399 10.7163 13.1232 8.50336 17.1062 8.50336C21.0892 8.50336 24.2484 10.7163 26.4712 13.056C27.5747 14.2176 28.42 15.3829 28.9891 16.2585C29.241 16.6461 29.4375 16.9749 29.5772 17.2187C29.4375 17.4626 29.241 17.7914 28.9891 18.179C28.42 19.0546 27.5747 20.2199 26.4712 21.3814C24.2484 23.7212 21.0892 25.9341 17.1062 25.9341C13.1232 25.9341 9.96399 23.7212 7.74122 21.3814C6.63773 20.2199 5.79246 19.0546 5.22332 18.179ZM31.6773 16.756C31.6775 16.7564 31.6777 16.7568 30.7538 17.2187C31.6777 17.6807 31.6775 17.681 31.6773 17.6814L31.6768 17.6824L31.6755 17.6851L31.6715 17.693L31.6581 17.7193C31.6467 17.7413 31.6305 17.7724 31.6096 17.8119C31.5678 17.8909 31.5068 18.0036 31.4268 18.1452C31.2671 18.4283 31.0313 18.8278 30.7212 19.3048C30.1023 20.257 29.1807 21.5288 27.9689 22.8043C25.5613 25.3387 21.8967 28 17.1062 28C12.3157 28 8.65115 25.3387 6.24347 22.8043C5.03175 21.5288 4.11014 20.257 3.49121 19.3048C3.18111 18.8278 2.94532 18.4283 2.78557 18.1452C2.70566 18.0036 2.64466 17.8909 2.6028 17.8119C2.58187 17.7724 2.56571 17.7413 2.55435 17.7193L2.54092 17.693L2.53691 17.6851L2.53558 17.6824L2.53509 17.6814C2.53489 17.681 2.53471 17.6807 3.45859 17.2187C2.53471 16.7568 2.53489 16.7564 2.53509 16.756L2.53558 16.755L2.53691 16.7524L2.54092 16.7445L2.55435 16.7182C2.56571 16.6961 2.58187 16.665 2.6028 16.6255C2.64466 16.5466 2.70566 16.4338 2.78557 16.2922C2.94532 16.0091 3.18111 15.6097 3.49121 15.1326C4.11014 14.1804 5.03175 12.9086 6.24347 11.6331C8.65115 9.09875 12.3157 6.4375 17.1062 6.4375C21.8967 6.4375 25.5613 9.09875 27.9689 11.6331C29.1807 12.9086 30.1023 14.1804 30.7212 15.1326C31.0313 15.6097 31.2671 16.0091 31.4268 16.2922C31.5068 16.4338 31.5678 16.5466 31.6096 16.6255C31.6305 16.665 31.6467 16.6961 31.6581 16.7182L31.6715 16.7445L31.6755 16.7524L31.6768 16.755L31.6773 16.756ZM30.7538 17.2187L31.6777 16.7568C31.8231 17.0476 31.8231 17.3899 31.6777 17.6807L30.7538 17.2187ZM2.53471 16.7568L3.45859 17.2187L2.53471 17.6807C2.38931 17.3899 2.38931 17.0476 2.53471 16.7568ZM12.2902 17.2185C12.2902 14.5587 14.4464 12.4025 17.1063 12.4025C19.7661 12.4025 21.9223 14.5587 21.9223 17.2185C21.9223 19.8784 19.7661 22.0346 17.1063 22.0346C14.4464 22.0346 12.2902 19.8784 12.2902 17.2185ZM17.1063 10.3366C13.3055 10.3366 10.2243 13.4178 10.2243 17.2185C10.2243 21.0193 13.3055 24.1005 17.1063 24.1005C20.907 24.1005 23.9882 21.0193 23.9882 17.2185C23.9882 13.4178 20.907 10.3366 17.1063 10.3366Z" fill="#C8C8C8" />
</symbol><symbol viewBox="0 0 34 34" fill="none" id="visa">
<path d="M26.6682 15.7457C26.6682 15.7457 27.0509 17.6348 27.1365 18.0309H25.4549C25.621 17.5789 26.2604 15.8219 26.2604 15.8219C26.2503 15.8371 26.4266 15.3598 26.5273 15.0652L26.6682 15.7457ZM32 8.0625V25.9375C32 27.2832 30.9175 28.375 29.5833 28.375H5.41667C4.08247 28.375 3 27.2832 3 25.9375V8.0625C3 6.7168 4.08247 5.625 5.41667 5.625H29.5833C30.9175 5.625 32 6.7168 32 8.0625ZM10.678 20.8188L13.8599 12.9375H11.7201L9.74149 18.3203L9.525 17.2285L8.82014 13.6027C8.70434 13.1 8.34688 12.9578 7.90382 12.9375H4.64635L4.61111 13.0949C5.4066 13.298 6.11649 13.5926 6.73576 13.9633L8.53819 20.8188H10.678ZM15.4307 20.8289L16.6995 12.9375H14.6755L13.4118 20.8289H15.4307ZM22.4743 18.2492C22.4844 17.3504 21.9406 16.6648 20.7776 16.1012C20.0677 15.7406 19.6347 15.4969 19.6347 15.1262C19.6448 14.791 20.0023 14.4457 20.7977 14.4457C21.4573 14.4305 21.9406 14.5879 22.3031 14.7453L22.4844 14.8316L22.7613 13.1254C22.3635 12.968 21.7292 12.7902 20.9488 12.7902C18.95 12.7902 17.5453 13.8668 17.5352 15.4004C17.5201 16.5328 18.5422 17.1625 19.3075 17.5434C20.0878 17.9293 20.3547 18.1832 20.3547 18.5234C20.3446 19.0516 19.7203 19.2953 19.1413 19.2953C18.3358 19.2953 17.9028 19.1684 17.2432 18.8738L16.9764 18.7469L16.6944 20.5191C17.1677 20.7375 18.0437 20.9305 18.95 20.9406C21.0747 20.9457 22.4592 19.8844 22.4743 18.2492ZM29.5833 20.8289L27.9521 12.9375H26.3863C25.903 12.9375 25.5354 13.0797 25.329 13.5926L22.3233 20.8289H24.4479C24.4479 20.8289 24.7953 19.8539 24.8708 19.6457H27.4688C27.5292 19.925 27.7104 20.8289 27.7104 20.8289H29.5833Z" fill="#C8C8C8" />
</symbol><symbol viewBox="0 0 34 34" fill="none" id="vk">
<path d="M17.5 2C8.93988 2 2 8.93956 2 17.5C2 26.0604 8.93988 33 17.5 33C26.0601 33 33 26.0604 33 17.5C33 8.93956 26.0601 2 17.5 2ZM25.3624 19.1764C26.0849 19.882 26.8492 20.5461 27.4977 21.3247C27.785 21.6691 28.0559 22.0252 28.262 22.4257C28.5563 22.9969 28.2905 23.6233 27.7793 23.6572L24.6038 23.6566C23.7837 23.7244 23.1311 23.3936 22.5808 22.833C22.1416 22.3861 21.7341 21.9088 21.311 21.4468C21.1382 21.2571 20.9561 21.0786 20.7392 20.9381C20.3063 20.6565 19.9302 20.7427 19.6822 21.1949C19.4295 21.6551 19.3717 22.1651 19.3476 22.6772C19.3131 23.426 19.0873 23.6217 18.336 23.6569C16.7306 23.732 15.2074 23.4885 13.7917 22.6791C12.5429 21.9653 11.5762 20.9577 10.7339 19.817C9.09369 17.5932 7.83751 15.1526 6.70883 12.6418C6.4548 12.0763 6.64064 11.7738 7.26445 11.7621C8.30085 11.7421 9.33725 11.7446 10.3736 11.7611C10.7954 11.7678 11.0745 12.0091 11.2366 12.4071C11.7966 13.7851 12.4832 15.0961 13.3436 16.312C13.5729 16.6358 13.807 16.9586 14.1403 17.1873C14.5081 17.4397 14.7885 17.3563 14.962 16.9456C15.073 16.6846 15.1208 16.4056 15.145 16.1259C15.2274 15.1678 15.2372 14.21 15.0945 13.2558C15.0057 12.6586 14.6699 12.273 14.0746 12.1601C13.7714 12.1027 13.8158 11.9904 13.9633 11.8172C14.2192 11.5179 14.459 11.3327 14.9382 11.3327L18.5259 11.332C19.0914 11.443 19.2182 11.6967 19.295 12.2663L19.2982 16.2533C19.2915 16.4737 19.4088 17.127 19.8046 17.2713C20.1218 17.376 20.3311 17.1217 20.5207 16.9209C21.3811 16.0079 21.9941 14.9303 22.5431 13.8149C22.7854 13.323 22.9944 12.814 23.1973 12.3041C23.3483 11.927 23.583 11.7415 24.0086 11.7478L27.4634 11.7519C27.5652 11.7519 27.6686 11.7529 27.7695 11.7703C28.3517 11.8699 28.5113 12.1204 28.3311 12.6884C28.0476 13.5808 27.4967 14.3242 26.9583 15.0695C26.3811 15.8674 25.7655 16.6374 25.194 17.4388C24.6688 18.1714 24.7104 18.5402 25.3624 19.1764Z" fill="#C8C8C8" />
</symbol><symbol viewBox="0 0 25 16" fill="none" id="vk-l">
<path d="M0 2.20118C0 1.39645 0.477602 0.962525 1.43281 0.899408L5.11364 0.923077C5.36067 0.923077 5.52536 1.04142 5.60771 1.27811C5.9865 2.46154 6.41057 3.48323 6.87994 4.3432C7.34931 5.20316 7.96278 6.19329 8.72036 7.31361C8.78623 7.45562 8.89328 7.52663 9.0415 7.52663C9.15679 7.52663 9.24736 7.4714 9.31324 7.36095L9.38735 7.10059L9.41206 3.00592C9.41206 2.72189 9.34206 2.53254 9.20208 2.43787C9.06209 2.3432 8.8027 2.27219 8.42391 2.22485C8.12747 2.17751 7.97925 2.00394 7.97925 1.70414C7.97925 1.64103 7.98748 1.59369 8.00395 1.56213C8.3498 0.536489 9.33794 0.0236686 10.9684 0.0236686L12.3518 0C12.9776 0 13.4964 0.149901 13.9081 0.449704C14.3198 0.749507 14.5257 1.22288 14.5257 1.86982V7.2426C14.641 7.3215 14.748 7.36095 14.8468 7.36095C15.0939 7.36095 15.308 7.21894 15.4891 6.93491C17.3007 4.50493 18.2806 2.87968 18.4289 2.05917C18.4289 2.04339 18.4453 2.00394 18.4783 1.94083C18.5935 1.70414 18.7829 1.49901 19.0464 1.32544C19.3099 1.15187 19.5405 1.03353 19.7381 0.970414C19.804 0.938856 19.8781 0.923077 19.9605 0.923077H23.7895L24.0366 0.946746C24.3659 0.946746 24.6212 1.09665 24.8024 1.39645C24.8682 1.49112 24.9135 1.59369 24.9382 1.70414C24.9629 1.8146 24.9794 1.92505 24.9876 2.0355C24.9959 2.14596 25 2.20907 25 2.22485V2.39053C24.8847 3.03748 24.5924 3.72781 24.123 4.46154C23.6537 5.19527 23.0567 5.98817 22.332 6.84024C21.6074 7.69231 21.1545 8.25247 20.9733 8.52071C20.8251 8.71006 20.751 8.88363 20.751 9.04142C20.751 9.16765 20.8169 9.30966 20.9486 9.46746L24.5553 13.8225C24.753 14.075 24.8518 14.3511 24.8518 14.6509C24.8518 15.0138 24.7036 15.3136 24.4071 15.5503C24.1107 15.787 23.7566 15.9211 23.3449 15.9527L22.9249 15.9763H19.17C19.1535 15.9763 19.1206 15.9803 19.0711 15.9882C19.0217 15.9961 18.9888 16 18.9723 16C18.61 16 18.2724 15.8501 17.9595 15.5503C17.8442 15.4241 17.0702 14.4931 15.6374 12.7574C15.555 12.6469 15.4397 12.5444 15.2915 12.4497C15.2256 12.7022 15.1392 13.0651 15.0321 13.5385C14.9251 14.0118 14.8468 14.3511 14.7974 14.5562L14.7233 14.9586C14.5586 15.5108 14.2128 15.8422 13.6858 15.9527L13.3399 15.9763H10.919C9.55204 15.9763 8.18923 15.3767 6.83053 14.1775C5.47184 12.9783 4.24901 11.428 3.16206 9.52663C2.0751 7.62525 1.06225 5.41223 0.123518 2.88757C0.0411726 2.68245 0 2.45365 0 2.20118ZM14.8468 8.33136C14.501 8.33136 14.1881 8.24063 13.9081 8.05917C13.6281 7.87771 13.4881 7.62919 13.4881 7.31361V1.86982C13.4881 1.55424 13.4058 1.32939 13.2411 1.19527C13.0764 1.06114 12.7882 0.994083 12.3765 0.994083L10.9684 1.04142C10.2602 1.04142 9.72497 1.15976 9.36265 1.39645C10.0873 1.72781 10.4496 2.2643 10.4496 3.00592V7.1716C10.4167 7.56607 10.252 7.89349 9.95553 8.15385C9.65909 8.4142 9.32971 8.54438 8.96739 8.54438C8.47332 8.54438 8.09453 8.31558 7.83103 7.85799C6.54644 5.99606 5.59124 4.2288 4.96542 2.55621L4.74308 1.94083L1.45751 1.91716C1.24341 1.91716 1.12401 1.92899 1.09931 1.95266C1.0746 1.97633 1.06225 2.04339 1.06225 2.15385C1.06225 2.29586 1.07872 2.44576 1.11166 2.60355L1.63043 3.92899C3.01383 7.35306 4.51663 10.0513 6.13883 12.0237C7.76103 13.9961 9.35441 14.9822 10.919 14.9822H13.3893C13.4881 14.9822 13.5623 14.9546 13.6117 14.8994C13.6611 14.8442 13.7022 14.7377 13.7352 14.5799L13.7846 14.3432L14.254 12.2604C14.3857 11.9763 14.501 11.787 14.5998 11.6923C14.781 11.5187 14.9951 11.432 15.2421 11.432C15.6374 11.432 16.0408 11.6607 16.4526 12.1183L18.5524 14.6746C18.6841 14.8797 18.8241 14.9822 18.9723 14.9822H23.0484C23.5425 14.9822 23.7895 14.8639 23.7895 14.6272C23.7895 14.5483 23.7648 14.4694 23.7154 14.3905L20.1334 10.1065C19.8534 9.77515 19.7134 9.42012 19.7134 9.04142C19.7134 8.66272 19.8452 8.2998 20.1087 7.95266C20.3228 7.63708 20.7386 7.11243 21.3562 6.3787C21.9738 5.64497 22.5132 4.95858 22.9743 4.31953C23.4354 3.68047 23.7401 3.10059 23.8883 2.57988L23.9625 2.27219C23.946 2.24063 23.9377 2.18935 23.9377 2.11834C23.9377 2.04734 23.9295 1.98817 23.913 1.94083H20.0346C19.7875 2.0355 19.5899 2.17751 19.4417 2.36686L19.2935 2.81657C18.8818 3.90533 17.803 5.5858 16.0573 7.85799C15.7115 8.17357 15.308 8.33136 14.8468 8.33136Z" fill="#C8C8C8" />
</symbol><symbol viewBox="0 0 34 34" fill="none" id="youtube">
<path fill-rule="evenodd" clip-rule="evenodd" d="M2 17.5C2 8.93956 8.93988 2 17.5 2C26.0601 2 33 8.93956 33 17.5C33 26.0604 26.0601 33 17.5 33C8.93988 33 2 26.0604 2 17.5ZM25.6948 24.8239C26.8406 24.6961 27.7926 23.8376 28.0609 22.6737C28.4424 21.0161 28.4434 19.2065 28.4434 17.5V17.4582C28.4434 15.7639 28.4435 13.9704 28.0651 12.3263C27.7974 11.162 26.8453 10.3036 25.6989 10.1754C22.9855 9.87226 20.2385 9.87067 17.5038 9.87226C14.7685 9.87067 12.0215 9.87226 9.30712 10.1754C8.16131 10.3036 7.2099 11.1624 6.94224 12.3263C6.56073 13.9836 6.55629 15.7935 6.55629 17.5C6.55629 19.2065 6.55629 21.0158 6.9378 22.6737C7.20546 23.8376 8.15687 24.6961 9.30268 24.8239C12.017 25.1274 14.7641 25.129 17.4994 25.1274C20.2347 25.129 22.9811 25.1274 25.6948 24.8239ZM17.7796 19.2878C16.7465 19.8234 15.713 20.3592 14.6756 20.8972V13.6592C15.9344 14.3162 17.189 14.9706 18.4462 15.6264C19.5055 16.179 20.5667 16.7326 21.6338 17.2894C20.3449 17.9579 19.0625 18.6227 17.7796 19.2878Z" fill="#C8C8C8" />
</symbol></defs></svg>